<svg width="110" height="137" viewBox="0 0 110 137" fill="none" xmlns="http://www.w3.org/2000/svg">
<g filter="url(#filter0_d)">
<path d="M1.54645 92.4225L3.35162 6.11694H105.886L109.135 92.4225L92.1665 111.561L55.5183 134.673L20.6814 111.561L1.54645 92.4225Z" fill="#FADE29"/>
<path d="M57.0779 68.1971L53.7725 72.6044L54.3454 83.7137L55.4031 86.4015L55.6236 92.1325L45.1785 94.1162L38.6558 99.2302L41.212 101.081C41.212 101.081 46.6328 97.158 46.8532 97.158C47.0736 97.158 61.5293 95.5268 61.6174 95.3058C61.7056 95.0873 61.97 84.5064 61.97 84.5064L71.7099 78.8196L72.2828 74.6766L74.1339 78.2469L76.9986 78.9081L75.0153 72.8686L68.1842 64.494L60.2071 59.4685L52.8029 49.4175L52.4504 45.2302L58.1798 37.3398L58.312 34.6506L61.8818 36.3258L62.5869 34.3864L56.3728 28.1712L52.5826 27.4215L49.1009 28.3469L47.955 26.4518L40.4627 26.539L39.6694 29.3166L41.9612 29.7136V30.8148L39.6253 31.1233L40.1983 32.49L43.6359 32.2257L45.3988 31.653L47.7346 34.7834L46.1921 36.8543L37.9947 41.8798L36.0555 47.7865L37.0692 60.2182L29.2684 63.3916L24.6849 74.8965L24.7288 82.7869L28.0783 81.9057L27.8579 76.5717L31.3837 66.4334L40.5948 65.4637L43.9442 64.7583L54.0809 72.6929" fill="#696969"/>
<path d="M36.2404 50.0565L31.7535 43.676L29.0423 45.2341L20.9397 57.08L20.7526 61.9728L23.1211 61.9442L24.4612 56.769L30.8497 48.2291L32.813 53.8703L37.0688 60.2195" fill="#464646"/>
<path d="M61.9697 84.5064L68.6687 89.7089L73.2963 91.1185L74.971 94.0276L74.1777 101.565L68.3161 106.327L70.9164 107.518C70.9164 107.518 76.0728 103.857 76.2932 103.857C76.5136 103.857 78.8053 89.1349 78.8053 89.1349L70.2112 83.0954L70.1675 79.7893" fill="#464646"/>
<path d="M52.5825 27.4215L49.5482 25.7541L49.4861 19.5819L51.5429 19.7368L51.2934 24.7232L53.7242 24.5658L54.3163 17.2416L56.2485 17.8338L55.1889 25.0343L56.0615 25.063L58.7105 20.5438L59.2713 22.258L57.0588 26.2175L59.6765 27.307L60.3932 25.5003L63.2603 25.1567L63.5098 26.4349L61.3907 27.307L60.7985 30.082L66.8754 33.6979L72.3603 30.7679L74.4811 25.8114L75.7572 21.9781L75.0177 17.2806L72.6407 16.0545L72.9836 14.434L76.5674 16.3981L77.7312 19.9502L75.6948 27.1208L73.8873 31.64L75.2586 31.0166L77.5023 24.7831L78.4404 19.6834L78.0009 16.2732L78.6554 12.751L80.2447 14.4965L79.5856 16.7014L80.1512 20.0452L79.1014 25.4066L77.253 30.5493L81.1173 27.7755L81.4601 21.3234L82.7379 21.3872L82.7845 26.4987L83.8908 23.7249L83.9068 19.4231L80.5879 16.8979L80.8995 15.7447L84.4677 17.9275L84.4837 16.0259L80.9934 12.6599L82.053 11.8177L86.3847 15.7135L85.668 21.8233L83.9851 28.2441L79.8715 31.6413L68.6526 36.0056L62.5879 34.3825L56.3737 28.1686L52.5825 27.4215Z" fill="#464646"/>
<path d="M92.1647 111.561L24.4601 31.1798L3.34982 6.11682L1 92.7836L20.6796 111.561L55.5165 134.673L92.1647 111.561Z" fill="white" fill-opacity="0.4375"/>
</g>
<mask id="mask0" mask-type="alpha" maskUnits="userSpaceOnUse" x="1" y="0" width="108" height="130">
<path d="M1.18616 87.0209L2.99133 0.715332H105.526L108.775 87.0209L91.8062 106.16L55.158 129.271L20.3211 106.16L1.18616 87.0209Z" fill="#FADE29"/>
</mask>
<g mask="url(#mask0)">
<path d="M84.7645 95.0254L87.1282 100.369L86.451 136.395L83.8728 134.246L79.5752 134.456L77.272 138.338L73.9703 109.498L79.2071 91.6682L83.293 93.196L84.7645 95.0254Z" fill="#111214" stroke="black" stroke-width="0.0350705"/>
<path d="M78.4814 72.3552L85.5452 79.6159L84.2371 80.8013L79.0047 80.0604L73.6414 84.0612L70.6329 86.5802L67.1009 87.0247L62.9151 83.7648L61.7378 82.1349L69.7172 71.0216L78.4814 72.3552Z" fill="#383A39" stroke="black" stroke-width="0.0415281"/>
<path d="M85.9098 87.5187L88.7593 99.4222L87.1921 102.932L85.7674 98.0487L82.4906 97.5911L74.0848 99.8801L71.3779 91.4865L76.2218 87.0605L85.9098 87.5187Z" fill="#1A1A1A" stroke="black" stroke-width="0.0439832"/>
<path d="M84.5526 80.9854L87.0382 89.1351L83.1139 88.6906L77.0965 90.9132L75.0036 94.4695L71.4717 91.6541L66.7807 91.7435L64.962 91.4447L63.754 84.5416L79.4511 78.17L84.5526 80.9854Z" fill="#282928" stroke="black" stroke-width="0.0415281"/>
<path d="M41.6724 95.4328L32.7548 110.578L36.1557 124.949L54.1472 130.764H74.8814L75.4294 104.158L77.1315 90.9602L74.5797 80.5736L44.6224 85.251L41.6724 95.4328Z" fill="#212524" stroke="black" stroke-width="0.0355664"/>
<path d="M59.8483 83.9583L64.9593 87.3639L71.0703 79.4954L72.0702 71.2745L64.626 68.4558L45.0708 70.57L47.404 78.4385L59.8483 83.9583Z" fill="#232524" stroke="black" stroke-width="0.0340735"/>
<path d="M63.8448 62.89L63.7723 69.5801L58.9204 70.9915L56.6755 71.1143L51.8233 67.6774L48.4922 66.2656L48.3474 62.7061L63.8448 62.89Z" fill="#E1B693" stroke="#A66A39" stroke-width="0.0281231"/>
<path d="M45.1117 48.7943L42.8923 49.734L43.2222 55.1426L46.1012 56.7525L45.1117 48.7943Z" fill="#E1B693" stroke="#A66A39" stroke-width="0.033232"/>
<path d="M44.6131 46.2104L46.0927 59.3648L50.7426 65.9422C50.7426 65.9422 56.2908 67.8803 56.7136 67.8803C57.1363 67.8803 62.0505 66.9406 62.0505 66.9406L65.9606 58.4251L65.8549 45.858L62.7902 37.4016L56.555 34.7002L48.8403 35.6399L44.9302 39.9855L44.6131 46.2104Z" fill="#E1B693" stroke="#A66A39" stroke-width="0.033232"/>
<path d="M45.0595 50.1445L42.3568 47.8097L41.286 42.9014L42.6855 36.888L47.2297 32.1899L56.0994 30.6036L64.2753 33.1957L68.258 38.2403L68.7631 44.6635L68.2346 48.0694L66.438 49.2439L64.2187 44.6635L61.471 40.0827L57.5608 38.7906L51.0085 39.613L46.7814 42.1969L45.0595 50.1445Z" fill="#C1A983" stroke="#C9C298" stroke-width="0.033232"/>
<path d="M65.8157 48.0396L68.0351 49.2141L67.6123 54.6169L65.9717 55.3499L65.8157 48.0396Z" fill="#E1B693" stroke="#A66A39" stroke-width="0.033232"/>
<path d="M47.8075 64.7095L51.5787 66.1212L55.5069 69.2769L56.9997 71.2702L62.3422 69.7754L63.4421 67.8651L63.8349 65.6231L65.7205 66.0382L65.0134 70.5226L60.6138 72.5159L54.5642 71.5192L48.1218 69.2769L46.629 67.9481L47.1004 64.9586L47.8075 64.7095Z" fill="#14222B" stroke="black" stroke-width="0.0340735"/>
<path d="M65.642 67.533L67.0562 69.7753L66.349 73.097L58.1782 75.173L49.6931 72.4328L49.5359 70.0244L46.3148 67.9481L60.7709 72.5158L65.642 67.533Z" fill="#363A46" stroke="black" stroke-width="0.0340735"/>
<path d="M65.8777 67.699L74.8342 71.3531L76.327 80.3219L74.2843 85.5535L66.9777 85.3875L66.0349 82.0658L67.2134 78.744L68.7061 77.0002L69.0132 71.021L65.8777 67.699Z" fill="#252525" stroke="black" stroke-width="0.0340735"/>
<path d="M46.0785 79.4961L35.5394 92.7517L35.2467 99.3797L34.9569 99.39C34.9569 99.39 34.9569 99.3981 34.9569 99.4C34.9463 99.4989 34.9246 99.5954 34.8994 99.6909L42.4194 101.074L43.4441 98.916L45.0542 94.7544L46.93 90.4112L50.5552 84.3017C50.5552 84.3017 47.2911 80.7993 46.0785 79.4961V79.4961ZM26.7954 103.31L26.7567 103.386L26.8024 103.346C26.8024 103.334 26.7954 103.322 26.7954 103.31Z" fill="#1E272E" stroke="black" stroke-width="0.0448038"/>
<path d="M31.6236 73.0197L24.5599 80.2801L25.8679 81.4658L31.1004 80.7249L36.4636 84.7257L39.4721 87.2447L43.0041 87.6892L47.1899 84.4294L48.3672 82.7994L40.3878 71.6862L31.6236 73.0197Z" fill="#383A39" stroke="black" stroke-width="0.0415281"/>
<path d="M46.3933 67.865L34.2155 72.6818L34.1369 74.0105L36.7296 73.5121L39.2437 74.3426L43.3292 76.9168L46.5504 80.1558L51.2644 85.1383L54.4356 87.0961L57.5757 88.6106L61.2799 83.7047L60.3862 80.3418L53.6213 77.6644L50.6358 73.8442L49.6145 72.0173V69.9413L46.3933 67.865Z" fill="#252525" stroke="black" stroke-width="0.0340735"/>
<path d="M69.8845 70.3566L69.9631 77.4154L68.0775 80.488L67.8418 82.8961L68.706 84.1419L73.2628 84.2249L75.1484 80.5711L74.127 73.4292L73.5771 71.3532L69.8845 70.3566Z" fill="#2B292C" stroke="#7B7A82" stroke-width="0.0340735"/>
<path d="M39.4008 72.6819C39.9508 72.5988 45.8432 76.8339 45.8432 76.8339C45.8432 76.8339 49.6145 81.1522 49.9287 81.4843C50.243 81.8166 54.1713 85.3045 54.1713 85.3045L56.9997 86.3841L59.1209 83.7266V80.9861L55.0355 79.4913L51.8143 77.3323L48.436 71.7683L47.4146 69.6093H46.2361L39.4008 72.6819Z" stroke="#7B7A82" stroke-width="0.0340735"/>
<path d="M74.9035 119.954H52.3484V123.653H74.9035V119.954Z" fill="#7E654A" stroke="#7B7A82" stroke-width="0.021249"/>
<path d="M58.2568 133.802L55.5856 139.366L56.3712 141.775L58.2568 143.684L61.9494 142.771L62.5779 140.612L60.6138 139.449L61.8708 137.789L62.2636 134.965L69.0259 121.04L64.8619 119.38L58.2568 133.802Z" fill="#796254" stroke="black" stroke-width="0.0340735"/>
<path d="M23.907 102.249L25.8011 108.251L51.6699 131.824L52.1919 127.756L55.7275 123.528L60.2733 123.801L42.5952 101.022L25.9274 94.3375L23.7806 99.521L23.907 102.249Z" fill="#111214" stroke="black" stroke-width="0.0391467"/>
<path d="M24.195 88.1828L21.3456 100.087L22.9128 103.597L24.3374 98.7131L27.6143 98.2552L36.02 100.545L38.727 92.1509L33.8829 87.725L24.195 88.1828Z" fill="#1A1A1A" stroke="black" stroke-width="0.0439832"/>
<path d="M25.5522 81.6502L23.0667 89.7999L26.9909 89.3554L33.0083 91.578L35.1012 95.1343L38.6331 92.3189L43.3242 92.4083L45.1428 92.1092L46.3508 85.2064L30.6537 78.8348L25.5522 81.6502Z" fill="#282928" stroke="black" stroke-width="0.0415281"/>
<path d="M56.1355 123.837L62.7371 123.066L68.0703 126.296L63.7371 135.574L54.6261 132.931L51.8484 130.23L53.6262 124.828L56.1355 123.837Z" fill="#E1B693" stroke="#A66A39" stroke-width="0.0340735"/>
<path d="M59.121 114.951L70.5917 125.248C70.5917 125.248 74.9128 127.989 75.3055 127.657C75.6984 127.325 76.9555 126.411 76.9555 125.996C76.9555 125.581 75.3842 123.837 75.3842 123.837L72.7914 123.671L63.9135 116.031L62.2636 114.536L61.6351 111.297L59.7495 112.045L58.8068 113.622L59.121 114.951Z" fill="#928072" stroke="black" stroke-width="0.0340735"/>
<path d="M65.1677 118.178L84.2644 69.7114L91.883 51.7547L101.468 34.3153L95.9684 53.4156L89.2193 71.8461L69.9642 121.736L65.1677 118.178Z" fill="#B7B09E" stroke="#5E5D58" stroke-width="0.0340735"/>
<path d="M64.6949 118.37C64.8749 118.189 66.588 117.082 66.588 117.082L69.0943 118.114L69.8696 120.995L67.119 122.13L66.077 122.344L64.9553 121.479L64.6949 118.37Z" fill="#796254" stroke="black" stroke-width="0.0340735"/>
<path d="M45.6818 44.1452C44.7487 44.2528 42.4732 43.06 44.5384 44.0724C44.901 44.2044 45.3076 44.286 45.6818 44.1452Z" fill="#C9C298"/>
<g opacity="0.405">
<path opacity="0.405" d="M46.3933 41.6648C46.0758 40.3705 43.7008 38.5304 44.3824 37.9188C45.2842 39.1303 45.0979 41.1648 46.5899 41.8726" fill="#5B5542"/>
<path opacity="0.405" d="M51.3036 38.9243C51.077 38.0364 50.5994 34.966 50.6986 35.7208C50.9642 36.9211 51.4894 38.0563 51.5788 39.2983" fill="#5B5542"/>
<path opacity="0.405" d="M56.1747 38.26C56.4706 36.9773 55.8317 34.1073 56.3968 33.8253C56.6553 35.3245 56.7519 36.8839 56.4472 38.3843" fill="#5B5542"/>
<path opacity="0.405" d="M59.7888 38.2602C61.4724 38.7272 61.4605 33.0571 61.6996 36.3745C61.4736 37.5079 60.4835 38.1702 59.7497 38.9247" fill="#5B5542"/>
<path opacity="0.405" d="M64.4107 43.2054C65.1933 42.0607 67.0941 39.8487 66.0267 38.7886C66.072 40.5206 64.1742 42.3332 64.4107 43.2054Z" fill="#5B5542"/>
</g>
</g>
<defs>
<filter id="filter0_d" x="0.323119" y="6.11682" width="109.489" height="129.91" filterUnits="userSpaceOnUse" color-interpolation-filters="sRGB">
<feFlood flood-opacity="0" result="BackgroundImageFix"/>
<feColorMatrix in="SourceAlpha" type="matrix" values="0 0 0 0 0 0 0 0 0 0 0 0 0 0 0 0 0 0 127 0"/>
<feOffset dy="0.676881"/>
<feGaussianBlur stdDeviation="0.338441"/>
<feColorMatrix type="matrix" values="0 0 0 0 0 0 0 0 0 0 0 0 0 0 0 0 0 0 0.25 0"/>
<feBlend mode="normal" in2="BackgroundImageFix" result="effect1_dropShadow"/>
<feBlend mode="normal" in="SourceGraphic" in2="effect1_dropShadow" result="shape"/>
</filter>
</defs>
</svg>
