<svg width="510" height="594" viewBox="0 0 510 594" fill="none" xmlns="http://www.w3.org/2000/svg">
<path d="M0 571.898H507.155V593.479H0V571.898Z" fill="#464444"/>
<path d="M47.8189 399.015H460.342L510 571.898H0L47.8189 399.015Z" fill="#585858"/>
<path d="M459.634 0L472.718 358.001L408.71 437.39L261.132 533.256L120.849 437.39L37.3544 361.945L39.9305 5.88151L51.0639 0H459.634Z" fill="#3C3C3C"/>
<g filter="url(#filter0_d)">
<path d="M45 351.99L51.9648 19H447.567L460.104 351.99L394.634 425.831L253.236 515L118.827 425.831L45 351.99Z" fill="#272727"/>
<path d="M84.5728 232.385L81.9592 252.177L90.5465 286.907L123.029 305.579L154.392 280.558L151.031 249.189L112.575 238.732L95.0269 263.379L94.2807 304.832L144.685 362.715L194.342 389.603L276.482 378.772L333.98 323.131L340.701 265.994L351.902 268.981L347.421 326.118L325.393 363.462L246.986 397.818L330.62 380.267L381.397 306.325L379.157 246.949L329.5 186.452L320.539 193.174V204.003L299.631 213.711L277.229 203.256L308.965 177.488L340.327 179.73L383.264 219.688L396.705 278.691L389.238 321.264L357.876 360.475L401.932 322.011L420.601 237.612L374.304 161.805L296.644 138.277L246.986 151.346L249.227 162.551L262.668 170.393L257.814 201.389L221.971 189.439L224.958 155.083L286.19 115.87L291.79 81.8884L279.469 69.937L290.297 63.5894L266.775 57.9873L260.258 60.6792L240.458 58.6993L239.006 62.5281L212.473 63.1947L212.737 70.1906L240.722 71.7741L239.666 78.1134C239.666 78.1134 217.358 88.1481 217.226 88.6743C217.093 89.205 220.526 97.3898 220.526 97.3898L228.71 87.6198L237.818 93.2974L246.003 87.7507L257.883 86.1689L261.315 79.9606L268.707 95.2772L261.447 110.46L213.793 142.016L219.358 108.78L191.729 82.639L180.264 79.435L182.905 71.2485L154.92 88.8053L136.703 97.3898L137.231 104.653L121.259 118.513L122.315 123.665L133.271 124.196L135.779 116.535C135.779 116.535 152.675 106.501 152.675 107.029C152.675 107.559 147.659 125.649 147.131 125.78C146.603 125.903 145.679 135.548 145.679 135.548C145.679 135.548 154.787 137.134 154.523 136.473C154.259 135.807 154.788 124.985 154.788 124.985L165.084 123.4C165.084 123.4 161.784 112.441 162.576 112.31C163.368 112.186 171.816 105.576 171.816 105.576L173.136 97.3914L194.125 111.781L192.409 173.704L161.52 150.734L126.011 150.203L103.174 160.237L108.058 140.828L102.646 135.152L100.006 149.805L92.6138 163.933L83.3735 184.529L86.9376 191.394L84.2975 201.165L80.8654 203.938L82.7134 217.407L88.3896 211.857L91.8217 196.939L96.1779 191.132L105.418 217.669L115.979 218.324L110.17 208.422L110.831 203.804L115.583 200.5L112.679 194.957L111.886 188.354L120.466 176.339L127.199 169.078L155.316 170.925L195.181 231.396L214.981 249.747L219.866 268.76L211.945 267.97L178.812 240.509L173.136 216.346L171.816 210.534L170.891 210.262L163.499 210.793L160.463 206.7L148.583 209.871L140.003 212.774L142.247 228.224L153.995 230.731L163.895 242.348L161.255 260.701L172.476 263.473L174.588 252.912L223.693 293.05C223.693 293.05 218.941 301.105 219.865 301.237C220.79 301.36 227.125 301.767 227.125 301.767L249.698 267.174L254.582 269.023L256.826 298.993L261.921 310.056L254.64 316.778L240.079 320.14L214.877 319.203L197.889 307.626L192.289 295.49L184.261 299.225L184.171 301.277L176.704 302.023C176.704 302.023 175.864 312.2 176.33 312.014C176.796 311.835 172.97 314.72 172.97 314.72L173.623 326.577L180.157 326.013L185.291 324.333L196.865 331.615L200.972 338.337L201.063 345.9C201.063 345.9 211.237 346.364 211.61 346.083C211.984 345.812 214.037 331.517 214.037 331.517L228.971 334.132L265.001 335.346L274.989 331.517L289.431 324.333L289.299 304.132L299.067 296.211L296.295 326.182L281.379 350.607L247.322 365.66L199.8 370.413L154.919 351.662L116.242 313.374L106.869 301.888L106.473 295.551L103.437 273.633L111.225 254.487L139.474 262.41L135.646 281.818L120.861 289.871L104.493 282.612L91.9525 258.187L89.8404 233.76L84.5728 232.385Z" fill="#A61C20"/>
<path d="M95.0546 196.803L92.8105 201.888L90.8304 219.448L81.6562 224L82.5142 231.461L89.3124 230.931L90.8965 225.715L93.7345 225.59C93.7345 225.59 97.4966 213.707 97.4966 213.313C97.4966 212.918 95.6486 197.27 95.6486 197.27L95.0546 196.803Z" fill="#D6D6D6"/>
<path d="M139.869 222.089L128.781 223.542L129.838 218.92L140.13 213.656L139.869 222.089Z" fill="#E8E8E8"/>
<path d="M148.583 209.87L140.861 206.374L141.521 202.876L153.401 202.604L154.149 208.376L148.583 209.87Z" fill="#E8E8E8"/>
<path d="M170.693 208.49L169.109 202.613L159.935 198.188L160.793 203.736L162.783 209.829L170.693 208.49Z" fill="#E8E8E8"/>
<path d="M161.916 262.457L160.497 266.813L157.163 268.991L168.021 270.478L169.539 263.975L161.916 262.457Z" fill="#E9E9E9"/>
<path d="M189.721 294.889C189.395 294.71 180.528 291.806 180.528 291.806L175.627 296.99L183.094 298.669L189.721 294.889Z" fill="#E9E9E9"/>
<path d="M176.704 302.024L168.067 302.543L164.24 308.984L176.198 310.215L176.704 302.024Z" fill="#E9E9E9"/>
<path d="M173.082 316.761L165.032 319.347L165.219 331.112L170.165 326.958L173.492 324.212L173.082 316.761Z" fill="#E9E9E9"/>
<path d="M203.862 346.983L201.856 350.765L198.542 354.684C198.542 354.684 209.65 354.221 209.93 353.984C210.21 353.747 212.403 346.656 212.403 346.656L203.862 346.983Z" fill="#E9E9E9"/>
<path d="M146.504 113.396C146.225 113.396 136.797 119.697 136.797 119.697C136.797 119.697 130.217 127.772 130.03 127.772C129.844 127.772 119.063 127.92 119.063 127.92L118.175 131L121.815 132.587L122.795 135.156L125.222 134.456L131.236 131.787L138.196 126.336L146.504 113.396Z" fill="#E9E9E9"/>
<path d="M237.279 73.6717C237.045 73.6717 212.916 73.5592 212.916 73.5592L208.343 74.3938L202.322 69.8682L197.562 72.5281L204.562 75.7036L206.102 78.7834L224.257 79.618L232.705 76.0244L237.279 73.6717Z" fill="#E9E9E9"/>
<path d="M297.075 67.9565L331.127 75.2177L337.136 83.7316L347.903 105.52L341.142 124.053L321.351 132.983C321.351 132.983 305.838 122.05 305.588 120.798C305.337 119.545 297.325 100.262 297.325 100.262L304.086 89.243L316.855 86.489L346.901 84.4856L393.973 127.559L412.752 165.623L416.257 206.695L407.243 192.671L396.978 168.631L378.449 138.577L359.42 115.038L350.657 102.518L329.124 95.5033L313.851 99.7586V109.779L327.371 115.038L331.628 106.524L331.377 97.5084L312.348 81.4797L299.078 77.9734L297.075 67.9565Z" fill="#A61C20"/>
<path d="M394.634 425.831L51.9648 19L45 351.99L118.827 425.831L253.236 515L394.634 425.831Z" fill="white" fill-opacity="0.239362"/>
</g>
<g filter="url(#filter1_d)">
<rect x="166.16" y="484.31" width="185.48" height="64.4029" fill="#585858"/>
</g>
<rect x="144.003" y="498.333" width="242.773" height="51.4973" fill="#585858"/>
<defs>
<filter id="filter0_d" x="45" y="19" width="422.623" height="503.519" filterUnits="userSpaceOnUse" color-interpolation-filters="sRGB">
<feFlood flood-opacity="0" result="BackgroundImageFix"/>
<feColorMatrix in="SourceAlpha" type="matrix" values="0 0 0 0 0 0 0 0 0 0 0 0 0 0 0 0 0 0 127 0"/>
<feOffset dx="3.7594" dy="3.7594"/>
<feGaussianBlur stdDeviation="1.8797"/>
<feColorMatrix type="matrix" values="0 0 0 0 0 0 0 0 0 0 0 0 0 0 0 0 0 0 0.566 0"/>
<feBlend mode="normal" in2="BackgroundImageFix" result="effect1_dropShadow"/>
<feBlend mode="normal" in="SourceGraphic" in2="effect1_dropShadow" result="shape"/>
</filter>
<filter id="filter1_d" x="104.53" y="345.642" width="308.741" height="203.071" filterUnits="userSpaceOnUse" color-interpolation-filters="sRGB">
<feFlood flood-opacity="0" result="BackgroundImageFix"/>
<feColorMatrix in="SourceAlpha" type="matrix" values="0 0 0 0 0 0 0 0 0 0 0 0 0 0 0 0 0 0 127 0"/>
<feOffset dy="-77.0377"/>
<feGaussianBlur stdDeviation="30.8151"/>
<feColorMatrix type="matrix" values="0 0 0 0 0 0 0 0 0 0 0 0 0 0 0 0 0 0 0.25 0"/>
<feBlend mode="normal" in2="BackgroundImageFix" result="effect1_dropShadow"/>
<feBlend mode="normal" in="SourceGraphic" in2="effect1_dropShadow" result="shape"/>
</filter>
</defs>
</svg>
