<svg width="510" height="594" viewBox="0 0 510 594" fill="none" xmlns="http://www.w3.org/2000/svg">
<path d="M0 571.898H507.155V593.479H0V571.898Z" fill="#464444"/>
<path d="M47.8189 399.015H460.342L510 571.898H0L47.8189 399.015Z" fill="#585858"/>
<path d="M459.634 0L472.718 358.001L408.71 437.39L261.132 533.256L120.849 437.39L37.3544 361.945L39.9305 5.88151L51.0639 0H459.634Z" fill="#3C3C3C"/>
<g filter="url(#filter0_d)">
<path d="M48 352.661L54.9789 19H451.379L463.941 352.661L398.339 426.651L256.656 516L121.976 426.651L48 352.661Z" fill="#87090A"/>
<path d="M266.385 260.085L219.596 248.826L185.067 277.855L207.086 301.38L171.055 314.394L171.306 329.659L179.563 325.905L185.318 336.666L199.83 322.151L201.832 334.913L239.113 305.132L240.114 285.363L256.628 279.857L244.617 316.395L282.399 339.92L277.895 350.681L251.123 369.95L256.127 382.464L262.883 379.211L272.641 388.722L289.155 363.694L292.658 376.708L327.187 338.919L298.413 301.38L307.17 281.358L333.692 292.118L372.225 261.339L333.692 191.513L327.938 157.729L346.203 140.211L349.706 159.982L364.468 150.971L359.714 181.504L378.23 161.232L392.992 193.266L396.995 145.716L355.21 129.95L323.684 145.467L316.178 169.24L352.708 246.322L345.953 272.599L313.676 270.846L290.406 216.04L307.42 142.213L291.907 104.922L252.374 109.679L249.872 114.934H231.607L231.356 129.699L251.122 128.197L249.621 135.706L232.857 137.958L233.358 144.964L243.867 145.967L241.364 150.721L185.067 190.013L161.047 196.27L132.758 187.681L115.696 189.887L127.018 195.267L114.946 201.712L126.768 203.527L123.515 211.035L140.029 208.782L139.778 216.792L181.063 219.292L190.321 211.786L201.08 218.042L212.089 207.282L225.35 211.284L267.135 251.326L266.385 260.085Z" fill="#FADE29"/>
<path d="M241.366 150.721L217.553 150.905L213.396 152.941L187.034 125.422L187.653 97.9046L181.106 84.2778C181.106 84.2778 179.426 94.3654 178.806 94.1018C178.187 93.8307 168.721 85.606 168.721 85.606L166.687 96.223L153.594 92.7737L158.195 104.098L164.652 115.423L164.387 119.494L159.522 112.947L157.31 128.695L168.81 136.57L170.933 150.375L183.583 146.833L186.503 169.484L192.164 167.363L196.265 182.196L241.366 150.721Z" fill="#D7BD13"/>
<path d="M398.339 426.651L54.9789 19L48 352.661L121.976 426.651L256.656 516L398.339 426.651Z" fill="white" fill-opacity="0.297872"/>
</g>
<g filter="url(#filter1_d)">
<rect x="166.16" y="484.31" width="185.48" height="64.4029" fill="#585858"/>
</g>
<rect x="144.003" y="498.333" width="242.773" height="51.4973" fill="#585858"/>
<defs>
<filter id="filter0_d" x="45.3179" y="19" width="421.305" height="502.364" filterUnits="userSpaceOnUse" color-interpolation-filters="sRGB">
<feFlood flood-opacity="0" result="BackgroundImageFix"/>
<feColorMatrix in="SourceAlpha" type="matrix" values="0 0 0 0 0 0 0 0 0 0 0 0 0 0 0 0 0 0 127 0"/>
<feOffset dy="2.68214"/>
<feGaussianBlur stdDeviation="1.34107"/>
<feColorMatrix type="matrix" values="0 0 0 0 0 0 0 0 0 0 0 0 0 0 0 0 0 0 0.25 0"/>
<feBlend mode="normal" in2="BackgroundImageFix" result="effect1_dropShadow"/>
<feBlend mode="normal" in="SourceGraphic" in2="effect1_dropShadow" result="shape"/>
</filter>
<filter id="filter1_d" x="104.53" y="345.642" width="308.741" height="203.071" filterUnits="userSpaceOnUse" color-interpolation-filters="sRGB">
<feFlood flood-opacity="0" result="BackgroundImageFix"/>
<feColorMatrix in="SourceAlpha" type="matrix" values="0 0 0 0 0 0 0 0 0 0 0 0 0 0 0 0 0 0 127 0"/>
<feOffset dy="-77.0377"/>
<feGaussianBlur stdDeviation="30.8151"/>
<feColorMatrix type="matrix" values="0 0 0 0 0 0 0 0 0 0 0 0 0 0 0 0 0 0 0.25 0"/>
<feBlend mode="normal" in2="BackgroundImageFix" result="effect1_dropShadow"/>
<feBlend mode="normal" in="SourceGraphic" in2="effect1_dropShadow" result="shape"/>
</filter>
</defs>
</svg>
