<svg width="510" height="594" viewBox="0 0 510 594" fill="none" xmlns="http://www.w3.org/2000/svg">
<path d="M0 571.898H507.155V593.479H0V571.898Z" fill="#464444"/>
<path d="M47.8189 399.015H460.342L510 571.898H0L47.8189 399.015Z" fill="#585858"/>
<path d="M459.634 0L472.718 358.001L408.71 437.39L261.132 533.256L120.849 437.39L37.3544 361.945L39.9305 5.88151L51.0639 0H459.634Z" fill="#3C3C3C"/>
<path d="M48.3651 349.639L55.2775 19.2271H447.901L460.343 349.639L395.367 422.91L255.034 511.389L121.636 422.91L48.3651 349.639Z" fill="#D4CDB1"/>
<path d="M458.961 305.402H48.3651V351.024L118.871 420.147L255.737 511.391L393.984 422.912L458.961 351.024V305.402Z" fill="#7B906F"/>
<path d="M207.807 361.221C205.923 364.719 120.45 266.238 77.9485 216.56L227.655 125.054L214.872 112.606L264.662 116.307L292.248 112.606L356.168 125.054L371.307 143.22L431.863 157.013L426.816 177.199C415.378 188.637 392.232 212.523 391.156 216.56C390.079 220.597 386.894 207.476 385.437 200.412L371.307 216.56L365.588 195.365L344.393 200.412L338.001 189.646H324.208V204.112H338.001L344.393 216.56L356.168 211.514L365.588 225.98H385.437L356.168 269.714L351.795 255.248L344.393 249.837L333.291 252.22V241.721L311.761 225.98C277.894 269.602 209.691 357.722 207.807 361.221Z" fill="#464646"/>
<path d="M234.829 121.036L279.604 127.62L295.406 137.826L262.814 142.765L234.829 121.036Z" fill="#757575"/>
<path d="M314.116 138.85C329.278 139.873 359.789 141.921 360.542 141.921L358.033 142.843L358.66 148.372L351.445 152.979L314.116 138.85Z" fill="#757575"/>
<path d="M148.26 213.536L77.9482 216.9L130.43 184.604L148.26 213.536Z" fill="#757575"/>
<path d="M190.312 184.265H131.439L173.827 158.024L190.312 184.265Z" fill="#757575"/>
<path d="M234.384 153.989L174.165 158.026L227.655 125.057L234.384 153.989Z" fill="#757575"/>
<path d="M222.609 288.555L207.806 361.558L247.504 309.077L222.609 288.555Z" fill="#757575"/>
<path d="M257.598 255.925L246.832 308.406L278.119 269.382L257.598 255.925Z" fill="#757575"/>
<path d="M283.503 221.608L278.457 269.044L310.753 226.318L283.503 221.608Z" fill="#757575"/>
<path d="M398.132 424.293L56.66 16.4624L48.3651 353.787L117.489 424.293L254.354 516.919L398.132 424.293Z" fill="white" fill-opacity="0.352"/>
<g filter="url(#filter0_d)">
<rect x="166.16" y="484.31" width="185.48" height="64.4029" fill="#585858"/>
</g>
<rect x="144.003" y="498.333" width="242.773" height="51.4973" fill="#585858"/>
<defs>
<filter id="filter0_d" x="104.53" y="345.642" width="308.741" height="203.071" filterUnits="userSpaceOnUse" color-interpolation-filters="sRGB">
<feFlood flood-opacity="0" result="BackgroundImageFix"/>
<feColorMatrix in="SourceAlpha" type="matrix" values="0 0 0 0 0 0 0 0 0 0 0 0 0 0 0 0 0 0 127 0"/>
<feOffset dy="-77.0377"/>
<feGaussianBlur stdDeviation="30.8151"/>
<feColorMatrix type="matrix" values="0 0 0 0 0 0 0 0 0 0 0 0 0 0 0 0 0 0 0.25 0"/>
<feBlend mode="normal" in2="BackgroundImageFix" result="effect1_dropShadow"/>
<feBlend mode="normal" in="SourceGraphic" in2="effect1_dropShadow" result="shape"/>
</filter>
</defs>
</svg>
