<svg width="510" height="594" viewBox="0 0 510 594" fill="none" xmlns="http://www.w3.org/2000/svg">
<path d="M0 571.898H507.155V593.479H0V571.898Z" fill="#464444"/>
<path d="M47.8189 399.015H460.342L510 571.898H0L47.8189 399.015Z" fill="#585858"/>
<path d="M459.634 0L472.718 358.001L408.71 437.39L261.132 533.256L120.849 437.39L37.3544 361.945L39.9305 5.88151L51.0639 0H459.634Z" fill="#3C3C3C"/>
<path d="M48.3651 349.639L55.2775 19.2271H447.901L460.343 349.639L395.367 422.91L255.034 511.389L121.636 422.91L48.3651 349.639Z" fill="#D4CDB1"/>
<path d="M458.961 305.402H48.3651V351.024L118.871 420.147L255.737 511.391L393.984 422.912L458.961 351.024V305.402Z" fill="#7B906F"/>
<path d="M207.807 361.221C205.923 364.719 120.45 266.238 77.9485 216.56L227.655 125.054L214.872 112.606L264.662 116.307L292.248 112.606L356.168 125.054L371.307 143.22L431.863 157.013L426.816 177.199C415.378 188.637 392.232 212.523 391.156 216.56C390.079 220.597 386.894 207.476 385.437 200.412L371.307 216.56L365.588 195.365L344.393 200.412L338.001 189.646H324.208V204.112H338.001L344.393 216.56L356.168 211.514L365.588 225.98H385.437L356.168 269.714L351.795 255.248L344.393 249.837L333.291 252.22V241.721L311.761 225.98C277.894 269.602 209.691 357.722 207.807 361.221Z" fill="#464646"/>
<path d="M234.829 121.036L279.604 127.62L295.406 137.826L262.814 142.765L234.829 121.036Z" fill="#757575"/>
<path d="M314.116 138.85C329.278 139.873 359.789 141.921 360.542 141.921L358.033 142.843L358.66 148.372L351.445 152.979L314.116 138.85Z" fill="#757575"/>
<path d="M148.26 213.536L77.9482 216.9L130.43 184.604L148.26 213.536Z" fill="#757575"/>
<path d="M190.312 184.265H131.439L173.827 158.024L190.312 184.265Z" fill="#757575"/>
<path d="M234.384 153.989L174.165 158.026L227.655 125.057L234.384 153.989Z" fill="#757575"/>
<path d="M222.609 288.555L207.806 361.558L247.504 309.077L222.609 288.555Z" fill="#757575"/>
<path d="M257.598 255.925L246.832 308.406L278.119 269.382L257.598 255.925Z" fill="#757575"/>
<path d="M283.503 221.608L278.457 269.044L310.753 226.318L283.503 221.608Z" fill="#757575"/>
<path d="M398.132 424.293L56.66 16.4624L48.3651 353.787L117.489 424.293L254.354 516.919L398.132 424.293Z" fill="white" fill-opacity="0.352"/>
<path d="M48.092 349.424L55.0032 19H447.56L460 349.424L395.035 422.698L254.725 511.181L121.351 422.698L48.092 349.424Z" fill="#FADE29"/>
<path d="M260.696 256.675L248.041 273.549L250.235 316.081L254.284 326.371L255.128 348.313L215.139 355.907L190.167 375.487L199.953 382.573C199.953 382.573 220.707 367.553 221.551 367.553C222.394 367.553 277.739 361.308 278.076 360.462C278.414 359.625 279.426 319.116 279.426 319.116L316.716 297.344L318.909 281.482L325.996 295.151L336.963 297.683L329.37 274.56L303.217 242.498L272.677 223.257L244.329 184.777L242.98 168.745L264.915 138.537L265.421 128.241L279.088 134.655L281.788 127.23L257.997 103.434L243.486 100.564L230.156 104.107L225.769 96.8516L197.084 97.1854L194.047 107.82L202.821 109.34V113.556L193.878 114.737L196.072 119.969L209.233 118.957L215.982 116.765L224.925 128.75L219.02 136.678L187.635 155.918L180.211 178.532L184.092 226.128L154.226 238.277L136.678 282.324L136.847 312.533L149.67 309.159L148.826 288.738L162.325 249.923L197.59 246.21L210.414 243.509L249.222 273.888" fill="#696969"/>
<path d="M180.919 187.224L163.741 162.796L153.361 168.761L122.34 214.114L121.624 232.846L130.691 232.736L135.822 212.923L160.281 180.227L167.797 201.825L184.091 226.133" fill="#464646"/>
<path d="M279.425 319.116L305.072 339.034L322.789 344.431L329.201 355.569L326.164 384.427L303.722 402.656L313.678 407.215C313.678 407.215 333.419 393.202 334.263 393.202C335.107 393.202 343.881 336.837 343.881 336.837L310.978 313.714L310.811 301.057" fill="#464646"/>
<path d="M243.485 100.564L231.868 94.1807L231.631 70.55L239.505 71.143L238.55 90.2339L247.857 89.6309L250.123 61.59L257.521 63.8574L253.464 91.4249L256.805 91.5346L266.947 74.2326L269.094 80.7956L260.623 95.9547L270.645 100.126L273.389 93.2089L284.366 91.8933L285.321 96.7869L277.208 100.126L274.941 110.75L298.206 124.594L319.205 113.376L327.325 94.3999L332.211 79.7242L329.379 61.7395L320.279 57.0453L321.592 50.8411L335.312 58.3609L339.768 71.9602L331.972 99.4131L325.052 116.715L330.302 114.328L338.892 90.4631L342.483 70.9387L340.801 57.8825L343.306 44.3977L349.391 51.0803L346.868 59.522L349.033 72.324L345.014 92.8501L337.937 112.539L352.732 101.92L354.044 77.2176L358.936 77.4618L359.115 97.0311L363.35 86.4117L363.412 69.942L350.705 60.2744L351.898 55.8593L365.559 64.2162L365.62 56.9356L352.258 44.0489L356.314 40.8247L372.899 55.7397L370.154 79.1312L363.712 103.714L347.962 116.72L305.01 133.429L281.791 127.215L258 103.425L243.485 100.564Z" fill="#464646"/>
<path d="M395.028 422.698L135.818 114.955L54.9964 19L46 350.807L121.344 422.698L254.718 511.181L395.028 422.698Z" fill="white" fill-opacity="0.4375"/>
<g filter="url(#filter0_d)">
<rect x="166.16" y="484.31" width="185.48" height="64.4029" fill="#585858"/>
</g>
<rect x="144.003" y="498.333" width="242.773" height="51.4973" fill="#585858"/>
<defs>
<filter id="filter0_d" x="104.53" y="345.642" width="308.741" height="203.071" filterUnits="userSpaceOnUse" color-interpolation-filters="sRGB">
<feFlood flood-opacity="0" result="BackgroundImageFix"/>
<feColorMatrix in="SourceAlpha" type="matrix" values="0 0 0 0 0 0 0 0 0 0 0 0 0 0 0 0 0 0 127 0"/>
<feOffset dy="-77.0377"/>
<feGaussianBlur stdDeviation="30.8151"/>
<feColorMatrix type="matrix" values="0 0 0 0 0 0 0 0 0 0 0 0 0 0 0 0 0 0 0.25 0"/>
<feBlend mode="normal" in2="BackgroundImageFix" result="effect1_dropShadow"/>
<feBlend mode="normal" in="SourceGraphic" in2="effect1_dropShadow" result="shape"/>
</filter>
</defs>
</svg>
