<svg width="609" height="752" viewBox="0 0 609 752" fill="none" xmlns="http://www.w3.org/2000/svg">
<g filter="url(#filter0_d)">
<path d="M7.03455 509.342L17.0605 30.0005H586.536L604.583 509.342L510.338 615.639L306.794 744L113.31 615.639L7.03455 509.342Z" fill="#FADE29"/>
<path d="M315.457 374.796L297.098 399.274L300.281 460.974L306.155 475.903L307.379 507.733L249.367 518.75L213.14 547.153L227.337 557.433C227.337 557.433 257.445 535.644 258.669 535.644C259.893 535.644 340.18 526.585 340.669 525.357C341.159 524.143 342.627 465.377 342.627 465.377L396.723 433.793L399.905 410.782L410.186 430.612L426.096 434.284L415.081 400.741L377.141 354.229L332.836 326.317L291.714 270.493L289.755 247.237L321.576 203.414L322.311 188.478L342.138 197.782L346.054 187.011L311.541 152.492L290.49 148.328L271.152 153.468L264.788 142.942L223.176 143.426L218.77 158.853L231.498 161.058V167.174L218.525 168.887L221.707 176.478L240.8 175.01L250.591 171.83L263.564 189.216L254.997 200.717L209.469 228.629L198.698 261.435L204.328 330.481L161.003 348.106L135.546 412.004L135.79 455.827L154.393 450.933L153.169 421.308L172.751 365L223.909 359.614L242.512 355.696L298.811 399.765" fill="#696969"/>
<path d="M199.725 274.043L174.805 238.605L159.747 247.259L114.745 313.051L113.706 340.226L126.861 340.067L134.304 311.324L169.786 263.893L180.69 295.224L204.327 330.488" fill="#464646"/>
<path d="M342.626 465.377L379.832 494.272L405.534 502.101L414.835 518.258L410.429 560.122L377.874 586.567L392.316 593.181C392.316 593.181 420.955 572.853 422.179 572.853C423.403 572.853 436.131 491.084 436.131 491.084L388.4 457.541L388.157 439.178" fill="#464646"/>
<path d="M290.489 148.328L273.637 139.067L273.292 104.786L284.715 105.647L283.33 133.341L296.831 132.467L300.119 91.7882L310.85 95.0775L304.965 135.069L309.812 135.228L324.524 110.129L327.639 119.649L315.35 141.641L329.889 147.691L333.87 137.657L349.794 135.749L351.18 142.848L339.41 147.691L336.121 163.104L369.872 183.187L400.335 166.914L412.114 139.385L419.202 118.095L415.094 92.0051L401.893 85.1952L403.797 76.1949L423.701 87.1037L430.165 106.832L418.855 146.658L408.816 171.757L416.432 168.294L428.894 133.674L434.104 105.35L431.663 86.4097L435.298 66.8476L444.125 76.5419L440.464 88.7881L443.606 107.36L437.775 137.137L427.509 165.699L448.972 150.294L450.876 114.459L457.972 114.813L458.231 143.202L464.376 127.797L464.464 103.904L446.031 89.8797L447.762 83.4747L467.58 95.598L467.669 85.0362L448.284 66.3416L454.168 61.6643L478.227 83.3012L474.246 117.235L464.899 152.896L442.052 171.764L379.743 196.004L346.059 186.989L311.546 152.477L290.489 148.328Z" fill="#464646"/>
<path d="M510.329 615.639L134.297 169.2L17.0509 30L4 511.348L113.3 615.639L306.784 744L510.329 615.639Z" fill="white" fill-opacity="0.4375"/>
</g>
<mask id="mask0" mask-type="alpha" maskUnits="userSpaceOnUse" x="5" y="0" width="598" height="715">
<path d="M5.03442 479.342L15.0604 0.000488281H584.536L602.583 479.342L508.338 585.639L304.794 714L111.31 585.639L5.03442 479.342Z" fill="#FADE29"/>
</mask>
<g mask="url(#mask0)">
<path d="M469.228 523.798L482.356 553.476L478.595 753.563L464.275 741.631L440.406 742.794L427.615 764.354L409.277 604.181L438.362 505.153L461.056 513.638L469.228 523.798Z" fill="#111214" stroke="black" stroke-width="0.194782"/>
<path d="M434.332 397.888L473.564 438.214L466.3 444.798L437.238 440.683L407.451 462.903L390.742 476.894L371.125 479.363L347.877 461.257L341.338 452.205L385.656 390.482L434.332 397.888Z" fill="#383A39" stroke="black" stroke-width="0.230647"/>
<path d="M475.59 482.106L491.416 548.218L482.712 567.714L474.799 540.589L456.6 538.048L409.914 550.761L394.88 504.143L421.783 479.562L475.59 482.106Z" fill="#1A1A1A" stroke="black" stroke-width="0.244283"/>
<path d="M468.053 445.821L481.857 491.085L460.062 488.616L426.641 500.961L415.017 520.712L395.401 505.075L369.347 505.572L359.246 503.912L352.537 465.573L439.719 430.185L468.053 445.821Z" fill="#282928" stroke="black" stroke-width="0.230647"/>
<path d="M229.895 526.062L180.367 610.179L199.255 689.997L299.18 722.29H414.338L417.382 574.52L426.835 501.221L412.662 443.534L246.28 469.512L229.895 526.062Z" fill="#212524" stroke="black" stroke-width="0.197536"/>
<path d="M330.843 462.331L359.23 481.246L393.17 437.544L398.724 391.885L357.379 376.23L248.769 387.972L261.728 431.674L330.843 462.331Z" fill="#232524" stroke="black" stroke-width="0.189244"/>
<path d="M353.041 345.319L352.638 382.476L325.69 390.315L313.222 390.996L286.273 371.908L267.772 364.067L266.968 344.297L353.041 345.319Z" fill="#E1B693" stroke="#A66A39" stroke-width="0.156196"/>
<path d="M248.997 267.031L236.67 272.249L238.503 302.289L254.493 311.23L248.997 267.031Z" fill="#E1B693" stroke="#A66A39" stroke-width="0.18457"/>
<path d="M246.228 252.68L254.445 325.739L280.271 362.27C280.271 362.27 311.086 373.034 313.434 373.034C315.781 373.034 343.075 367.815 343.075 367.815L364.792 320.521L364.205 250.723L347.183 203.756L312.553 188.752L269.706 193.971L247.989 218.107L246.228 252.68Z" fill="#E1B693" stroke="#A66A39" stroke-width="0.18457"/>
<path d="M248.707 274.53L233.696 261.563L227.749 234.302L235.522 200.903L260.76 174.81L310.022 166L355.431 180.396L377.551 208.414L380.356 244.088L377.421 263.005L367.443 269.528L355.117 244.088L339.856 218.647L318.139 211.471L281.748 216.038L258.27 230.389L248.707 274.53Z" fill="#C1A983" stroke="#C9C298" stroke-width="0.18457"/>
<path d="M363.987 262.84L376.313 269.363L373.965 299.37L364.853 303.442L363.987 262.84Z" fill="#E1B693" stroke="#A66A39" stroke-width="0.18457"/>
<path d="M263.969 355.424L284.914 363.265L306.732 380.791L315.023 391.862L344.695 383.56L350.804 372.95L352.985 360.498L363.458 362.803L359.531 387.71L335.095 398.78L301.496 393.245L265.715 380.791L257.424 373.411L260.042 356.807L263.969 355.424Z" fill="#14222B" stroke="black" stroke-width="0.189244"/>
<path d="M363.022 371.106L370.876 383.56L366.949 402.008L321.568 413.539L274.441 398.319L273.568 384.943L255.678 373.411L335.968 398.781L363.022 371.106Z" fill="#363A46" stroke="black" stroke-width="0.189244"/>
<path d="M364.331 372.028L414.075 392.323L422.366 442.135L411.021 471.192L370.44 470.27L365.204 451.821L371.749 433.372L380.04 423.687L381.745 390.478L364.331 372.028Z" fill="#252525" stroke="black" stroke-width="0.189244"/>
<path d="M254.366 437.549L195.832 511.171L194.207 547.983L192.597 548.04C192.597 548.04 192.597 548.085 192.597 548.095C192.538 548.645 192.417 549.181 192.277 549.711L234.044 557.39L239.735 545.408L248.677 522.294L259.095 498.172L279.23 464.24C279.23 464.24 261.101 444.787 254.366 437.549ZM147.268 569.814L147.053 570.237L147.307 570.009C147.307 569.944 147.268 569.876 147.268 569.814Z" fill="#1E272E" stroke="black" stroke-width="0.248841"/>
<path d="M174.083 401.579L134.851 441.903L142.116 448.489L171.178 444.374L200.965 466.594L217.674 480.585L237.29 483.054L260.538 464.948L267.077 455.895L222.76 394.172L174.083 401.579Z" fill="#383A39" stroke="black" stroke-width="0.230647"/>
<path d="M256.115 372.95L188.48 399.703L188.043 407.083L202.443 404.314L216.406 408.927L239.097 423.224L256.987 441.213L283.169 468.886L300.782 479.76L318.222 488.172L338.795 460.924L333.831 442.247L296.259 427.376L279.678 406.159L274.005 396.012V384.482L256.115 372.95Z" fill="#252525" stroke="black" stroke-width="0.189244"/>
<path d="M386.585 386.787L387.021 425.992L376.549 443.058L375.24 456.432L380.04 463.351L405.348 463.812L415.821 443.519L410.148 403.853L407.094 392.323L386.585 386.787Z" fill="#2B292C" stroke="#7B7A82" stroke-width="0.189244"/>
<path d="M217.279 399.703C220.333 399.242 253.06 422.763 253.06 422.763C253.06 422.763 274.005 446.747 275.751 448.591C277.496 450.437 299.314 469.809 299.314 469.809L315.023 475.805L326.804 461.045V445.825L304.114 437.523L286.223 425.531L267.46 394.629L261.787 382.637H255.242L217.279 399.703Z" stroke="#7B7A82" stroke-width="0.189244"/>
<path d="M414.46 662.251H289.189V682.797H414.46V662.251Z" fill="#7E654A" stroke="#7B7A82" stroke-width="0.118017"/>
<path d="M322.004 739.165L307.168 770.068L311.532 783.442L322.004 794.05L342.513 788.978L346.004 776.985L335.095 770.529L342.076 761.305L344.258 745.623L381.816 668.285L358.689 659.061L322.004 739.165Z" fill="#796254" stroke="black" stroke-width="0.189244"/>
<path d="M131.226 563.917L141.745 597.252L285.421 728.18L288.32 705.586L307.956 682.102L333.204 683.617L235.02 557.101L142.447 519.978L130.524 548.767L131.226 563.917Z" fill="#111214" stroke="black" stroke-width="0.217421"/>
<path d="M132.825 485.795L117 551.909L125.704 571.403L133.616 544.28L151.816 541.737L198.502 554.452L213.536 507.834L186.633 483.252L132.825 485.795Z" fill="#1A1A1A" stroke="black" stroke-width="0.244283"/>
<path d="M140.363 449.512L126.559 494.776L148.354 492.307L181.774 504.651L193.399 524.403L213.015 508.766L239.069 509.263L249.17 507.601L255.879 469.263L168.697 433.875L140.363 449.512Z" fill="#282928" stroke="black" stroke-width="0.230647"/>
<path d="M310.223 683.817L346.888 679.537L376.509 697.474L352.442 749.005L301.84 734.328L286.412 719.326L296.286 689.322L310.223 683.817Z" fill="#E1B693" stroke="#A66A39" stroke-width="0.189244"/>
<path d="M326.804 634.466L390.512 691.658C390.512 691.658 414.512 706.879 416.693 705.034C418.875 703.189 425.857 698.116 425.857 695.81C425.857 693.504 417.13 683.817 417.13 683.817L402.73 682.895L353.422 640.462L344.258 632.16L340.768 614.172L330.295 618.324L325.059 627.087L326.804 634.466Z" fill="#928072" stroke="black" stroke-width="0.189244"/>
<path d="M360.388 652.386L466.451 383.204L508.765 283.473L562 186.615L531.455 292.698L493.97 395.061L387.028 672.147L360.388 652.386Z" fill="#B7B09E" stroke="#5E5D58" stroke-width="0.189244"/>
<path d="M357.761 653.453C358.761 652.447 368.276 646.302 368.276 646.302L382.196 652.032L386.502 668.034L371.225 674.337L365.438 675.527L359.208 670.72L357.761 653.453Z" fill="#796254" stroke="black" stroke-width="0.189244"/>
<path d="M252.163 241.21C246.981 241.807 234.342 235.183 245.813 240.806C247.826 241.539 250.085 241.992 252.163 241.21Z" fill="#C9C298"/>
<g opacity="0.405">
<path opacity="0.405" d="M256.115 227.433C254.352 220.245 241.161 210.025 244.946 206.628C249.955 213.357 248.92 224.657 257.207 228.588" fill="#5B5542"/>
<path opacity="0.405" d="M283.387 212.213C282.128 207.282 279.476 190.229 280.027 194.421C281.501 201.087 284.419 207.392 284.915 214.29" fill="#5B5542"/>
<path opacity="0.405" d="M310.441 208.524C312.084 201.4 308.535 185.46 311.674 183.893C313.11 192.22 313.647 200.881 311.954 209.214" fill="#5B5542"/>
<path opacity="0.405" d="M330.513 208.524C339.864 211.118 339.798 179.627 341.126 198.051C339.871 204.346 334.372 208.024 330.296 212.215" fill="#5B5542"/>
<path opacity="0.405" d="M356.183 235.991C360.53 229.634 371.087 217.348 365.159 211.46C365.41 221.08 354.87 231.147 356.183 235.991Z" fill="#5B5542"/>
</g>
</g>
<defs>
<filter id="filter0_d" x="0.240602" y="30" width="608.102" height="721.519" filterUnits="userSpaceOnUse" color-interpolation-filters="sRGB">
<feFlood flood-opacity="0" result="BackgroundImageFix"/>
<feColorMatrix in="SourceAlpha" type="matrix" values="0 0 0 0 0 0 0 0 0 0 0 0 0 0 0 0 0 0 127 0"/>
<feOffset dy="3.7594"/>
<feGaussianBlur stdDeviation="1.8797"/>
<feColorMatrix type="matrix" values="0 0 0 0 0 0 0 0 0 0 0 0 0 0 0 0 0 0 0.25 0"/>
<feBlend mode="normal" in2="BackgroundImageFix" result="effect1_dropShadow"/>
<feBlend mode="normal" in="SourceGraphic" in2="effect1_dropShadow" result="shape"/>
</filter>
</defs>
</svg>
