<svg width="586" height="739" viewBox="0 0 586 739" fill="none" xmlns="http://www.w3.org/2000/svg">
<g filter="url(#filter0_d)">
<path d="M0 503.662L9.69799 40H560.543L578 503.662L486.839 606.48L289.953 730.642L102.799 606.48L0 503.662Z" fill="#272727"/>
<path d="M55.1015 337.122L51.4624 364.681L63.4195 413.041L108.649 439.04L152.319 404.2L147.64 360.521L94.0924 345.961L69.6581 380.279L68.6191 437.999L138.803 518.597L207.947 556.037L322.321 540.955L402.382 463.479L411.74 383.92L427.336 388.08L421.098 467.639L390.425 519.637L281.25 567.475L397.703 543.036L468.407 440.078L465.288 357.402L396.144 273.164L383.667 282.524V297.603L354.553 311.121L323.36 296.563L367.55 260.682L411.22 263.804L471.006 319.443L489.722 401.6L479.324 460.879L435.654 515.477L497 461.92L522.994 344.401L458.529 238.845L350.394 206.084L281.25 224.283L284.369 239.883L303.085 250.803L296.327 293.963L246.418 277.324L250.577 229.485L335.838 174.884L343.636 127.568L326.48 110.926L341.556 102.088L308.804 94.2871L299.73 98.0353L272.159 95.2785L270.137 100.61L233.192 101.538L233.56 111.279L272.527 113.484L271.057 122.311C271.057 122.311 239.994 136.284 239.81 137.016C239.626 137.755 244.405 149.152 244.405 149.152L255.801 135.548L268.484 143.454L279.88 135.73L296.422 133.528L301.201 124.883L311.494 146.21L301.385 167.351L235.031 211.291L242.78 165.012L204.309 128.613L188.345 124.151L192.021 112.752L153.054 137.199L127.689 149.152L128.425 159.265L106.184 178.565L107.654 185.739L122.91 186.478L126.402 175.81C126.402 175.81 149.929 161.838 149.929 162.574C149.929 163.312 142.945 188.5 142.209 188.683C141.474 188.855 140.188 202.284 140.188 202.284C140.188 202.284 152.87 204.492 152.502 203.573C152.135 202.645 152.87 187.577 152.87 187.577L167.207 185.369C167.207 185.369 162.612 170.11 163.715 169.927C164.818 169.755 176.581 160.551 176.581 160.551L178.419 149.154L207.644 169.191L205.255 255.414L162.244 223.429L112.801 222.69L81.0024 236.661L87.8031 209.636L80.2672 201.732L76.5911 222.136L66.298 241.808L53.4317 270.486L58.3944 280.045L54.7183 293.652L49.9393 297.512L52.5126 316.267L60.4162 308.539L65.1951 287.766L71.2607 279.68L84.127 316.632L98.8316 317.544L90.7441 303.755L91.6636 297.325L98.2806 292.726L94.2369 285.007L93.1334 275.813L105.081 259.083L114.455 248.972L153.605 251.544L209.115 335.745L236.685 361.297L243.486 387.771L232.458 386.672L186.323 348.435L178.419 314.789L176.581 306.697L175.294 306.318L165 307.057L160.773 301.358L144.231 305.773L132.283 309.816L135.408 331.328L151.767 334.819L165.552 350.995L161.876 376.55L177.499 380.41L180.44 365.705L248.816 421.594C248.816 421.594 242.199 432.809 243.485 432.993C244.773 433.165 253.595 433.732 253.595 433.732L285.025 385.564L291.826 388.138L294.951 429.869L302.045 445.274L291.908 454.634L271.632 459.315L236.54 458.01L212.886 441.89L205.087 424.991L193.91 430.192L193.784 433.049L183.387 434.087C183.387 434.087 182.217 448.258 182.866 448C183.516 447.751 178.187 451.767 178.187 451.767L179.097 468.277L188.195 467.492L195.344 465.153L211.46 475.292L217.179 484.652L217.304 495.184C217.304 495.184 231.471 495.83 231.991 495.438C232.511 495.06 235.37 475.156 235.37 475.156L256.165 478.797L306.334 480.488L320.241 475.156L340.351 465.153L340.167 437.024L353.768 425.995L349.908 467.728L329.138 501.738L281.717 522.698L215.547 529.315L153.053 503.206L99.1979 449.894L86.1476 433.9L85.5959 425.076L81.3682 394.557L92.2127 367.898L131.547 378.93L126.217 405.953L105.631 417.168L82.8387 407.059L65.3772 373.049L62.4363 339.037L55.1015 337.122Z" fill="#A61C20"/>
<path d="M69.6969 287.577L66.5722 294.657L63.8151 319.108L51.0408 325.447L52.2354 335.836L61.7013 335.097L63.9071 327.835L67.8588 327.662C67.8588 327.662 73.0973 311.115 73.0973 310.567C73.0973 310.016 70.524 288.227 70.524 288.227L69.6969 287.577Z" fill="#D6D6D6"/>
<path d="M132.098 322.786L116.658 324.808L118.13 318.373L132.461 311.043L132.098 322.786Z" fill="#E8E8E8"/>
<path d="M144.231 305.772L133.478 300.904L134.398 296.033L150.94 295.655L151.981 303.691L144.231 305.772Z" fill="#E8E8E8"/>
<path d="M175.018 303.851L172.812 295.667L160.037 289.506L161.232 297.231L164.003 305.714L175.018 303.851Z" fill="#E8E8E8"/>
<path d="M162.796 378.995L160.82 385.06L156.179 388.093L171.297 390.165L173.411 381.108L162.796 378.995Z" fill="#E9E9E9"/>
<path d="M201.513 424.154C201.059 423.905 188.711 419.861 188.711 419.861L181.888 427.079L192.285 429.417L201.513 424.154Z" fill="#E9E9E9"/>
<path d="M183.387 434.089L171.361 434.812L166.032 443.781L182.683 445.495L183.387 434.089Z" fill="#E9E9E9"/>
<path d="M178.343 454.61L167.135 458.211L167.395 474.592L174.283 468.808L178.915 464.984L178.343 454.61Z" fill="#E9E9E9"/>
<path d="M221.203 496.692L218.409 501.957L213.795 507.415C213.795 507.415 229.261 506.77 229.651 506.44C230.041 506.109 233.096 496.236 233.096 496.236L221.203 496.692Z" fill="#E9E9E9"/>
<path d="M141.337 171.439C140.947 171.439 127.82 180.213 127.82 180.213C127.82 180.213 118.657 191.457 118.397 191.457C118.138 191.457 103.126 191.663 103.126 191.663L101.891 195.951L106.959 198.161L108.324 201.739L111.703 200.764L120.076 197.048L129.768 189.458L141.337 171.439Z" fill="#E9E9E9"/>
<path d="M267.733 116.126C267.407 116.126 233.81 115.969 233.81 115.969L227.442 117.131L219.059 110.83L212.43 114.534L222.178 118.955L224.322 123.244L249.602 124.406L261.364 119.402L267.733 116.126Z" fill="#E9E9E9"/>
<path d="M350.994 108.168L398.409 118.279L406.776 130.134L421.768 160.473L412.355 186.278L384.796 198.713C384.796 198.713 363.197 183.489 362.848 181.746C362.499 180.001 351.343 153.152 351.343 153.152L360.756 137.808L378.537 133.973L420.373 131.184L485.917 191.16L512.065 244.161L516.946 301.351L504.395 281.824L490.101 248.349L464.302 206.502L437.805 173.726L425.603 156.292L395.62 146.525L374.353 152.45V166.403L393.179 173.726L399.106 161.871L398.758 149.317L372.261 126.998L353.783 122.116L350.994 108.168Z" fill="#A61C20"/>
<path d="M486.838 606.48L9.69798 40L0 503.662L102.799 606.48L289.953 730.642L486.838 606.48Z" fill="white" fill-opacity="0.239362"/>
</g>
<mask id="mask0" mask-type="alpha" maskUnits="userSpaceOnUse" x="0" y="0" width="578" height="691">
<path d="M0 463.662L9.69799 0H560.543L578 463.662L486.839 566.48L289.953 690.642L102.799 566.48L0 463.662Z" fill="#272727"/>
</mask>
<g mask="url(#mask0)">
<path d="M266.732 361.942L302.449 434.483L327.324 468.161L333.064 526.454L345.183 580.86L346.458 604.824L338.167 681.899L220.809 620.369L195.296 591.871L208.052 508.966L208.691 468.161L212.517 384.611L266.732 361.942Z" fill="#585A5C" stroke="black" stroke-width="0.189244"/>
<path d="M268.817 362.136L292.269 421.674L326.545 468.389L334.663 429.917L354.958 391.332L268.817 362.136Z" fill="#DCCAC0" stroke="#805224" stroke-width="0.189244"/>
<path d="M336.467 215.582L402.314 234.816V300.766L385.175 370.38L347.291 393.279L267.915 369.464L252.58 339.238L279.641 293.438L294.073 261.379L313.917 218.329L336.467 215.582Z" fill="#DCCAC0" stroke="#805224" stroke-width="0.189244"/>
<path d="M355.387 391.087L325.41 444.197L319.67 472.049L341.355 610.653L381.538 617.13L442.13 551.714L422.996 424.767L387.916 389.145L355.387 391.087Z" fill="#585A5C" stroke="#231F20" stroke-width="0.189244"/>
<path d="M402.313 241.687L415.844 320.917L411.334 353.894L418.55 379.539L399.607 408.851L414.941 445.489L403.216 477.548L432.982 517.851L418.55 556.323L442.002 593.877L405.02 599.373L377.057 562.733L373.45 511.439L360.821 484.876L364.429 441.826L351.801 412.514L352.929 389.616L385.175 366.716L401.863 299.622L402.313 241.687Z" fill="#D0CCC1" stroke="#E6E1D5" stroke-width="0.189244"/>
<path d="M415.843 387.783L471.768 391.448C471.768 391.448 480.788 398.775 478.984 402.439C477.18 406.102 460.041 443.657 460.041 443.657L434.785 466.557L407.725 479.381L390.587 412.514L415.843 387.783Z" fill="#595D5E" stroke="#231F20" stroke-width="0.189244"/>
<path d="M400.576 657.084L352.153 682.213L339.397 678.328L316.436 662.783L307.506 636.228L315.798 618.74L344.499 603.843L381.674 611.759L400.576 657.084Z" fill="#DCCAC0" stroke="#805224" stroke-width="0.189244"/>
<path d="M461.156 441.381L466.568 536.642L474.687 587.937L481 619.079L427.782 652.97L391.702 669.457L389.898 641.979L374.564 610.835L355.622 598.928L391.702 580.609L433.194 524.735L413.35 478.935L461.156 441.381Z" fill="#70767A" stroke="#585A5C" stroke-width="0.189244"/>
<path d="M91.3417 521.066L76 660.298L188.448 665.832L141.082 403.393L91.3417 521.066Z" fill="#231F20" stroke="black" stroke-width="0.189244"/>
<path d="M128.958 405.966L102.176 532.932L101.538 598.995L118.759 652.106L266.732 681.252L296.709 689.671L283.953 651.457V633.97L294.795 615.835L180.627 583.45L196.572 589.279L210.604 520.625L211.242 481.763L147.46 404.041L128.958 405.966Z" fill="#70767A" stroke="#585A5C" stroke-width="0.189244"/>
<path d="M202.06 370.369L117.572 392.35L95.3468 423.311L91.342 521.066L116.716 465.499L130.527 407.826L186.069 451.089L213.924 494.834L228.888 393.246L202.06 370.369Z" fill="#585A5C" stroke="#231F20" stroke-width="0.210575"/>
<path d="M377.608 556.712C377.608 556.712 322.859 543.294 321.583 538.76C320.308 534.227 287.141 516.09 283.952 513.499C280.763 510.909 253.337 494.717 250.148 489.535C246.959 484.354 218.257 451.97 215.706 446.141C213.155 440.311 201.036 431.891 201.036 431.891L180.626 424.118L175.524 413.109L180.626 386.553L164.681 378.78L175.848 371.75L190.194 373.6L197.847 380.077L206.777 388.496L212.517 392.382C212.517 392.382 220.808 393.03 220.171 403.393C219.533 413.756 220.171 426.71 220.171 426.71L245.045 455.857C245.045 455.857 266.093 470.753 269.92 475.287C273.747 479.821 297.984 504.433 301.811 505.08C305.638 505.728 334.977 523.215 334.977 523.215L364.317 536.817L376.435 540.056L380.865 548.06L377.608 556.712Z" fill="#CCCCCC" stroke="#585A5C" stroke-width="0.189244"/>
<path d="M407.951 243.06L407.049 220.16L359.919 183.522L279.641 174.363L224.619 205.506L221.913 235.732L221.01 282.447L225.521 319.085L218.304 350.229L202.068 368.548L218.304 394.195L219.207 429.917L215.598 478.464L230.933 508.692L230.03 538.002L240.855 553.574L238.148 576.473L278.739 604.868L301.289 594.792L291.367 552.658L288.661 521.516L279.641 486.708L290.465 455.566L272.425 416.179L277.837 391.448L255.287 338.322L268.366 323.666L292.269 294.812L313.917 227.488L331.957 219.245L368.939 232.069L407.951 243.06Z" fill="#E6E1D5" stroke="#A28F63" stroke-width="0.189244"/>
<path d="M319.032 213.62L293.52 194.838L269.92 187.714L252.062 189.655L227.825 198.723L230.376 207.791L245.046 207.144L267.369 200.02L279.488 209.734L299.26 213.62L308.189 220.745L319.032 213.62Z" fill="#E6E1D5" stroke="#A28F63" stroke-width="0.189244"/>
<path d="M299.26 689.025L344.545 692.262L351.561 663.117L341.355 626.198L326.686 610.329L305.638 615.187L290.969 620.369L282.039 646.277L289.693 683.194L299.26 689.025Z" fill="#DCCAC0" stroke="#805224" stroke-width="0.189244"/>
<path d="M186.528 400.219L182.383 404.753L177.36 404.511L180.389 410.502L180.788 414.469L182.383 419.083L183.499 418.437L185.253 419.083L186.369 417.788L189.079 416.331L185.891 419.407L186.768 422.888L191.87 425.156L192.747 422.564L193.863 419.812L197.611 415.602L198.726 413.659L200.401 413.903L209.489 416.817L213.077 418.355L214.512 413.579L212.121 413.497L208.852 411.633L208.374 409.854L211.244 409.367L213.397 410.176L213.477 406.777L212.76 401.19L211.085 397.627L210.448 395.279L207.338 392.123L205.584 388.884L203.751 391.232L201.12 391.314L203.432 395.605V398.114L201.757 398.44L195.618 394.877L191.791 392.935C191.791 392.935 190.596 394.311 190.755 394.634C190.914 394.96 193.785 398.926 193.785 398.926L192.429 402.569L189.32 403.54L187.726 405.159L186.528 400.219Z" fill="#CCCCCC" stroke="#585A5C" stroke-width="0.189244"/>
<path d="M248.071 256.8L226.423 262.295L228.227 299.851L242.659 302.598L248.071 256.8Z" fill="#DCCAC0" stroke="#805224" stroke-width="0.189244"/>
</g>
<defs>
<filter id="filter0_d" x="0" y="40" width="585.519" height="698.16" filterUnits="userSpaceOnUse" color-interpolation-filters="sRGB">
<feFlood flood-opacity="0" result="BackgroundImageFix"/>
<feColorMatrix in="SourceAlpha" type="matrix" values="0 0 0 0 0 0 0 0 0 0 0 0 0 0 0 0 0 0 127 0"/>
<feOffset dx="3.7594" dy="3.7594"/>
<feGaussianBlur stdDeviation="1.8797"/>
<feColorMatrix type="matrix" values="0 0 0 0 0 0 0 0 0 0 0 0 0 0 0 0 0 0 0.566 0"/>
<feBlend mode="normal" in2="BackgroundImageFix" result="effect1_dropShadow"/>
<feBlend mode="normal" in="SourceGraphic" in2="effect1_dropShadow" result="shape"/>
</filter>
</defs>
</svg>
