<svg width="342" height="348" viewBox="0 0 342 348" fill="none" xmlns="http://www.w3.org/2000/svg">
<mask id="path-1-inside-1" fill="white">
<path fill-rule="evenodd" clip-rule="evenodd" d="M301.75 6L342 43.2299V311.465L305.426 348H42.0691L0 309.088V48.9924L43.0384 6H301.75Z"/>
</mask>
<path fill-rule="evenodd" clip-rule="evenodd" d="M301.75 6L342 43.2299V311.465L305.426 348H42.0691L0 309.088V48.9924L43.0384 6H301.75Z" fill="white"/>
<path d="M301.75 6L304.466 3.06355L303.316 2H301.75V6ZM342 43.2299H346V41.481L344.716 40.2935L342 43.2299ZM342 311.465L344.827 314.295L346 313.124V311.465H342ZM305.426 348V352H307.082L308.253 350.83L305.426 348ZM42.0691 348L39.353 350.936L40.5029 352H42.0691V348ZM0 309.088H-4V310.837L-2.71611 312.024L0 309.088ZM0 48.9924L-2.82691 46.1624L-4 47.3342V48.9924H0ZM43.0384 6V2H41.3828L40.2115 3.17006L43.0384 6ZM299.034 8.93645L339.284 46.1664L344.716 40.2935L304.466 3.06355L299.034 8.93645ZM338 43.2299V311.465H346V43.2299H338ZM339.173 308.636L302.599 345.17L308.253 350.83L344.827 314.295L339.173 308.636ZM305.426 344H42.0691V352H305.426V344ZM44.7852 345.064L2.71611 306.151L-2.71611 312.024L39.353 350.936L44.7852 345.064ZM4 309.088V48.9924H-4V309.088H4ZM2.82691 51.8223L45.8653 8.82994L40.2115 3.17006L-2.82691 46.1624L2.82691 51.8223ZM43.0384 10H301.75V2H43.0384V10Z" fill="black" mask="url(#path-1-inside-1)"/>
<circle cx="262.5" cy="266.5" r="35.5" fill="black"/>
<circle cx="86.5" cy="94.5" r="35.5" fill="black"/>
<circle cx="261.297" cy="93.2857" r="35.5" transform="rotate(-89.479 261.297 93.2857)" fill="black"/>
<circle cx="87.7034" cy="267.714" r="35.5" transform="rotate(-89.479 87.7034 267.714)" fill="black"/>
<path d="M318.5 0L28 330.5L4 314V27L28 0H318.5Z" fill="white" fill-opacity="0.604"/>
</svg>
