<svg width="342" height="342" viewBox="0 0 342 342" fill="none" xmlns="http://www.w3.org/2000/svg">
<mask id="path-1-inside-1" fill="white">
<path fill-rule="evenodd" clip-rule="evenodd" d="M301.75 0L342 37.2299V305.465L305.426 342H42.0691L0 303.088V42.9924L43.0384 0H301.75Z"/>
</mask>
<path fill-rule="evenodd" clip-rule="evenodd" d="M301.75 0L342 37.2299V305.465L305.426 342H42.0691L0 303.088V42.9924L43.0384 0H301.75Z" fill="white"/>
<path d="M301.75 0L304.466 -2.93645L303.316 -4H301.75V0ZM342 37.2299H346V35.481L344.716 34.2935L342 37.2299ZM342 305.465L344.827 308.295L346 307.124V305.465H342ZM305.426 342V346H307.082L308.253 344.83L305.426 342ZM42.0691 342L39.353 344.936L40.5029 346H42.0691V342ZM0 303.088H-4V304.837L-2.71611 306.024L0 303.088ZM0 42.9924L-2.82691 40.1624L-4 41.3342V42.9924H0ZM43.0384 0V-4H41.3828L40.2115 -2.82994L43.0384 0ZM299.034 2.93645L339.284 40.1664L344.716 34.2935L304.466 -2.93645L299.034 2.93645ZM338 37.2299V305.465H346V37.2299H338ZM339.173 302.636L302.599 339.17L308.253 344.83L344.827 308.295L339.173 302.636ZM305.426 338H42.0691V346H305.426V338ZM44.7852 339.064L2.71611 300.151L-2.71611 306.024L39.353 344.936L44.7852 339.064ZM4 303.088V42.9924H-4V303.088H4ZM2.82691 45.8223L45.8653 2.82994L40.2115 -2.82994L-2.82691 40.1624L2.82691 45.8223ZM43.0384 4H301.75V-4H43.0384V4Z" fill="black" mask="url(#path-1-inside-1)"/>
<circle cx="262.5" cy="174.5" r="35.5" fill="black"/>
<circle cx="262.5" cy="260.5" r="35.5" fill="black"/>
<circle cx="86.5" cy="88.5" r="35.5" fill="black"/>
<circle cx="87.8214" cy="170.821" r="35.5" transform="rotate(-89.479 87.8214 170.821)" fill="black"/>
<circle cx="261.297" cy="87.2857" r="35.5" transform="rotate(-89.479 261.297 87.2857)" fill="black"/>
<circle cx="87.7034" cy="261.714" r="35.5" transform="rotate(-89.479 87.7034 261.714)" fill="black"/>
<path d="M324.5 6L34 336.5L10 320V33L34 6H324.5Z" fill="white" fill-opacity="0.604"/>
</svg>
