<svg width="449" height="455" viewBox="0 0 449 455" fill="none" xmlns="http://www.w3.org/2000/svg">
<path d="M224.427 454.238L112.214 423.809L30.0676 340.679L0 227.119L30.0676 113.559L112.214 30.4284L224.427 0L336.641 30.4284L418.787 113.559L448.854 227.119L418.787 340.679L336.641 423.809L224.427 454.238Z" fill="#1C1C24"/>
<path d="M224.381 447.158L114.361 417.678L33.8213 337.139L4.34155 227.119L33.8213 117.099L114.361 36.559L224.381 7.0791L334.401 36.559L414.941 117.099L444.421 227.119L414.941 337.139L334.401 417.678L224.381 447.158Z" fill="#FFE680"/>
<path d="M228.253 405.75L134.578 383.651L65.2708 320.379L38.9038 232.886L62.5415 144.616L129.85 79.2226L222.795 54.2258L316.47 76.3246L385.777 139.597L412.144 227.09L388.507 315.359L321.198 380.753L228.253 405.75Z" fill="#1C1C24"/>
<path d="M178.733 346.825L133.169 300.509L143.158 260.735L158.541 212.55L157.828 172.173L171.069 204.409L181.994 217.68L188.77 197.761L169.57 164.443L169.57 144.483L188.77 115.051L204.927 88.2351L203.626 126.668L210.434 148.908L225.365 162.268L230.965 187.908L243.907 158.377L239.57 137.071L255.407 159.362L258.447 196.926L254.082 218.782L272.75 222.016L283.9 203.208L289.161 232.021L273.957 267.927L257.39 293.958L266.434 312.805L288.01 301.337L292.509 287.003L298.067 310.267L276.564 348.264L226.701 349.937L204.747 340.03L176.323 344.888L178.733 346.825Z" fill="#FFD42A" stroke="#FFEEAA" stroke-width="0.0768136"/>
<path d="M289.277 277.052L307.647 270.848L316.181 262.577L313.07 244.992L312.821 215.036C312.821 215.036 308.045 229.961 307.785 231.086C307.524 232.21 299.258 255.596 299.258 255.596L297.427 262.908L289.277 277.052Z" fill="#FFD42A" stroke="#FFEEAA" stroke-width="0.0768136"/>
<path d="M281.078 177.517L272.999 163.94L274.81 155.508L262.933 133.038L285.937 151.391L285.703 169.876L281.078 177.517Z" fill="#FFD42A" stroke="#FFEEAA" stroke-width="0.0768136"/>
</svg>
