<svg width="838" height="354" viewBox="0 0 838 354" fill="none" xmlns="http://www.w3.org/2000/svg">
<path d="M837.29 181.649L370.162 200.238L395.488 186.621L389.806 168.864L395.588 157.877L423.9 156.079L833.739 171.705L838 176.677L837.29 181.649Z" fill="#E4B911"/>
<path d="M320.09 277.739C319.59 281.254 273.38 327.462 273.38 327.462L215.621 351.067L151.835 353.076C151.835 353.076 110.148 340.52 107.134 339.515C104.121 338.511 66.4519 312.394 66.4519 312.394L36.317 286.278L21.2496 258.653L9.19534 226.007L0.154785 169.254L9.69736 120.535L10.4206 118.874L28.281 77.8438L64.9453 37.6641L108.139 15.0629L145.808 2.50668L201.558 0.497559L250.343 14.3219L281.416 37.6641L311.552 62.2745L328.628 81.36L348.446 113.727L332.646 111.495L318.583 107.477L270.869 108.482L238.222 78.8484L209.092 66.7947L169.414 60.7674L133.251 68.3002L114.668 78.3469L88.0492 97.4319L70.4701 118.023L60.425 146.15L56.9093 178.796L61.9316 212.446L80.5152 243.586L103.619 269.201L134.256 285.775L164.893 293.308L206.079 291.803L237.72 276.734L323.103 277.239L320.09 277.739Z" fill="#FFCC00"/>
<path d="M85.0342 246.096L97.5904 247.604L95.0793 259.657L106.128 271.209L120.192 269.2L129.734 252.626L114.667 244.59L112.156 228.518L126.219 203.908L135.762 192.859L156.354 198.885L169.915 184.823L169.41 165.737L148.818 158.204L135.76 164.23L116.674 142.633L110.647 136.104L108.135 117.018L118.181 111.494L121.696 93.4125L111.651 77.3401L85.534 100.946L92.0634 114.005L64.9418 122.042L56.9058 166.238L57.9103 207.925L68.96 231.03L82.0183 245.595L85.0342 246.096Z" fill="#E4B911"/>
<path d="M127.707 254.496L173.765 270.589L240.91 276.693L318.598 278.358L336.355 266.705L350.783 256.161L349.674 239.514L360.217 238.404L366.366 228.567L366.313 216.208L356.879 206.774L348.555 204.554C348.555 204.554 350.497 200.808 352.717 200.808C354.936 200.808 381.155 200.497 381.155 200.497L383.086 198.815L393.919 191.101L396.139 181.529L395.028 166.63L396.383 166.114C397.041 165.663 401.74 160.249 403.184 161.59L427.501 158.806L436.343 157.143L443.431 150.922L445.111 141.295L436.92 126.423L406.267 120.762L372.971 117.434L360.975 115.128L350.775 114.104L367.896 106.221L380.74 94.1265L376.856 84.1384L348 86.3585L331.352 85.8033V89.6868L348.444 113.726L332.644 111.494L318.035 105.226L270.867 109.109L250.89 88.0234L231.468 75.8152L227.516 77.7373L208.161 85.8033L108.687 121.215L110.646 136.104L131.583 162.936L148.818 158.204L169.41 165.737L169.915 184.823L156.354 198.885L135.762 192.859L126.219 203.909L110.496 227.861L111.606 240.623L127.707 254.496Z" fill="#FFDD55" stroke="#E4B911" stroke-width="1.55828"/>
<g opacity="0.465">
<path d="M349.885 202.395C349.885 202.395 298.618 192.916 280.49 190.077C280.49 190.077 276.677 189.642 276.888 189.712L271.587 191.71L278.74 195.261L349.145 203.58L349.285 203.634" fill="#2D2813"/>
<path d="M349.885 202.395C349.885 202.395 298.618 192.916 280.49 190.077C280.49 190.077 276.677 189.642 276.888 189.712L271.587 191.71L278.74 195.261L349.145 203.58L349.285 203.634" stroke="black" stroke-width="1.55828"/>
</g>
<g opacity="0.465">
<path d="M349.674 239.513L258.727 225.277L243.621 221.745C243.621 221.745 265.791 230.574 267.36 230.574C268.93 230.574 349.988 244.213 349.988 244.213L349.676 239.513" fill="#2D2813"/>
<path d="M349.674 239.513L258.727 225.277L243.621 221.745C243.621 221.745 265.791 230.574 267.36 230.574C268.93 230.574 349.988 244.213 349.988 244.213L349.676 239.513" stroke="black" stroke-width="1.55828"/>
</g>
<g opacity="0.465">
<path d="M398.087 164.119C397.663 164.055 397.097 163.974 396.429 163.888C391.427 163.239 335.065 154.847 334.46 154.847C333.675 154.847 297.12 148.2 295.943 148.004C294.766 147.805 268.155 145.902 268.155 145.902C268.155 145.902 285.803 153.081 286.785 153.081C287.766 153.081 333.487 159.627 333.487 159.627L395.053 166.507L396.608 165.918" fill="#2D2813"/>
<path d="M398.087 164.119C397.663 164.055 397.097 163.974 396.429 163.888C391.427 163.239 335.065 154.847 334.46 154.847C333.675 154.847 297.12 148.2 295.943 148.004C294.766 147.805 268.155 145.902 268.155 145.902C268.155 145.902 285.803 153.081 286.785 153.081C287.766 153.081 333.487 159.627 333.487 159.627L395.053 166.507L396.608 165.918" stroke="black" stroke-width="1.55828"/>
</g>
<path d="M419.214 131.891C419.214 131.891 419.803 147.586 420.784 147.979C421.765 148.371 428.043 151.117 429.22 150.529C430.397 149.94 435.695 148.683 435.695 148.683L437.264 138.168L436.283 132.087L429.353 128.603L419.214 131.891Z" fill="#FFDD55" stroke="#E4B911" stroke-width="1.55828"/>
</svg>
