<svg width="838" height="353" viewBox="0 0 838 353" fill="none" xmlns="http://www.w3.org/2000/svg">
<path d="M0.71034 181.151L467.84 199.741L442.514 186.124L448.196 168.366L442.414 157.379L414.102 155.581L4.2615 171.208L0 176.179L0.71034 181.151Z" fill="#E4B911"/>
<path d="M517.914 277.244C518.413 280.76 564.623 326.967 564.623 326.967L622.383 350.574L686.169 352.582C686.169 352.582 727.856 340.026 730.87 339.021C733.883 338.017 771.552 311.899 771.552 311.899L801.687 285.783L816.755 258.158L828.809 225.512L837.85 168.758L828.307 120.039L827.584 118.378L809.723 77.3471L773.059 37.167L729.865 14.5655L692.196 2.00914L636.446 0L587.66 13.8245L556.587 37.167L526.452 61.7776L509.375 80.8633L489.558 113.23L505.357 110.998L519.42 106.981L567.134 107.985L599.781 78.3516L628.912 66.2979L668.59 60.2705L704.753 67.8034L723.336 77.8502L749.955 96.9354L767.534 117.527L777.579 145.654L781.095 178.3L776.073 211.951L757.489 243.091L734.385 268.706L703.748 285.28L673.11 292.814L631.925 291.308L600.283 276.24L514.9 276.744L517.914 277.244Z" fill="#FFCC00"/>
<path d="M752.968 245.602L740.412 247.109L742.923 259.162L731.874 270.715L717.811 268.706L708.268 252.132L723.336 244.096L725.847 228.023L711.784 203.413L702.241 192.363L681.648 198.39L668.087 184.327L668.592 165.241L689.184 157.708L702.243 163.734L721.329 142.137L727.356 135.608L729.867 116.522L719.822 110.998L716.306 92.9161L726.351 76.8435L752.469 100.45L745.939 113.509L773.061 121.546L781.097 165.743L780.092 207.43L769.043 230.535L755.984 245.1L752.968 245.602Z" fill="#E4B911"/>
<path d="M710.296 254.002L664.237 270.094L597.092 276.199L519.404 277.863L501.646 266.211L487.218 255.667L488.328 239.019L477.785 237.909L471.635 228.072L471.689 215.713L481.123 206.278L489.446 204.059C489.446 204.059 487.504 200.313 485.285 200.313C483.065 200.313 456.847 200.002 456.847 200.002L454.916 198.32L444.082 190.605L441.862 181.033L442.973 166.134L441.618 165.619C440.96 165.168 436.262 159.754 434.818 161.094L410.5 158.311L401.658 156.647L394.571 150.427L392.891 140.799L401.081 125.927L431.735 120.266L465.03 116.938L477.026 114.632L487.227 113.608L470.106 105.725L457.261 93.6301L461.146 83.6419L490.002 85.862L506.649 85.3069V89.1904L489.558 113.23L505.357 110.998L519.967 104.729L567.135 108.613L587.112 87.527L606.534 75.3186L610.486 77.2408L629.841 85.3069L729.315 120.719L727.356 135.608L706.42 162.44L689.185 157.708L668.592 165.242L668.088 184.328L681.648 198.39L702.241 192.364L711.784 203.413L727.506 227.366L726.397 240.128L710.296 254.002Z" fill="#FFDD55" stroke="#E4B911" stroke-width="1.42059"/>
<g opacity="0.465">
<path d="M488.118 201.899C488.118 201.899 539.385 192.421 557.514 189.581C557.514 189.581 561.326 189.147 561.115 189.216L566.416 191.214L559.263 194.765L488.858 203.085L488.718 203.139" fill="#2D2813"/>
<path d="M488.118 201.899C488.118 201.899 539.385 192.421 557.514 189.581C557.514 189.581 561.326 189.147 561.115 189.216L566.416 191.214L559.263 194.765L488.858 203.085L488.718 203.139" stroke="black" stroke-width="1.42059"/>
</g>
<g opacity="0.465">
<path d="M488.327 239.018L579.274 224.782L594.381 221.25C594.381 221.25 572.211 230.079 570.642 230.079C569.072 230.079 488.014 243.719 488.014 243.719L488.325 239.018" fill="#2D2813"/>
<path d="M488.327 239.018L579.274 224.782L594.381 221.25C594.381 221.25 572.211 230.079 570.642 230.079C569.072 230.079 488.014 243.719 488.014 243.719L488.325 239.018" stroke="black" stroke-width="1.42059"/>
</g>
<g opacity="0.465">
<path d="M439.917 163.621C440.341 163.557 440.907 163.476 441.575 163.39C446.576 162.741 502.939 154.349 503.544 154.349C504.329 154.349 540.884 147.702 542.062 147.506C543.238 147.307 569.85 145.404 569.85 145.404C569.85 145.404 552.201 152.583 551.219 152.583C550.238 152.583 504.517 159.129 504.517 159.129L442.951 166.009L441.396 165.42" fill="#2D2813"/>
<path d="M439.917 163.621C440.341 163.557 440.907 163.476 441.575 163.39C446.576 162.741 502.939 154.349 503.544 154.349C504.329 154.349 540.884 147.702 542.062 147.506C543.238 147.307 569.85 145.404 569.85 145.404C569.85 145.404 552.201 152.583 551.219 152.583C550.238 152.583 504.517 159.129 504.517 159.129L442.951 166.009L441.396 165.42" stroke="black" stroke-width="1.42059"/>
</g>
<path d="M418.788 131.395C418.788 131.395 418.2 147.09 417.219 147.483C416.238 147.875 409.96 150.621 408.783 150.033C407.605 149.445 402.307 148.187 402.307 148.187L400.739 137.672L401.72 131.591L408.65 128.106L418.788 131.395Z" fill="#FFDD55" stroke="#E4B911" stroke-width="1.42059"/>
</svg>
