<svg width="591" height="742" viewBox="0 0 591 742" fill="none" xmlns="http://www.w3.org/2000/svg">
<g filter="url(#filter0_d)">
<path d="M4 497.346L13.779 29.9109H569.225L586.827 497.346L494.904 601.003L296.375 726.174L107.657 601.003L4 497.346Z" fill="#D4CDB1"/>
<path d="M584.871 434.761H4V499.302L103.745 597.092L297.369 726.175L492.949 601.004L584.871 499.302V434.761Z" fill="#7B906F"/>
<path d="M229.56 513.732C226.895 518.681 105.976 379.359 45.8497 309.08L257.641 179.625L239.555 162.016L309.993 167.251L349.02 162.016L439.448 179.625L460.865 205.326L546.533 224.839L539.394 253.395C523.212 269.577 490.468 303.368 488.945 309.08C487.422 314.791 482.916 296.229 480.854 286.235L460.865 309.08L452.774 279.096L422.79 286.235L413.747 271.005H394.234V291.47H413.747L422.79 309.08L439.448 301.941L452.774 322.406H480.854L439.448 384.277L433.261 363.812L422.79 356.157L407.084 359.529V344.675L376.624 322.406C328.714 384.119 232.226 508.782 229.56 513.732Z" fill="#464646"/>
<path d="M267.79 173.937L331.133 183.252L353.489 197.69L307.381 204.677L267.79 173.937Z" fill="#757575"/>
<path d="M379.957 199.139C401.406 200.588 444.571 203.485 445.636 203.485L442.086 204.789L442.973 212.61L432.766 219.129L379.957 199.139Z" fill="#757575"/>
<path d="M145.32 304.797L45.8498 309.556L120.096 263.866L145.32 304.797Z" fill="#757575"/>
<path d="M204.812 263.389H121.523L181.491 226.266L204.812 263.389Z" fill="#757575"/>
<path d="M267.161 220.557L181.969 226.268L257.642 179.626L267.161 220.557Z" fill="#757575"/>
<path d="M250.502 410.93L229.561 514.208L285.721 439.962L250.502 410.93Z" fill="#757575"/>
<path d="M299.999 364.763L284.769 439.009L329.031 383.801L299.999 364.763Z" fill="#757575"/>
<path d="M336.647 316.218L329.508 383.325L375.198 322.881L336.647 316.218Z" fill="#757575"/>
<path d="M498.816 602.959L15.7348 26L4 503.214L101.79 602.959L295.413 733.998L498.816 602.959Z" fill="white" fill-opacity="0.352"/>
</g>
<mask id="mask0" mask-type="alpha" maskUnits="userSpaceOnUse" x="4" y="0" width="583" height="697">
<path d="M4 467.435L13.779 0H569.225L586.827 467.435L494.904 571.092L296.375 696.263L107.657 571.092L4 467.435Z" fill="#D4CDB1"/>
</mask>
<g mask="url(#mask0)">
<path d="M427.881 349.756H180.552V675.142H427.881V349.756Z" fill="#1A1A1A" stroke="#999999" stroke-width="0.254667"/>
<path d="M232.7 410.831L410.813 485.719L419.337 528.696L222.757 442.063L232.7 410.831Z" fill="#333333" stroke="#4D4D4D" stroke-width="0.264583"/>
<path d="M379.173 411.097L201.06 485.988L192.536 528.961L389.116 442.329L379.173 411.097Z" fill="#333333" stroke="#4D4D4D" stroke-width="0.264583"/>
<path d="M188.585 587.961L273.746 539.856L276.354 488.566L207.736 492.327L196.631 526.156L188.758 586.64" fill="black"/>
<path d="M188.585 587.961L273.746 539.856L276.354 488.566L207.736 492.327L196.631 526.156L188.758 586.64" stroke="#333333" stroke-width="0.27746"/>
<path d="M276.354 488.566L284.718 482.09L316.812 480.416L327.533 515.32L321.79 546.569L287.146 545.417L273.746 539.856L276.354 488.566Z" fill="black" stroke="#333333" stroke-width="0.27746"/>
<path d="M298.245 508.219L298.86 462.35L295.761 456.461L300.554 442.138L312.021 441.824L323.179 447.405L324.897 453.669L325.943 454.193L327.492 466.281L323.153 465.66L321.605 469.07L319.009 469.474L319.632 511.623L311.263 515.34L304.755 516.272L297.936 512.551" fill="#808080"/>
<path d="M298.245 508.219L298.86 462.35L295.761 456.461L300.554 442.138L312.021 441.824L323.179 447.405L324.897 453.669L325.943 454.193L327.492 466.281L323.153 465.66L321.605 469.07L319.009 469.474L319.632 511.623L311.263 515.34L304.755 516.272L297.936 512.551" stroke="#333333" stroke-width="0.264583"/>
<path d="M289.619 550.205H325.471L322.86 696.102H292.23L289.619 550.205Z" fill="#808080" stroke="#999999" stroke-width="0.337892"/>
<path d="M252.565 546.701L272.455 542.848L350.776 542.76L363.573 547.2L360.255 564.373L354.592 562.853L353.126 560.226L347.438 550.04L267.216 549.869L263.398 562.794L256.574 563.969L252.565 546.701Z" fill="#666666" stroke="#999999" stroke-width="0.307161"/>
<path d="M88.27 466.499L74.1968 536.473L71.2333 691.251L180.856 680.648L194.189 568.275L222.336 487.704L277.147 392.292C214.187 380.02 151.229 347.396 88.27 466.499Z" fill="#242424" stroke="#4D4D4D" stroke-width="0.264583"/>
<path d="M84.3081 690.558C84.3081 686.249 87.5809 567.82 87.5809 567.82L103.687 473.16L119.399 467.162L101.815 570.233L97.9251 685.306L84.3081 690.558Z" fill="#1A1A1A"/>
<path d="M146.216 437.053C146.216 438.594 125.245 568.036 125.245 568.036L121.6 687.431L140.301 685.04L140.492 568.833L159.833 417.563L146.216 437.053Z" fill="#1A1A1A"/>
<path d="M194.337 425.094L161.314 563.044L160.657 683.331L168.146 682.224L171.547 562.369L208.475 423.6L194.337 425.094Z" fill="#1A1A1A"/>
<path d="M269.841 366.59C273.567 368.342 301.18 399.462 301.18 399.462L305.737 379.962L270.937 358.922L269.841 366.59Z" fill="#4D4D4D" stroke="#333333" stroke-width="0.264583"/>
<path d="M420.583 578.184L335.422 530.079L332.814 478.789L401.432 482.549L412.537 516.379L420.411 576.862" fill="black"/>
<path d="M420.583 578.184L335.422 530.079L332.814 478.789L401.432 482.549L412.537 516.379L420.411 576.862" stroke="#333333" stroke-width="0.27746"/>
<path d="M332.814 478.789L324.45 472.312L292.357 470.639L282.179 502.637L287.378 536.791L322.022 535.64L335.422 530.079L332.814 478.789Z" fill="black" stroke="#333333" stroke-width="0.27746"/>
<path d="M265.977 303.084L108.797 325.163L52 419.37L111.438 464.999L189.369 413.481L195.972 428.199L227.672 431.144L289.752 381.098L300.318 344.297L265.977 303.084Z" fill="#1A1A1A" stroke="#4D4D4D" stroke-width="0.297593"/>
<path d="M519.526 466.961L533.894 536.927L536.92 691.688L425 681.086L411.387 568.726L382.651 488.164L326.692 392.763C390.97 380.493 455.248 347.872 519.526 466.961Z" fill="#333333" stroke="#4D4D4D" stroke-width="0.264583"/>
<path d="M523.571 690.995C523.571 686.687 520.23 568.271 520.23 568.271L503.786 473.622L487.745 467.624L505.698 570.684L509.669 685.744L523.571 690.995Z" fill="#1A1A1A"/>
<path d="M460.366 437.519C460.366 439.06 481.776 568.487 481.776 568.487L485.498 687.869L466.405 685.478L466.21 569.284L446.463 418.031L460.366 437.519Z" fill="#1A1A1A"/>
<path d="M411.237 425.562L444.951 563.496L445.622 683.769L437.976 682.662L434.504 562.821L396.802 424.068L411.237 425.562Z" fill="#1A1A1A"/>
<path d="M353.024 308.287L510.203 330.369L567 424.572L507.562 470.205L429.632 418.684L423.028 433.405L391.327 436.346L329.248 386.303L318.682 349.503L353.024 308.287Z" fill="#1A1A1A" stroke="#4D4D4D" stroke-width="0.297593"/>
<path d="M321.371 378.736L323.285 397.498L350.898 386.98L368.43 338.985L360.76 338.108L336.872 376.458L321.371 378.736Z" fill="#4D4D4D" stroke="#333333" stroke-width="0.264583"/>
<path d="M252.859 328.418L291.724 376.367L337.012 377.509L375.582 313.519L377.335 193.425L302.825 184.657L241.463 223.227L236.204 282.837L252.859 328.418Z" fill="#FFCCAA" stroke="black" stroke-width="0.264583"/>
<path d="M318.299 157.874L247.295 173.653L183.304 263.065L205.218 318.291L178.044 359.491L203.465 377.901L263.073 376.147L254.526 317.634L240.501 298.351L255.403 288.706L247.295 263.942L264.827 228.002L277.099 200.828L314.792 208.719L324.435 197.32L350.733 199.951L366.511 242.905L363.005 293.747L371.771 313.91L385.797 341.958L384.044 368.256L418.231 320.921L425.243 299.007L448.035 292.87L418.231 253.423L412.971 225.372L412.094 197.32L391.933 185.925L377.907 157L338.46 166.642L318.299 157.874Z" fill="#333333" stroke="#4D4D4D" stroke-width="0.264583"/>
<path d="M261.836 340.389L291.895 365.781L312.894 357.152L331.24 363.412L360.76 338.108L336.872 376.458L319.328 378.894L289.308 377.018L261.836 340.389Z" fill="#333333" stroke="#808080" stroke-width="0.264583"/>
<path d="M306.204 324.658L284.305 329.104L280.517 339.38L282.127 342.395L300.883 336.322L307.934 332.355L311.69 332.469L311.849 332.462L312.008 332.469L315.764 332.355L322.814 336.322L342.656 342.395L344.265 339.38L340.478 329.104L317.493 324.658L311.85 324.911L306.204 324.658Z" fill="#333333"/>
</g>
<defs>
<filter id="filter0_d" x="0.240602" y="26" width="590.345" height="715.516" filterUnits="userSpaceOnUse" color-interpolation-filters="sRGB">
<feFlood flood-opacity="0" result="BackgroundImageFix"/>
<feColorMatrix in="SourceAlpha" type="matrix" values="0 0 0 0 0 0 0 0 0 0 0 0 0 0 0 0 0 0 127 0"/>
<feOffset dy="3.7594"/>
<feGaussianBlur stdDeviation="1.8797"/>
<feColorMatrix type="matrix" values="0 0 0 0 0 0 0 0 0 0 0 0 0 0 0 0 0 0 0.25 0"/>
<feBlend mode="normal" in2="BackgroundImageFix" result="effect1_dropShadow"/>
<feBlend mode="normal" in="SourceGraphic" in2="effect1_dropShadow" result="shape"/>
</filter>
</defs>
</svg>
