<svg width="142" height="179" viewBox="0 0 142 179" fill="none" xmlns="http://www.w3.org/2000/svg">
<g filter="url(#filter0_d)">
<path d="M0.403076 120.925L2.77033 7.77039H137.231L141.492 120.925L119.239 146.018L71.1801 176.319L25.496 146.018L0.403076 120.925Z" fill="#D4CDB1"/>
<path d="M141.018 105.775H0.403076V121.399L24.5491 145.072L71.4208 176.319L118.766 146.019L141.018 121.399V105.775Z" fill="#7B906F"/>
<path d="M55.0058 124.892C54.3606 126.09 25.0889 92.364 10.5338 75.3509L61.8033 44.0131L57.4252 39.7502L74.4767 41.0176L83.9241 39.7502L105.814 44.0131L110.999 50.2346L131.737 54.9583L130.009 61.871C126.092 65.7883 118.165 73.9684 117.797 75.3509C117.428 76.7335 116.337 72.2402 115.838 69.8207L110.999 75.3509L109.04 68.0925L101.782 69.8207L99.593 66.1339H94.8693V71.088H99.593L101.782 75.3509L105.814 73.6227L109.04 78.5769H115.838L105.814 93.5545L104.317 88.6003L101.782 86.7473L97.98 87.5634V83.9676L90.6064 78.5769C79.0084 93.5161 55.651 123.694 55.0058 124.892Z" fill="#464646"/>
<path d="M64.2603 42.636L79.5941 44.8909L85.0059 48.3861L73.8444 50.0774L64.2603 42.636Z" fill="#757575"/>
<path d="M91.4133 48.7369C96.6057 49.0876 107.055 49.7889 107.313 49.7889L106.453 50.1045L106.668 51.998L104.197 53.5759L91.4133 48.7369Z" fill="#757575"/>
<path d="M34.6132 74.3139L10.5338 75.466L28.5069 64.4056L34.6132 74.3139Z" fill="#757575"/>
<path d="M49.015 64.29H28.8528L43.3696 55.3035L49.015 64.29Z" fill="#757575"/>
<path d="M64.108 53.9217L43.485 55.3043L61.8038 44.0134L64.108 53.9217Z" fill="#757575"/>
<path d="M60.0755 100.006L55.0062 125.008L68.6012 107.034L60.0755 100.006Z" fill="#757575"/>
<path d="M72.0574 88.8304L68.3706 106.804L79.0854 93.4389L72.0574 88.8304Z" fill="#757575"/>
<path d="M80.9289 77.0787L79.2007 93.3237L90.2611 78.6917L80.9289 77.0787Z" fill="#757575"/>
<path d="M120.186 146.492L3.24378 6.82373L0.403076 122.346L24.0756 146.492L70.9473 178.213L120.186 146.492Z" fill="white" fill-opacity="0.352"/>
</g>
<mask id="mask0" mask-type="alpha" maskUnits="userSpaceOnUse" x="0" y="0" width="142" height="170">
<path d="M0.403076 113.965L2.77033 0.810181H137.231L141.492 113.965L119.239 139.058L71.1801 169.359L25.496 139.058L0.403076 113.965Z" fill="#D4CDB1"/>
</mask>
<g mask="url(#mask0)">
<path d="M103.015 85.4779H43.1421V164.246H103.015V85.4779Z" fill="#1A1A1A" stroke="#999999" stroke-width="0.0185576"/>
<path d="M55.766 100.263L98.8829 118.391L100.946 128.795L53.3589 107.823L55.766 100.263Z" fill="#333333" stroke="#4D4D4D" stroke-width="0.0192802"/>
<path d="M91.2236 100.327L48.1067 118.457L46.0433 128.859L93.6306 107.888L91.2236 100.327Z" fill="#333333" stroke="#4D4D4D" stroke-width="0.0192802"/>
<path d="M45.0867 143.141L65.7023 131.496L66.3336 119.08L49.7229 119.991L47.0345 128.18L45.1285 142.822" fill="black"/>
<path d="M45.0867 143.141L65.7023 131.496L66.3336 119.08L49.7229 119.991L47.0345 128.18L45.1285 142.822" stroke="#333333" stroke-width="0.0202185"/>
<path d="M66.3337 119.08L68.3583 117.512L76.1274 117.107L78.7229 125.557L77.3327 133.121L68.9461 132.842L65.7023 131.496L66.3337 119.08Z" fill="black" stroke="#333333" stroke-width="0.0202185"/>
<path d="M71.6327 123.838L71.7818 112.734L71.0316 111.309L72.1918 107.841L74.9677 107.765L77.6687 109.116L78.0848 110.633L78.338 110.76L78.7129 113.686L77.6626 113.535L77.2876 114.361L76.6593 114.459L76.8101 124.662L74.7843 125.562L73.2088 125.787L71.5581 124.887" fill="#808080"/>
<path d="M71.6327 123.838L71.7818 112.734L71.0316 111.309L72.1918 107.841L74.9677 107.765L77.6687 109.116L78.0848 110.633L78.338 110.76L78.7129 113.686L77.6626 113.535L77.2876 114.361L76.6593 114.459L76.8101 124.662L74.7843 125.562L73.2088 125.787L71.5581 124.887" stroke="#333333" stroke-width="0.0192802"/>
<path d="M69.5448 134.002H78.2236L77.5915 169.32H70.1767L69.5448 134.002Z" fill="#808080" stroke="#999999" stroke-width="0.0246221"/>
<path d="M60.5748 133.154L65.3897 132.221L84.3493 132.2L87.4471 133.274L86.6439 137.432L85.2731 137.063L84.9181 136.427L83.5412 133.962L64.1214 133.92L63.197 137.049L61.5452 137.334L60.5748 133.154Z" fill="#666666" stroke="#999999" stroke-width="0.0223828"/>
<path d="M20.803 113.739L17.3962 130.678L16.6788 168.146L43.216 165.579L46.4435 138.376L53.2571 118.872L66.5256 95.7748C51.2846 92.8042 36.044 84.9067 20.803 113.739V113.739Z" fill="#242424" stroke="#4D4D4D" stroke-width="0.0192802"/>
<path d="M19.8436 167.978C19.8436 166.935 20.6359 138.266 20.6359 138.266L24.5347 115.351L28.3384 113.899L24.0815 138.85L23.14 166.707L19.8436 167.978Z" fill="#1A1A1A"/>
<path d="M34.8301 106.61C34.8301 106.983 29.7536 138.318 29.7536 138.318L28.8712 167.221L33.3983 166.642L33.4444 138.511L38.1266 101.892L34.8301 106.61Z" fill="#1A1A1A"/>
<path d="M46.4791 103.716L38.4851 137.11L38.326 166.229L40.1389 165.961L40.9623 136.947L49.9016 103.354L46.4791 103.716Z" fill="#1A1A1A"/>
<path d="M64.7568 89.5529C65.6588 89.9772 72.3432 97.5105 72.3432 97.5105L73.4464 92.79L65.0222 87.6967L64.7568 89.5529Z" fill="#4D4D4D" stroke="#333333" stroke-width="0.0192802"/>
<path d="M101.248 140.775L80.6324 129.13L80.0011 116.714L96.6118 117.624L99.3001 125.813L101.206 140.455" fill="black"/>
<path d="M101.248 140.775L80.6324 129.13L80.0011 116.714L96.6118 117.624L99.3001 125.813L101.206 140.455" stroke="#333333" stroke-width="0.0202185"/>
<path d="M80.0012 116.714L77.9765 115.146L70.2074 114.741L67.7437 122.487L69.0022 130.755L77.3888 130.476L80.6325 129.13L80.0012 116.714Z" fill="black" stroke="#333333" stroke-width="0.0202185"/>
<path d="M63.8217 74.1799L25.7721 79.5247L12.0229 102.33L26.4114 113.376L45.2766 100.904L46.8752 104.467L54.549 105.18L69.577 93.0651L72.1348 84.1567L63.8217 74.1799Z" fill="#1A1A1A" stroke="#4D4D4D" stroke-width="0.0216855"/>
<path d="M125.2 113.851L128.678 130.788L129.41 168.252L102.317 165.685L99.022 138.485L92.0656 118.983L78.5191 95.8889C94.0795 92.9187 109.639 85.0221 125.2 113.851V113.851Z" fill="#333333" stroke="#4D4D4D" stroke-width="0.0192802"/>
<path d="M126.179 168.084C126.179 167.041 125.37 138.375 125.37 138.375L121.389 115.463L117.506 114.011L121.852 138.959L122.813 166.813L126.179 168.084Z" fill="#1A1A1A"/>
<path d="M110.879 106.723C110.879 107.096 116.061 138.427 116.061 138.427L116.962 167.327L112.34 166.748L112.293 138.62L107.513 102.006L110.879 106.723Z" fill="#1A1A1A"/>
<path d="M98.9854 103.829L107.147 137.219L107.309 166.334L105.458 166.067L104.618 137.056L95.4912 103.467L98.9854 103.829Z" fill="#1A1A1A"/>
<path d="M84.8935 75.4393L122.943 80.7849L136.692 103.589L122.304 114.636L103.439 102.164L101.84 105.728L94.166 106.439L79.138 94.3253L76.5801 85.4169L84.8935 75.4393Z" fill="#1A1A1A" stroke="#4D4D4D" stroke-width="0.0216855"/>
<path d="M77.2308 92.4934L77.6943 97.0354L84.3788 94.4891L88.6227 82.8707L86.766 82.6584L80.9835 91.942L77.2308 92.4934Z" fill="#4D4D4D" stroke="#333333" stroke-width="0.0192802"/>
<path d="M60.6461 80.3124L70.0544 91.9198L81.0175 92.1963L90.3545 76.7056L90.7788 47.6338L72.7417 45.5112L57.8874 54.8481L56.6143 69.2783L60.6461 80.3124Z" fill="#FFCCAA" stroke="black" stroke-width="0.0192802"/>
<path d="M76.4873 39.0278L59.299 42.8476L43.8083 64.4921L49.1133 77.861L42.535 87.8346L48.6888 92.2912L63.1186 91.8666L61.0495 77.702L57.6544 73.0339L61.2618 70.6991L59.299 64.7043L63.5431 56.0042L66.5139 49.4259L75.6385 51.3362L77.9727 48.5769L84.339 49.2136L88.1584 59.6118L87.3098 71.9194L89.4317 76.8005L92.827 83.5903L92.4027 89.9564L100.678 78.4977L102.376 73.1929L107.893 71.7071L100.678 62.158L99.4053 55.3675L99.1931 48.5769L94.3124 45.8183L90.9171 38.8163L81.368 41.1503L76.4873 39.0278Z" fill="#333333" stroke="#4D4D4D" stroke-width="0.0192802"/>
<path d="M62.8189 83.2106L70.0955 89.3574L75.179 87.2685L79.6201 88.7841L86.7661 82.6584L80.9835 91.942L76.7365 92.5318L69.4693 92.0775L62.8189 83.2106Z" fill="#333333" stroke="#808080" stroke-width="0.0192802"/>
<path d="M73.5596 79.4025L68.2583 80.4786L67.3414 82.9662L67.731 83.6961L72.2714 82.226L73.9782 81.2658L74.8876 81.2932L74.926 81.2916L74.9645 81.2932L75.8739 81.2658L77.5805 82.226L82.3837 83.6961L82.7731 82.9662L81.8565 80.4786L76.2923 79.4025L74.9263 79.4636L73.5596 79.4025Z" fill="#333333"/>
</g>
<defs>
<filter id="filter0_d" x="0.129129" y="6.82373" width="141.636" height="171.937" filterUnits="userSpaceOnUse" color-interpolation-filters="sRGB">
<feFlood flood-opacity="0" result="BackgroundImageFix"/>
<feColorMatrix in="SourceAlpha" type="matrix" values="0 0 0 0 0 0 0 0 0 0 0 0 0 0 0 0 0 0 127 0"/>
<feOffset dy="0.273947"/>
<feGaussianBlur stdDeviation="0.136973"/>
<feColorMatrix type="matrix" values="0 0 0 0 0 0 0 0 0 0 0 0 0 0 0 0 0 0 0.25 0"/>
<feBlend mode="normal" in2="BackgroundImageFix" result="effect1_dropShadow"/>
<feBlend mode="normal" in="SourceGraphic" in2="effect1_dropShadow" result="shape"/>
</filter>
</defs>
</svg>
