<svg width="115" height="143" viewBox="0 0 115 143" fill="none" xmlns="http://www.w3.org/2000/svg">
<g filter="url(#filter0_d)">
<path d="M0.8573 97.334L2.73146 7.7301H109.184L112.557 97.334L94.9401 117.204L56.8915 141.198L20.7234 117.204L0.8573 97.334Z" fill="#272727"/>
<path d="M11.5058 65.1497L10.8026 70.4755L13.1133 79.8211L21.8541 84.8455L30.2934 78.1126L29.3892 69.6716L19.0409 66.8578L14.3189 73.4899L14.1182 84.6444L27.6814 100.22L41.0436 107.455L63.1466 104.541L78.6187 89.5685L80.4272 74.1935L83.4412 74.9974L82.2356 90.3724L76.308 100.421L55.2096 109.666L77.7145 104.943L91.3782 85.0461L90.7754 69.0688L77.4131 52.7896L75.0019 54.5984V57.5126L69.3757 60.1248L63.3476 57.3115L71.8874 50.3775L80.3267 50.9807L91.8805 61.7331L95.4974 77.6101L93.488 89.066L85.0487 99.6173L96.9039 89.2671L101.927 66.5564L89.4693 46.1574L68.5719 39.8262L55.2096 43.3431L55.8124 46.358L59.4293 48.4683L58.1232 56.809L48.4783 53.5934L49.282 44.3486L65.7588 33.7968L67.2658 24.6527L63.9504 21.4367L66.8639 19.7286L60.5345 18.2212L58.7809 18.9455L53.4528 18.4128L53.0621 19.4431L45.9224 19.6225L45.9935 21.505L53.5239 21.9311L53.2398 23.6369C53.2398 23.6369 47.2368 26.3371 47.2013 26.4787C47.1657 26.6215 48.0893 28.824 48.0893 28.824L50.2916 26.195L52.7426 27.7227L54.9449 26.2302L58.1417 25.8045L59.0653 24.134L61.0544 28.2555L59.1008 32.3409L46.2777 40.8325L47.7751 31.889L40.3405 24.8547L37.2554 23.9925L37.9659 21.7896L30.4355 26.514L25.5336 28.824L25.6757 30.7783L21.3777 34.5081L21.6617 35.8944L24.61 36.0372L25.2849 33.9758C25.2849 33.9758 29.8315 31.2756 29.8315 31.4177C29.8315 31.5605 28.4817 36.4281 28.3397 36.4634C28.1975 36.4967 27.9489 39.0919 27.9489 39.0919C27.9489 39.0919 30.3999 39.5187 30.3288 39.3409C30.2577 39.1616 30.3999 36.2496 30.3999 36.2496L33.1706 35.823C33.1706 35.823 32.2825 32.8741 32.4956 32.8389C32.7089 32.8056 34.9821 31.0269 34.9821 31.0269L35.3373 28.8244L40.9851 32.6965L40.5234 49.3594L32.2115 43.1782L22.6564 43.0354L16.5113 45.7354L17.8255 40.5126L16.3692 38.9853L15.6588 42.9283L13.6696 46.7299L11.1831 52.2722L12.1422 54.1194L11.4318 56.7489L10.5082 57.4949L11.0055 61.1194L12.5329 59.626L13.4565 55.6115L14.6287 54.0489L17.1151 61.1899L19.9568 61.3661L18.3939 58.7014L18.5716 57.4588L19.8503 56.5699L19.0689 55.0783L18.8556 53.3015L21.1645 50.0684L22.976 48.1145L30.542 48.6115L41.2693 64.8835L46.5974 69.8216L47.9117 74.9377L45.7804 74.7253L36.8647 67.3358L35.3373 60.8338L34.9821 59.2699L34.7333 59.1967L32.7441 59.3395L31.9271 58.2383L28.7303 59.0914L26.4214 59.8727L27.0252 64.0299L30.1866 64.7046L32.8507 67.8306L32.1403 72.7692L35.1595 73.5152L35.7279 70.6734L48.9416 81.4741C48.9416 81.4741 47.6629 83.6414 47.9115 83.677C48.1603 83.7103 49.8652 83.8198 49.8652 83.8198L55.9392 74.5112L57.2535 75.0087L57.8574 83.0733L59.2283 86.0502L57.2692 87.8591L53.3509 88.7637L46.5693 88.5116L41.998 85.3964L40.491 82.1307L38.3309 83.1356L38.3066 83.6878L36.2973 83.8884C36.2973 83.8884 36.0713 86.627 36.1967 86.5771C36.3222 86.529 35.2925 87.3051 35.2925 87.3051L35.4684 90.4958L37.2266 90.3439L38.608 89.892L41.7225 91.8514L42.8277 93.6602L42.852 95.6955C42.852 95.6955 45.5897 95.8203 45.6902 95.7447C45.7908 95.6716 46.3433 91.8252 46.3433 91.8252L50.362 92.5287L60.0572 92.8554L62.7447 91.8252L66.631 89.892L66.5954 84.456L69.224 82.3245L68.478 90.3896L64.4642 96.9621L55.2998 101.013L42.5123 102.291L30.4352 97.2458L20.0276 86.9431L17.5056 83.8523L17.399 82.1469L16.5819 76.2491L18.6777 71.0972L26.2791 73.2292L25.2491 78.4515L21.2707 80.6187L16.8661 78.6652L13.4916 72.0927L12.9233 65.5198L11.5058 65.1497Z" fill="#A61C20"/>
<path d="M14.3265 55.5751L13.7226 56.9433L13.1898 61.6686L10.7211 62.8936L10.952 64.9013L12.7813 64.7585L13.2076 63.355L13.9713 63.3215C13.9713 63.3215 14.9836 60.124 14.9836 60.0179C14.9836 59.9116 14.4863 55.7007 14.4863 55.7007L14.3265 55.5751Z" fill="#D6D6D6"/>
<path d="M26.3857 62.3792L23.402 62.77L23.6863 61.5265L26.456 60.1099L26.3857 62.3792Z" fill="#E8E8E8"/>
<path d="M28.7304 59.0912L26.6523 58.1504L26.8301 57.2092L30.0269 57.136L30.228 58.6891L28.7304 59.0912Z" fill="#E8E8E8"/>
<path d="M34.68 58.72L34.2538 57.1384L31.785 55.9478L32.0159 57.4407L32.5514 59.0801L34.68 58.72Z" fill="#E8E8E8"/>
<path d="M32.3181 73.2417L31.9362 74.4139L31.0393 74.9999L33.9609 75.4003L34.3694 73.6502L32.3181 73.2417Z" fill="#E9E9E9"/>
<path d="M39.8003 81.9687C39.7125 81.9206 37.3263 81.139 37.3263 81.139L36.0077 82.534L38.017 82.9859L39.8003 81.9687Z" fill="#E9E9E9"/>
<path d="M36.2975 83.8888L33.9733 84.0284L32.9435 85.7618L36.1613 86.093L36.2975 83.8888Z" fill="#E9E9E9"/>
<path d="M35.3227 87.8544L33.1567 88.5503L33.2069 91.7161L34.538 90.5982L35.4331 89.8593L35.3227 87.8544Z" fill="#E9E9E9"/>
<path d="M43.6054 95.9868L43.0654 97.0044L42.1737 98.0591C42.1737 98.0591 45.1627 97.9344 45.2381 97.8707C45.3134 97.8068 45.9037 95.8987 45.9037 95.8987L43.6054 95.9868Z" fill="#E9E9E9"/>
<path d="M28.1712 33.1311C28.0959 33.1311 25.559 34.8265 25.559 34.8265C25.559 34.8265 23.7883 36.9996 23.7381 36.9996C23.6879 36.9996 20.7869 37.0394 20.7869 37.0394L20.5481 37.8681L21.5276 38.2951L21.7913 38.9865L22.4443 38.7981L24.0625 38.08L25.9356 36.6132L28.1712 33.1311Z" fill="#E9E9E9"/>
<path d="M52.5974 22.4417C52.5345 22.4417 46.0418 22.4114 46.0418 22.4114L44.8111 22.636L43.191 21.4182L41.91 22.134L43.7938 22.9885L44.2083 23.8172L49.0936 24.0418L51.3667 23.0748L52.5974 22.4417Z" fill="#E9E9E9"/>
<path d="M68.6879 20.9039L77.8509 22.8578L79.4679 25.1488L82.3651 31.0119L80.5459 35.9988L75.2202 38.4019C75.2202 38.4019 71.046 35.4598 70.9786 35.1231C70.9112 34.7858 68.7553 29.5971 68.7553 29.5971L70.5744 26.6319L74.0105 25.8908L82.0956 25.3517L94.7621 36.9423L99.8153 47.1849L100.759 58.2369L98.333 54.4633L95.5706 47.9942L90.5849 39.907L85.4643 33.5731L83.1062 30.204L77.3119 28.3165L73.202 29.4615V32.1579L76.8403 33.5731L77.9857 31.2821L77.9183 28.856L72.7977 24.5429L69.2268 23.5994L68.6879 20.9039Z" fill="#A61C20"/>
<path d="M94.94 117.204L2.73146 7.7301L0.8573 97.334L20.7234 117.204L56.8914 141.198L94.94 117.204Z" fill="white" fill-opacity="0.239362"/>
</g>
<mask id="mask0" mask-type="alpha" maskUnits="userSpaceOnUse" x="0" y="0" width="113" height="134">
<path d="M0.8573 89.6039L2.73146 0H109.184L112.557 89.6039L94.9401 109.474L56.8915 133.468L20.7234 109.474L0.8573 89.6039Z" fill="#272727"/>
</mask>
<g mask="url(#mask0)">
<path d="M52.4038 69.9463L59.3064 83.965L64.1135 90.4735L65.2228 101.739L67.5647 112.253L67.8112 116.884L66.2089 131.779L43.5292 119.888L38.5988 114.381L41.064 98.359L41.1873 90.4735L41.9268 74.3271L52.4038 69.9463Z" fill="#585A5C" stroke="black" stroke-width="0.0365719"/>
<path d="M52.8069 69.9836L57.339 81.4895L63.9629 90.5173L65.5318 83.0826L69.4539 75.6259L52.8069 69.9836Z" fill="#DCCAC0" stroke="#805224" stroke-width="0.0365719"/>
<path d="M65.8804 41.6617L78.6054 45.3789V58.1239L75.2934 71.5768L67.9722 76.0023L52.6325 71.3999L49.6691 65.5586L54.8986 56.7078L57.6876 50.5123L61.5226 42.1927L65.8804 41.6617Z" fill="#DCCAC0" stroke="#805224" stroke-width="0.0365719"/>
<path d="M69.5367 75.5786L63.7434 85.8424L62.6342 91.2247L66.8249 118.01L74.5903 119.262L86.2999 106.62L82.6022 82.0874L75.8229 75.2034L69.5367 75.5786Z" fill="#585A5C" stroke="#231F20" stroke-width="0.0365719"/>
<path d="M78.6053 46.7065L81.2201 62.0181L80.3485 68.3909L81.7431 73.3469L78.0824 79.0115L81.0457 86.0919L78.7797 92.2874L84.5321 100.076L81.7431 107.511L86.2752 114.768L79.1283 115.83L73.7245 108.75L73.0273 98.8369L70.5869 93.7036L71.2841 85.384L68.8438 79.7194L69.0617 75.2943L75.2934 70.8689L78.5183 57.9027L78.6053 46.7065Z" fill="#D0CCC1" stroke="#E6E1D5" stroke-width="0.0365719"/>
<path d="M81.22 74.9401L92.0275 75.6483C92.0275 75.6483 93.7707 77.0643 93.4221 77.7724C93.0734 78.4804 89.7614 85.738 89.7614 85.738L84.8806 90.1634L79.6512 92.6417L76.3392 79.7194L81.22 74.9401Z" fill="#595D5E" stroke="#231F20" stroke-width="0.0365719"/>
<path d="M78.2696 126.983L68.9117 131.839L66.4465 131.089L62.0092 128.084L60.2836 122.953L61.886 119.573L67.4326 116.694L74.6167 118.224L78.2696 126.983Z" fill="#DCCAC0" stroke="#805224" stroke-width="0.0365719"/>
<path d="M89.977 85.2981L91.0228 103.707L92.5917 113.62L93.8118 119.639L83.5273 126.188L76.5547 129.374L76.2061 124.064L73.2427 118.045L69.5822 115.744L76.5547 112.204L84.5733 101.406L80.7383 92.5555L89.977 85.2981Z" fill="#70767A" stroke="#585A5C" stroke-width="0.0365719"/>
<path d="M18.5093 100.697L15.5444 127.604L37.2752 128.674L28.1217 77.9567L18.5093 100.697Z" fill="#231F20" stroke="black" stroke-width="0.0365719"/>
<path d="M25.7787 78.4541L20.6029 102.99L20.4796 115.757L23.8076 126.021L52.4038 131.654L58.197 133.281L55.7318 125.896V122.516L57.8272 119.012L35.7638 112.753L38.8452 113.88L41.557 100.612L41.6802 93.1019L29.3543 78.082L25.7787 78.4541Z" fill="#70767A" stroke="#585A5C" stroke-width="0.0365719"/>
<path d="M39.9058 71.575L23.5784 75.8227L19.2833 81.8061L18.5094 100.698L23.413 89.959L26.082 78.8136L36.8156 87.1742L42.1988 95.6281L45.0904 75.9959L39.9058 71.575Z" fill="#585A5C" stroke="#231F20" stroke-width="0.0406941"/>
<path d="M73.8311 107.586C73.8311 107.586 63.2507 104.993 63.0041 104.117C62.7576 103.241 56.3481 99.7359 55.7319 99.2352C55.1156 98.7345 49.8154 95.6053 49.1991 94.604C48.5828 93.6027 43.0361 87.3444 42.5431 86.2179C42.0501 85.0914 39.7081 83.4641 39.7081 83.4641L35.7638 81.962L34.7778 79.8344L35.7638 74.7024L32.6824 73.2003L34.8404 71.8417L37.6128 72.1992L39.0919 73.4509L40.8175 75.078L41.9268 75.8288C41.9268 75.8288 43.5291 75.9541 43.4059 77.9568C43.2826 79.9595 43.4059 82.4629 43.4059 82.4629L48.213 88.0956C48.213 88.0956 52.2805 90.9744 53.0201 91.8505C53.7597 92.7267 58.4435 97.483 59.1831 97.6081C59.9227 97.7333 65.5926 101.113 65.5926 101.113L71.2625 103.741L73.6045 104.367L74.4604 105.914L73.8311 107.586Z" fill="#CCCCCC" stroke="#585A5C" stroke-width="0.0365719"/>
<path d="M79.6948 46.972L79.5205 42.5466L70.4126 35.4661L54.8986 33.696L44.2653 39.7146L43.7424 45.5558L43.5681 54.5837L44.4397 61.6641L43.0451 67.6826L39.9075 71.2228L43.0451 76.1792L43.2195 83.0826L42.5221 92.4644L45.4855 98.306L45.3112 103.97L47.403 106.979L46.88 111.405L54.7243 116.892L59.0821 114.945L57.1647 106.803L56.6417 100.784L54.8986 94.0575L56.9903 88.0393L53.504 80.4276L54.5499 75.6482L50.1921 65.3816L52.7196 62.5493L57.339 56.9732L61.5226 43.9627L65.0088 42.3696L72.1557 44.8479L79.6948 46.972Z" fill="#E6E1D5" stroke="#A28F63" stroke-width="0.0365719"/>
<path d="M62.5111 41.2825L57.5807 37.6529L53.02 36.2761L49.5689 36.6514L44.885 38.4037L45.378 40.1561L48.2129 40.0311L52.527 38.6543L54.869 40.5317L58.69 41.2825L60.4156 42.6596L62.5111 41.2825Z" fill="#E6E1D5" stroke="#A28F63" stroke-width="0.0365719"/>
<path d="M58.6899 133.156L67.4413 133.781L68.7972 128.149L66.825 121.015L63.9901 117.948L59.9226 118.887L57.0876 119.888L55.3619 124.895L56.8411 132.029L58.6899 133.156Z" fill="#DCCAC0" stroke="#805224" stroke-width="0.0365719"/>
<path d="M36.9043 77.3434L36.1032 78.2196L35.1324 78.1728L35.7179 79.3305L35.7949 80.0972L36.1032 80.9889L36.3188 80.8639L36.6578 80.9889L36.8734 80.7386L37.3973 80.457L36.781 81.0516L36.9505 81.7243L37.9366 82.1625L38.1061 81.6616L38.3217 81.1297L39.046 80.3162L39.2616 79.9406L39.5852 79.9878L41.3416 80.551L42.035 80.8481L42.3123 79.9251L41.8501 79.9093L41.2184 79.5492L41.1259 79.2052L41.6806 79.1113L42.0966 79.2676L42.1122 78.6107L41.9736 77.5311L41.65 76.8425L41.5267 76.3888L40.9258 75.7787L40.5869 75.1528L40.2325 75.6066L39.7241 75.6224L40.1709 76.4517V76.9365L39.8473 76.9995L38.661 76.3109L37.9214 75.9357C37.9214 75.9357 37.6903 76.2015 37.7211 76.2641C37.7517 76.3269 38.3066 77.0935 38.3066 77.0935L38.0446 77.7975L37.4438 77.9851L37.1357 78.2981L36.9043 77.3434Z" fill="#CCCCCC" stroke="#585A5C" stroke-width="0.0365719"/>
<path d="M48.7976 49.6273L44.614 50.6892L44.9627 57.9469L47.7517 58.4778L48.7976 49.6273Z" fill="#DCCAC0" stroke="#805224" stroke-width="0.0365719"/>
</g>
<defs>
<filter id="filter0_d" x="0.8573" y="7.7301" width="113.153" height="134.921" filterUnits="userSpaceOnUse" color-interpolation-filters="sRGB">
<feFlood flood-opacity="0" result="BackgroundImageFix"/>
<feColorMatrix in="SourceAlpha" type="matrix" values="0 0 0 0 0 0 0 0 0 0 0 0 0 0 0 0 0 0 127 0"/>
<feOffset dx="0.726514" dy="0.726514"/>
<feGaussianBlur stdDeviation="0.363257"/>
<feColorMatrix type="matrix" values="0 0 0 0 0 0 0 0 0 0 0 0 0 0 0 0 0 0 0.566 0"/>
<feBlend mode="normal" in2="BackgroundImageFix" result="effect1_dropShadow"/>
<feBlend mode="normal" in="SourceGraphic" in2="effect1_dropShadow" result="shape"/>
</filter>
</defs>
</svg>
