<svg width="109" height="136" viewBox="0 0 109 136" fill="none" xmlns="http://www.w3.org/2000/svg">
<g filter="url(#filter0_d)">
<path d="M1.24548 91.7505L3.03666 6.11377H104.776L108 91.7505L91.1628 110.741L54.7988 133.673L20.232 110.741L1.24548 91.7505Z" fill="#87090A"/>
<path d="M57.2956 67.9903L45.2868 65.1004L36.4246 72.5511L42.0759 78.589L32.8284 81.9291L32.8928 85.847L35.012 84.8834L36.489 87.6453L40.2137 83.92L40.7274 87.1953L50.296 79.5519L50.5528 74.4781L54.7912 73.0648L51.7087 82.4425L61.4057 88.4806L60.2498 91.2425L53.3784 96.188L54.6628 99.3998L56.3967 98.5649L58.9012 101.006L63.1396 94.5824L64.0387 97.9223L72.9008 88.2236L65.5157 78.589L67.7633 73.4501L74.5705 76.2118L84.4601 68.312L74.5705 50.3907L73.0935 41.7197L77.7814 37.2235L78.6805 42.298L82.4694 39.9854L81.2492 47.8217L86.0014 42.6189L89.7902 50.8406L90.8177 38.6366L80.0933 34.5899L72.0018 38.5727L70.0752 44.6742L79.4511 64.4577L77.7172 71.2019L69.4331 70.752L63.4607 56.6858L67.8276 37.7374L63.8461 28.1665L53.6996 29.3874L53.0573 30.7361H48.3694L48.305 34.5256L53.3783 34.1402L52.993 36.0674L48.6903 36.6455L48.8188 38.4435L51.516 38.701L50.8738 39.921L36.4246 50.0058L30.2597 51.6116L22.9991 49.4071L18.6201 49.9732L21.526 51.3543L18.4275 53.0083L21.4618 53.4742L20.6269 55.4012L24.8653 54.8229L24.801 56.8787L35.397 57.5204L37.7731 55.5939L40.5344 57.1997L43.3601 54.4378L46.7636 55.4651L57.4881 65.7421L57.2956 67.9903Z" fill="#FADE29"/>
<path d="M50.8742 39.9212L44.7626 39.9683L43.6955 40.4908L36.9295 33.4278L37.0883 26.3653L35.4082 22.8679C35.4082 22.8679 34.9768 25.457 34.8178 25.3893C34.659 25.3197 32.2295 23.2088 32.2295 23.2088L31.7073 25.9337L28.347 25.0484L29.5277 27.955L31.1851 30.8615L31.117 31.9066L29.8683 30.226L29.3006 34.268L32.2523 36.289L32.7971 39.8322L36.0439 38.9233L36.7932 44.7368L38.2463 44.1924L39.2988 47.9993L50.8742 39.9212Z" fill="#D7BD13"/>
<path d="M91.1628 110.741L3.03666 6.11377L1.24548 91.7505L20.232 110.741L54.7987 133.673L91.1628 110.741Z" fill="white" fill-opacity="0.297872"/>
</g>
<mask id="mask0" mask-type="alpha" maskUnits="userSpaceOnUse" x="1" y="0" width="108" height="129">
<path d="M1.24548 86.2572L3.03666 0.620483H104.776L108 86.2572L91.1628 105.247L54.7988 128.179L20.232 105.247L1.24548 86.2572Z" fill="#87090A"/>
</mask>
<g mask="url(#mask0)">
<path d="M60.1866 78.7184H48.0159V126.44H60.1866V78.7184Z" fill="black"/>
<path d="M41.4032 67.8286L38.6809 72.9527L21.5458 78.3977L22.5066 84.4831L27.4711 91.8494L31.1542 96.1736L33.7165 124.519L52.8654 126.289L51.6151 102.451L53.2535 81.9206L41.4032 67.8286Z" fill="#1A1E21" stroke="black" stroke-width="0.0484485"/>
<path d="M58.2649 44.2876L38.8878 46.85L37.6068 59.9816L46.895 77.757L58.4251 78.5578L66.9125 62.8638L64.6705 48.6117L58.2649 44.2876Z" fill="#FFCCAA" stroke="black" stroke-width="0.0484485"/>
<path d="M52.1737 66.5351L43.2279 68.4602L41.6426 70.272L43.1146 75.8207C43.1146 75.8207 45.8323 79.7839 46.5118 80.4633C47.1912 81.1427 50.3618 83.4074 51.0412 83.4074C51.7207 83.4074 56.5898 82.0486 56.5898 82.0486L59.8737 79.1046L61.7986 73.1028L64.2899 68.3469L61.1193 63.8176L59.9869 68.3469L57.9486 70.1588L55.6839 68.4602L52.1737 66.5351Z" fill="#392F2D" stroke="black" stroke-width="0.0484485"/>
<path d="M32.8025 48.2912L33.1227 59.9817L37.927 67.6687L41.7703 67.8287L42.571 64.626L40.9696 59.6611L43.3717 55.3375L47.5354 51.1738L49.7774 46.6901L53.1404 47.1703L60.0264 51.8146L62.2684 60.1418L62.4286 68.1489L64.9908 73.9141L71.5565 61.1027L70.1152 52.9355L68.1935 45.2486L63.8698 42.2063L56.3431 35.6403L43.2116 34.6794L36.9661 41.8857L32.8025 48.2912Z" fill="#2F2A1F" stroke="black" stroke-width="0.0484485"/>
<path d="M54.7213 72.5364L50.3051 72.4236C50.0409 72.9897 50.3762 72.0396 49.7955 73.5558L56.986 73.6691L54.7213 72.5364Z" fill="#FFCCAA" stroke="black" stroke-width="0.0484485"/>
<path d="M54.1013 81.7606L53.781 92.9704L52.4999 103.059L53.4606 118.913L53.6208 126.28L69.1544 129.322L78.2824 106.743L75.8803 89.7677L82.9265 78.5578L67.8733 77.757L63.3894 71.5116L54.1013 81.7606Z" fill="#1A1E21" stroke="black" stroke-width="0.0484485"/>
<path d="M33.2423 120.279L71.4351 120.005L71.5953 123.622L33.7871 124.497L33.2423 120.279Z" fill="#0E0E0E" stroke="black" stroke-width="0.0573512"/>
<path d="M82.5261 83.4421L87.2502 98.095L88.051 109.305L77.0012 128.202L69.4746 125.639L74.439 108.665L75.2397 89.9278L81.5653 81.2002L82.5261 83.4421Z" fill="#262626" stroke="black" stroke-width="0.0484485"/>
<path d="M22.3933 84.7698L19.1904 98.3816L35.5249 112.154L39.3682 113.115L36.6458 106.229L37.9269 96.7804L27.9581 92.3363L22.3933 84.7698Z" fill="#262626" stroke="black" stroke-width="0.0484485"/>
<path d="M57.5519 92.0026H43.9248L44.8066 98.6513L46.7659 101.496L49.977 103.981L50.2977 111.959L47.6733 114.311L44.5653 115.293L44.7134 116.19L57.0712 116.218L56.8857 115.293L54.4439 114.284L51.9402 111.879L51.6198 103.971L54.7677 102.038L57.2309 99.3518L57.5519 92.0026Z" fill="#4D4D4D" stroke="#808080" stroke-width="0.0453207"/>
<path d="M37.7815 96.8189L46.0876 94.875L50.7418 97.0132L48.8556 102.804L41.9237 104.765L38.1395 107.641L36.7074 104.077L37.7815 96.8189Z" fill="#FFCCAA" stroke="black" stroke-width="0.0412172"/>
<path d="M44.9932 92.7502L47.7556 93.6513L55.5425 93.5915L56.9037 92.3899L44.9932 92.7502Z" fill="#333333"/>
<path d="M53.0796 124.852L56.2503 131.589L78.2748 133.741L73.3489 128.419L71.0842 123.607L53.0796 124.852Z" fill="#1A1E21" stroke="black" stroke-width="0.0484485"/>
<path d="M67.9533 118.993L59.2257 119.233L59.3053 124.518L68.4333 124.919L68.1931 119.634L67.9533 118.993ZM60.2134 119.983L67.2058 120.039L67.0926 121.766L63.9502 121.625V122.361L67.2907 122.587L67.3756 123.861L60.3267 123.635L60.2134 119.983Z" fill="#473F34" stroke="black" stroke-width="0.183112"/>
<path d="M70.1782 126.098L67.5171 129.948L65.4789 130.967L72.5562 133.288L77.9916 130.344L76.9158 128.476L70.1782 126.098Z" fill="#FFCCAA" stroke="black" stroke-width="0.0484485"/>
<path d="M33.4895 124.059L29.6394 129.381L49.286 131.589L53.6455 125.758L53.2492 124.003L33.4895 124.059Z" fill="#1A1E21" stroke="black" stroke-width="0.0484485"/>
<path d="M66.2365 84.5989L64.2797 85.5379L63.1915 88.3397L64.1532 91.075L66.3387 91.8124L68.6556 91.0918L69.9685 88.6869L68.9387 85.7582L66.2365 84.5989ZM66.3131 85.952L67.3503 86.2585L68.3243 87.2343L68.522 88.6197L68.2018 89.4353L67.5494 90.0263L65.5522 89.9321L64.5964 89.0416L64.2881 88.0973L65.04 86.5907L66.3131 85.952Z" fill="#5A5A5A" stroke="#333333" stroke-width="0.130687"/>
<path d="M65.0427 91.1105L61.8946 99.2079L65.9456 91.304L65.0427 91.1105Z" fill="#626262" stroke="#333333" stroke-width="0.0484485"/>
<path d="M66.2513 86.1363C66.1279 86.2266 63.653 91.6539 63.653 91.6539L64.2742 91.9166L64.6473 91.1657L65.2062 91.421L65.4408 90.8848L65.3444 91.6009L66.1001 91.7288L66.2918 91.1809L66.3811 91.814L66.9405 91.7745L68.0076 88.6747L67.7943 87.732L68.3334 87.2969L67.2356 86.1921L66.2513 86.1363Z" fill="#4D4D4D" stroke="#333333" stroke-width="0.0484485"/>
<path d="M64.5745 90.6455L64.9119 89.7009Z" fill="#4D4D4D"/>
<path d="M64.5745 90.6455L64.9119 89.7009" stroke="#333333" stroke-width="0.0426225"/>
<path d="M65.1611 90.6784L65.4713 89.7175Z" fill="#4D4D4D"/>
<path d="M65.1611 90.6784L65.4713 89.7175" stroke="#333333" stroke-width="0.0484485"/>
<path d="M65.9667 90.7735L66.1717 89.9978Z" fill="#4D4D4D"/>
<path d="M65.9667 90.7735L66.1717 89.9978" stroke="#333333" stroke-width="0.0484485"/>
<path d="M66.8375 90.9439L67.0227 90.0582Z" fill="#4D4D4D"/>
<path d="M66.8375 90.9439L67.0227 90.0582" stroke="#333333" stroke-width="0.0484485"/>
<path d="M66.1118 87.3256L67.443 87.6758" stroke="#333333" stroke-width="0.0484485"/>
<path d="M65.6489 88.5563L67.213 88.9596" stroke="#333333" stroke-width="0.0484485"/>
</g>
<defs>
<filter id="filter0_d" x="0.557091" y="6.11377" width="108.131" height="128.936" filterUnits="userSpaceOnUse" color-interpolation-filters="sRGB">
<feFlood flood-opacity="0" result="BackgroundImageFix"/>
<feColorMatrix in="SourceAlpha" type="matrix" values="0 0 0 0 0 0 0 0 0 0 0 0 0 0 0 0 0 0 127 0"/>
<feOffset dy="0.688393"/>
<feGaussianBlur stdDeviation="0.344196"/>
<feColorMatrix type="matrix" values="0 0 0 0 0 0 0 0 0 0 0 0 0 0 0 0 0 0 0.25 0"/>
<feBlend mode="normal" in2="BackgroundImageFix" result="effect1_dropShadow"/>
<feBlend mode="normal" in="SourceGraphic" in2="effect1_dropShadow" result="shape"/>
</filter>
</defs>
</svg>
