<svg width="586" height="699" viewBox="0 0 586 699" fill="none" xmlns="http://www.w3.org/2000/svg">
<g filter="url(#filter0_d)">
<path d="M0 463.662L9.69799 0H560.543L578 463.662L486.839 566.48L289.953 690.642L102.799 566.48L0 463.662Z" fill="#272727"/>
<path d="M55.1015 297.122L51.4624 324.681L63.4195 373.041L108.649 399.04L152.319 364.2L147.64 320.521L94.0924 305.961L69.6581 340.279L68.6191 397.999L138.803 478.597L207.947 516.037L322.321 500.955L402.382 423.479L411.74 343.92L427.336 348.08L421.098 427.639L390.425 479.637L281.25 527.475L397.703 503.036L468.407 400.078L465.288 317.402L396.144 233.164L383.667 242.524V257.603L354.553 271.121L323.36 256.563L367.55 220.682L411.22 223.804L471.006 279.443L489.722 361.6L479.324 420.879L435.654 475.477L497 421.92L522.994 304.401L458.529 198.845L350.394 166.084L281.25 184.283L284.369 199.883L303.085 210.803L296.327 253.963L246.418 237.324L250.577 189.485L335.838 134.884L343.636 87.5675L326.48 70.9261L341.556 62.0875L308.804 54.2871L299.73 58.0353L272.159 55.2785L270.137 60.6098L233.192 61.538L233.56 71.2792L272.527 73.4842L271.057 82.3111C271.057 82.3111 239.994 96.2837 239.81 97.0164C239.626 97.7553 244.405 109.152 244.405 109.152L255.801 95.548L268.484 103.454L279.88 95.7304L296.422 93.5277L301.201 84.8832L311.494 106.21L301.385 127.351L235.031 171.291L242.78 125.012L204.309 88.6127L188.345 84.1513L192.021 72.7523L153.054 97.1988L127.689 109.152L128.425 119.265L106.184 138.565L107.654 145.739L122.91 146.478L126.402 135.81C126.402 135.81 149.929 121.838 149.929 122.574C149.929 123.312 142.945 148.5 142.209 148.683C141.474 148.855 140.188 162.284 140.188 162.284C140.188 162.284 152.87 164.492 152.502 163.573C152.135 162.645 152.87 147.577 152.87 147.577L167.207 145.369C167.207 145.369 162.612 130.11 163.715 129.927C164.818 129.755 176.581 120.551 176.581 120.551L178.419 109.154L207.644 129.191L205.255 215.414L162.244 183.429L112.801 182.69L81.0024 196.661L87.8031 169.636L80.2672 161.732L76.5911 182.136L66.298 201.808L53.4317 230.486L58.3944 240.045L54.7183 253.652L49.9393 257.512L52.5126 276.267L60.4162 268.539L65.1951 247.766L71.2607 239.68L84.127 276.632L98.8316 277.544L90.7441 263.755L91.6636 257.325L98.2806 252.726L94.2369 245.007L93.1334 235.813L105.081 219.083L114.455 208.972L153.605 211.544L209.115 295.745L236.685 321.297L243.486 347.771L232.458 346.672L186.323 308.435L178.419 274.789L176.581 266.697L175.294 266.318L165 267.057L160.773 261.358L144.231 265.773L132.283 269.816L135.408 291.328L151.767 294.819L165.552 310.995L161.876 336.55L177.499 340.41L180.44 325.705L248.816 381.594C248.816 381.594 242.199 392.809 243.485 392.993C244.773 393.165 253.595 393.732 253.595 393.732L285.025 345.564L291.826 348.138L294.951 389.869L302.045 405.274L291.908 414.634L271.632 419.315L236.54 418.01L212.886 401.89L205.087 384.991L193.91 390.192L193.784 393.049L183.387 394.087C183.387 394.087 182.217 408.258 182.866 408C183.516 407.751 178.187 411.767 178.187 411.767L179.097 428.277L188.195 427.492L195.344 425.153L211.46 435.292L217.179 444.652L217.304 455.184C217.304 455.184 231.471 455.83 231.991 455.438C232.511 455.06 235.37 435.156 235.37 435.156L256.165 438.797L306.334 440.488L320.241 435.156L340.351 425.153L340.167 397.024L353.768 385.995L349.908 427.728L329.138 461.738L281.717 482.698L215.547 489.315L153.053 463.206L99.1979 409.894L86.1476 393.9L85.5959 385.076L81.3682 354.557L92.2127 327.898L131.547 338.93L126.217 365.953L105.631 377.168L82.8387 367.059L65.3772 333.049L62.4363 299.037L55.1015 297.122Z" fill="#A61C20"/>
<path d="M69.6969 247.577L66.5722 254.657L63.8151 279.109L51.0408 285.448L52.2354 295.836L61.7013 295.098L63.9071 287.835L67.8588 287.662C67.8588 287.662 73.0973 271.116 73.0973 270.567C73.0973 270.017 70.524 248.227 70.524 248.227L69.6969 247.577Z" fill="#D6D6D6"/>
<path d="M132.098 282.786L116.658 284.808L118.13 278.373L132.461 271.043L132.098 282.786Z" fill="#E8E8E8"/>
<path d="M144.231 265.772L133.478 260.904L134.398 256.034L150.94 255.655L151.981 263.691L144.231 265.772Z" fill="#E8E8E8"/>
<path d="M175.018 263.851L172.812 255.667L160.037 249.506L161.232 257.231L164.003 265.715L175.018 263.851Z" fill="#E8E8E8"/>
<path d="M162.796 338.995L160.82 345.06L156.179 348.093L171.297 350.165L173.411 341.108L162.796 338.995Z" fill="#E9E9E9"/>
<path d="M201.513 384.154C201.059 383.905 188.711 379.861 188.711 379.861L181.888 387.079L192.285 389.417L201.513 384.154Z" fill="#E9E9E9"/>
<path d="M183.387 394.089L171.361 394.811L166.032 403.781L182.683 405.495L183.387 394.089Z" fill="#E9E9E9"/>
<path d="M178.343 414.61L167.135 418.211L167.395 434.593L174.283 428.808L178.915 424.985L178.343 414.61Z" fill="#E9E9E9"/>
<path d="M221.203 456.691L218.409 461.957L213.795 467.415C213.795 467.415 229.261 466.77 229.651 466.44C230.041 466.109 233.096 456.235 233.096 456.235L221.203 456.691Z" fill="#E9E9E9"/>
<path d="M141.337 131.439C140.947 131.439 127.82 140.213 127.82 140.213C127.82 140.213 118.657 151.457 118.397 151.457C118.138 151.457 103.126 151.663 103.126 151.663L101.891 155.951L106.959 158.161L108.324 161.739L111.703 160.764L120.076 157.048L129.768 149.458L141.337 131.439Z" fill="#E9E9E9"/>
<path d="M267.733 76.1257C267.407 76.1257 233.81 75.9691 233.81 75.9691L227.442 77.1312L219.059 70.8296L212.43 74.5334L222.178 78.955L224.322 83.2434L249.602 84.4055L261.364 79.4016L267.733 76.1257Z" fill="#E9E9E9"/>
<path d="M350.994 68.1685L398.409 78.2791L406.776 90.134L421.768 120.473L412.355 146.278L384.796 158.713C384.796 158.713 363.197 143.489 362.848 141.746C362.499 140.001 351.343 113.152 351.343 113.152L360.756 97.8082L378.537 93.9735L420.373 91.1839L485.917 151.16L512.065 204.161L516.946 261.351L504.395 241.824L490.101 208.349L464.302 166.502L437.805 133.726L425.603 116.292L395.62 106.525L374.353 112.45V126.403L393.179 133.726L399.106 121.871L398.758 109.317L372.261 86.9984L353.783 82.1162L350.994 68.1685Z" fill="#A61C20"/>
<path d="M486.838 566.48L9.69798 0L0 463.662L102.799 566.48L289.953 690.642L486.838 566.48Z" fill="white" fill-opacity="0.239362"/>
</g>
<defs>
<filter id="filter0_d" x="0" y="0" width="585.519" height="698.16" filterUnits="userSpaceOnUse" color-interpolation-filters="sRGB">
<feFlood flood-opacity="0" result="BackgroundImageFix"/>
<feColorMatrix in="SourceAlpha" type="matrix" values="0 0 0 0 0 0 0 0 0 0 0 0 0 0 0 0 0 0 127 0"/>
<feOffset dx="3.7594" dy="3.7594"/>
<feGaussianBlur stdDeviation="1.8797"/>
<feColorMatrix type="matrix" values="0 0 0 0 0 0 0 0 0 0 0 0 0 0 0 0 0 0 0.566 0"/>
<feBlend mode="normal" in2="BackgroundImageFix" result="effect1_dropShadow"/>
<feBlend mode="normal" in="SourceGraphic" in2="effect1_dropShadow" result="shape"/>
</filter>
</defs>
</svg>
