<svg width="591" height="705" viewBox="0 0 591 705" fill="none" xmlns="http://www.w3.org/2000/svg">
<g filter="url(#filter0_d)">
<path d="M4 467.673L13.7818 0H569.392L587 467.673L495.05 571.38L296.461 696.615L107.688 571.38L4 467.673Z" fill="#87090A"/>
<path d="M310.098 337.915L244.516 322.133L196.119 362.822L226.981 395.796L176.479 414.036L176.831 435.433L188.404 430.17L196.47 445.253L216.811 424.909L219.616 442.796L271.871 401.054L273.274 373.346L296.421 365.627L279.587 416.84L332.543 449.815L326.231 464.898L288.705 491.906L295.719 509.446L305.188 504.887L318.866 518.217L342.012 483.138L346.922 501.377L395.32 448.411L354.988 395.796L367.263 367.732L404.438 382.813L458.446 339.672L404.438 241.801L396.372 194.448L421.973 169.893L426.883 197.606L447.575 184.976L440.911 227.772L466.863 199.359L487.555 244.258L493.166 177.611L434.598 155.511L390.41 177.262L379.888 210.583L431.091 318.623L421.622 355.454L376.382 352.997L343.766 276.18L367.614 172.7L345.87 120.432L290.459 127.1L286.952 134.465H261.35L260.999 155.16L288.704 153.055L286.6 163.58L263.103 166.737L263.805 176.556L278.534 177.962L275.027 184.625L196.119 239.699L162.451 248.468L122.8 236.43L98.8856 239.521L114.755 247.063L97.8338 256.096L114.404 258.641L109.845 269.164L132.992 266.006L132.64 277.233L190.506 280.738L203.482 270.216L218.562 278.986L233.994 263.903L252.581 269.513L311.149 325.637L310.098 337.915Z" fill="#FADE29"/>
<path d="M275.029 184.626L241.653 184.883L235.825 187.736L198.875 149.165L199.743 110.595L190.567 91.4956C190.567 91.4956 188.211 105.635 187.343 105.265C186.476 104.885 173.208 93.3573 173.208 93.3573L170.356 108.238L152.005 103.404L158.453 119.277L167.504 135.15L167.132 140.857L160.313 131.679L157.213 153.753L173.332 164.79L176.308 184.14L194.039 179.176L198.131 210.924L206.066 207.951L211.814 228.741L275.029 184.626Z" fill="#D7BD13"/>
<path d="M495.05 571.38L13.7818 0L4 467.673L107.688 571.38L296.461 696.615L495.05 571.38Z" fill="white" fill-opacity="0.297872"/>
</g>
<defs>
<filter id="filter0_d" x="0.240602" y="0" width="590.519" height="704.134" filterUnits="userSpaceOnUse" color-interpolation-filters="sRGB">
<feFlood flood-opacity="0" result="BackgroundImageFix"/>
<feColorMatrix in="SourceAlpha" type="matrix" values="0 0 0 0 0 0 0 0 0 0 0 0 0 0 0 0 0 0 127 0"/>
<feOffset dy="3.7594"/>
<feGaussianBlur stdDeviation="1.8797"/>
<feColorMatrix type="matrix" values="0 0 0 0 0 0 0 0 0 0 0 0 0 0 0 0 0 0 0.25 0"/>
<feBlend mode="normal" in2="BackgroundImageFix" result="effect1_dropShadow"/>
<feBlend mode="normal" in="SourceGraphic" in2="effect1_dropShadow" result="shape"/>
</filter>
</defs>
</svg>
