<svg width="609" height="722" viewBox="0 0 609 722" fill="none" xmlns="http://www.w3.org/2000/svg">
<g filter="url(#filter0_d)">
<path d="M7.03455 479.342L17.0605 0.000488281H586.536L604.583 479.342L510.338 585.639L306.794 714L113.31 585.639L7.03455 479.342Z" fill="#FADE29"/>
<path d="M315.457 344.795L297.099 369.273L300.281 430.974L306.155 445.902L307.379 477.732L249.367 488.749L213.14 517.153L227.337 527.433C227.337 527.433 257.445 505.644 258.669 505.644C259.893 505.644 340.18 496.584 340.669 495.357C341.159 494.143 342.627 435.377 342.627 435.377L396.723 403.792L399.905 380.782L410.186 400.611L426.096 404.284L415.081 370.741L377.141 324.228L332.836 296.316L291.714 240.493L289.756 217.237L321.577 173.413L322.311 158.478L342.138 167.782L346.054 157.01L311.541 122.491L290.49 118.327L271.152 123.467L264.788 112.941L223.176 113.426L218.77 128.853L231.498 131.058V137.174L218.525 138.887L221.707 146.477L240.8 145.01L250.591 141.829L263.564 159.215L254.997 170.717L209.469 198.629L198.698 231.435L204.328 300.48L161.003 318.105L135.546 382.004L135.79 425.827L154.393 420.933L153.169 391.308L172.751 335L223.91 329.614L242.513 325.696L298.811 369.765" fill="#696969"/>
<path d="M199.726 244.042L174.806 208.605L159.747 217.258L114.746 283.051L113.706 310.225L126.861 310.066L134.304 281.323L169.786 233.893L180.69 265.224L204.327 300.488" fill="#464646"/>
<path d="M342.626 435.377L379.832 464.272L405.534 472.101L414.835 488.258L410.429 530.122L377.874 556.566L392.316 563.181C392.316 563.181 420.955 542.853 422.179 542.853C423.403 542.853 436.131 461.084 436.131 461.084L388.4 427.54L388.157 409.178" fill="#464646"/>
<path d="M290.489 118.327L273.637 109.066L273.292 74.7855L284.715 75.6458L283.33 103.341L296.831 102.466L300.119 61.7875L310.85 65.0768L304.965 105.069L309.812 105.228L324.524 80.1279L327.639 89.6487L315.351 111.64L329.889 117.691L333.87 107.657L349.794 105.748L351.18 112.847L339.41 117.691L336.121 133.103L369.872 153.186L400.335 136.913L412.114 109.384L419.202 88.0944L415.094 62.0044L401.893 55.1945L403.797 46.1942L423.701 57.103L430.165 76.8314L418.855 116.657L408.816 141.757L416.432 138.294L428.894 103.673L434.104 75.3494L431.663 56.409L435.298 36.8469L444.125 46.5412L440.464 58.7874L443.606 77.3591L437.775 107.136L427.509 135.698L448.972 120.293L450.876 84.4582L457.972 84.8124L458.231 113.201L464.376 97.796L464.465 73.9036L446.031 59.879L447.762 53.474L467.58 65.5973L467.669 55.0355L448.284 36.3408L454.168 31.6636L478.227 53.3005L474.246 87.2342L464.9 122.896L442.053 141.764L379.743 166.003L346.059 156.988L311.546 122.476L290.489 118.327Z" fill="#464646"/>
<path d="M510.329 585.639L134.297 139.2L17.0509 0L4 481.348L113.3 585.639L306.784 714L510.329 585.639Z" fill="white" fill-opacity="0.4375"/>
</g>
<defs>
<filter id="filter0_d" x="0.240602" y="0" width="608.102" height="721.519" filterUnits="userSpaceOnUse" color-interpolation-filters="sRGB">
<feFlood flood-opacity="0" result="BackgroundImageFix"/>
<feColorMatrix in="SourceAlpha" type="matrix" values="0 0 0 0 0 0 0 0 0 0 0 0 0 0 0 0 0 0 127 0"/>
<feOffset dy="3.7594"/>
<feGaussianBlur stdDeviation="1.8797"/>
<feColorMatrix type="matrix" values="0 0 0 0 0 0 0 0 0 0 0 0 0 0 0 0 0 0 0.25 0"/>
<feBlend mode="normal" in2="BackgroundImageFix" result="effect1_dropShadow"/>
<feBlend mode="normal" in="SourceGraphic" in2="effect1_dropShadow" result="shape"/>
</filter>
</defs>
</svg>
