<svg width="591" height="716" viewBox="0 0 591 716" fill="none" xmlns="http://www.w3.org/2000/svg">
<g filter="url(#filter0_d)">
<path d="M4 471.345L13.779 3.91064H569.225L586.827 471.345L494.904 575.003L296.375 700.173L107.657 575.003L4 471.345Z" fill="#D4CDB1"/>
<path d="M584.871 408.761H4V473.302L103.745 571.092L297.369 700.175L492.949 575.004L584.871 473.302V408.761Z" fill="#7B906F"/>
<path d="M229.56 487.731C226.895 492.681 105.976 353.359 45.8497 283.079L257.641 153.625L239.555 136.016L309.993 141.251L349.02 136.016L439.448 153.625L460.865 179.326L546.533 198.839L539.394 227.395C523.212 243.577 490.468 277.368 488.945 283.079C487.422 288.791 482.916 270.229 480.854 260.235L460.865 283.079L452.774 253.096L422.79 260.235L413.747 245.005H394.234V265.47H413.747L422.79 283.079L439.448 275.94L452.774 296.406H480.854L439.448 358.277L433.261 337.812L422.79 330.157L407.084 333.529V318.675L376.624 296.406C328.714 358.119 232.226 482.782 229.56 487.731Z" fill="#464646"/>
<path d="M267.79 147.936L331.133 157.251L353.489 171.69L307.381 178.676L267.79 147.936Z" fill="#757575"/>
<path d="M379.957 173.139C401.406 174.587 444.571 177.484 445.636 177.484L442.086 178.788L442.973 186.61L432.766 193.128L379.957 173.139Z" fill="#757575"/>
<path d="M145.32 278.796L45.8498 283.555L120.096 237.866L145.32 278.796Z" fill="#757575"/>
<path d="M204.812 237.388H121.523L181.491 200.265L204.812 237.388Z" fill="#757575"/>
<path d="M267.161 194.556L181.969 200.268L257.642 153.626L267.161 194.556Z" fill="#757575"/>
<path d="M250.502 384.929L229.561 488.207L285.721 413.961L250.502 384.929Z" fill="#757575"/>
<path d="M299.999 338.763L284.769 413.009L329.031 357.8L299.999 338.763Z" fill="#757575"/>
<path d="M336.647 290.218L329.508 357.325L375.198 296.881L336.647 290.218Z" fill="#757575"/>
<path d="M498.816 576.959L15.7348 0L4 477.214L101.79 576.959L295.413 707.998L498.816 576.959Z" fill="white" fill-opacity="0.352"/>
</g>
<defs>
<filter id="filter0_d" x="0.240602" y="0" width="590.345" height="715.516" filterUnits="userSpaceOnUse" color-interpolation-filters="sRGB">
<feFlood flood-opacity="0" result="BackgroundImageFix"/>
<feColorMatrix in="SourceAlpha" type="matrix" values="0 0 0 0 0 0 0 0 0 0 0 0 0 0 0 0 0 0 127 0"/>
<feOffset dy="3.7594"/>
<feGaussianBlur stdDeviation="1.8797"/>
<feColorMatrix type="matrix" values="0 0 0 0 0 0 0 0 0 0 0 0 0 0 0 0 0 0 0.25 0"/>
<feBlend mode="normal" in2="BackgroundImageFix" result="effect1_dropShadow"/>
<feBlend mode="normal" in="SourceGraphic" in2="effect1_dropShadow" result="shape"/>
</filter>
</defs>
</svg>
