<svg width="591" height="735" viewBox="0 0 591 735" fill="none" xmlns="http://www.w3.org/2000/svg">
<g filter="url(#filter0_d)">
<path d="M4 497.673L13.7818 30H569.392L587 497.673L495.05 601.38L296.461 726.615L107.688 601.38L4 497.673Z" fill="#87090A"/>
<path d="M310.098 367.915L244.516 352.133L196.119 392.822L226.981 425.796L176.479 444.036L176.831 465.433L188.404 460.17L196.47 475.253L216.811 454.909L219.616 472.796L271.871 431.054L273.274 403.346L296.421 395.627L279.587 446.84L332.543 479.815L326.231 494.898L288.705 521.906L295.719 539.446L305.188 534.887L318.866 548.217L342.012 513.138L346.922 531.377L395.32 478.411L354.988 425.796L367.263 397.732L404.438 412.813L458.446 369.672L404.438 271.801L396.372 224.448L421.973 199.893L426.883 227.606L447.575 214.976L440.911 257.772L466.863 229.359L487.555 274.258L493.166 207.611L434.598 185.511L390.41 207.262L379.888 240.583L431.091 348.623L421.622 385.454L376.382 382.997L343.766 306.18L367.614 202.7L345.87 150.432L290.459 157.1L286.952 164.465H261.35L260.999 185.16L288.704 183.055L286.6 193.58L263.103 196.737L263.805 206.556L278.534 207.962L275.027 214.625L196.119 269.699L162.451 278.468L122.8 266.43L98.8856 269.521L114.755 277.063L97.8338 286.096L114.404 288.641L109.845 299.164L132.992 296.006L132.64 307.233L190.506 310.738L203.482 300.216L218.562 308.986L233.994 293.903L252.581 299.513L311.149 355.637L310.098 367.915Z" fill="#FADE29"/>
<path d="M275.029 214.626L241.653 214.883L235.825 217.736L198.875 179.165L199.743 140.595L190.567 121.496C190.567 121.496 188.211 135.635 187.343 135.265C186.476 134.885 173.208 123.357 173.208 123.357L170.356 138.238L152.005 133.404L158.453 149.277L167.504 165.15L167.132 170.857L160.313 161.679L157.213 183.753L173.332 194.79L176.308 214.14L194.039 209.176L198.131 240.924L206.066 237.951L211.814 258.741L275.029 214.626Z" fill="#D7BD13"/>
<path d="M495.05 601.38L13.7818 30L4 497.673L107.688 601.38L296.461 726.615L495.05 601.38Z" fill="white" fill-opacity="0.297872"/>
</g>
<mask id="mask0" mask-type="alpha" maskUnits="userSpaceOnUse" x="4" y="0" width="583" height="697">
<path d="M4 467.673L13.7818 0H569.392L587 467.673L495.05 571.38L296.461 696.615L107.688 571.38L4 467.673Z" fill="#87090A"/>
</mask>
<g mask="url(#mask0)">
<path d="M325.885 426.502H259.419V687.118H325.885V426.502Z" fill="black"/>
<path d="M223.306 367.032L208.439 395.016L114.862 424.752L120.11 457.985L147.221 498.213L167.335 521.828L181.328 676.623L285.903 686.294L279.075 556.111L288.022 443.991L223.306 367.032Z" fill="#1A1E21" stroke="black" stroke-width="0.264583"/>
<path d="M315.39 238.472L209.569 252.466L202.573 324.179L253.298 421.253L316.265 425.626L362.616 339.919L350.372 262.086L315.39 238.472Z" fill="#FFCCAA" stroke="black" stroke-width="0.264583"/>
<path d="M282.125 359.968L233.271 370.481L224.614 380.376L232.653 410.678C232.653 410.678 247.494 432.321 251.205 436.032C254.915 439.742 272.231 452.109 275.941 452.109C279.651 452.109 306.242 444.689 306.242 444.689L324.176 428.611L334.688 395.835L348.294 369.863L330.978 345.127L324.794 369.863L313.663 379.757L301.295 370.481L282.125 359.968Z" fill="#392F2D" stroke="black" stroke-width="0.264583"/>
<path d="M176.337 260.336L178.086 324.179L204.322 366.158L225.311 367.032L229.684 349.542L220.939 322.428L234.057 298.816L256.795 276.078L269.039 251.592L287.404 254.214L325.01 279.577L337.254 325.053L338.128 368.781L352.121 400.265L387.977 330.3L380.106 285.699L369.612 243.719L345.999 227.105L304.895 191.247L233.182 186L199.075 225.354L176.337 260.336Z" fill="#2F2A1F" stroke="black" stroke-width="0.264583"/>
<path d="M296.038 392.742L271.921 392.126C270.478 395.218 272.31 390.029 269.138 398.309L308.407 398.928L296.038 392.742Z" fill="#FFCCAA" stroke="black" stroke-width="0.264583"/>
<path d="M292.652 443.116L290.903 504.335L283.907 559.431L289.153 646.013L290.028 686.241L374.859 702.858L424.708 579.547L411.59 486.844L450.07 425.626L367.863 421.253L343.375 387.146L292.652 443.116Z" fill="#1A1E21" stroke="black" stroke-width="0.264583"/>
<path d="M178.739 653.467L387.314 651.972L388.189 671.725L181.714 676.504L178.739 653.467Z" fill="#0E0E0E" stroke="black" stroke-width="0.313202"/>
<path d="M447.884 452.299L473.683 532.32L478.056 593.539L417.712 696.736L376.608 682.742L403.719 590.042L408.092 487.718L442.637 440.056L447.884 452.299Z" fill="#262626" stroke="black" stroke-width="0.264583"/>
<path d="M119.491 459.55L102 533.886L191.204 609.098L212.193 614.346L197.326 576.74L204.322 525.142L149.881 500.872L119.491 459.55Z" fill="#262626" stroke="black" stroke-width="0.264583"/>
<path d="M311.496 499.049H237.077L241.892 535.358L252.593 550.895L270.129 564.464L271.88 608.035L257.548 620.88L240.575 626.24L241.383 631.138L308.871 631.293L307.858 626.24L294.523 620.73L280.85 607.599L279.1 564.41L296.291 553.853L309.743 539.184L311.496 499.049Z" fill="#4D4D4D" stroke="#808080" stroke-width="0.247502"/>
<path d="M203.527 525.352L248.888 514.736L274.305 526.413L264.004 558.035L226.148 568.749L205.482 584.454L197.661 564.989L203.527 525.352Z" fill="#FFCCAA" stroke="black" stroke-width="0.225092"/>
<path d="M242.912 503.132L257.998 508.053L300.523 507.726L307.957 501.164L242.912 503.132Z" fill="#333333"/>
<path d="M287.072 678.444L304.387 715.238L424.666 726.988L397.765 697.923L385.398 671.643L287.072 678.444Z" fill="#1A1E21" stroke="black" stroke-width="0.264583"/>
<path d="M368.3 646.449L320.637 647.76L321.072 676.622L370.921 678.808L369.609 649.949L368.3 646.449ZM326.031 651.852L364.218 652.162L363.599 661.592L346.439 660.819V664.839L364.681 666.076L365.145 673.033L326.65 671.796L326.031 651.852Z" fill="#473F34" stroke="black"/>
<path d="M380.45 685.246L365.918 706.272L354.787 711.837L393.437 724.514L423.12 708.436L417.245 698.233L380.45 685.246Z" fill="#FFCCAA" stroke="black" stroke-width="0.264583"/>
<path d="M180.089 674.115L159.063 703.18L266.355 715.238L290.163 683.391L287.999 673.807L180.089 674.115Z" fill="#1A1E21" stroke="black" stroke-width="0.264583"/>
<path d="M358.924 458.617L348.237 463.746L342.295 479.046L347.547 493.984L359.482 498.011L372.135 494.076L379.305 480.942L373.681 464.949L358.924 458.617ZM359.342 466.007L365.007 467.681L370.326 473.009L371.406 480.575L369.657 485.03L366.094 488.257L355.187 487.742L349.967 482.88L348.283 477.722L352.39 469.495L359.342 466.007Z" fill="#5A5A5A" stroke="#333333" stroke-width="0.713696"/>
<path d="M352.405 494.177L335.213 538.398L357.336 495.234L352.405 494.177Z" fill="#626262" stroke="#333333" stroke-width="0.264583"/>
<path d="M359.005 467.012C358.331 467.506 344.814 497.145 344.814 497.145L348.207 498.58L350.245 494.479L353.297 495.873L354.578 492.945L354.052 496.856L358.179 497.554L359.226 494.562L359.713 498.019L362.768 497.803L368.596 480.875L367.431 475.727L370.375 473.351L364.38 467.317L359.005 467.012Z" fill="#4D4D4D" stroke="#333333" stroke-width="0.264583"/>
<path d="M349.847 491.638L351.69 486.479L349.847 491.638Z" fill="#4D4D4D"/>
<path d="M349.847 491.638L351.69 486.479" stroke="#333333" stroke-width="0.232767"/>
<path d="M353.051 491.818L354.745 486.571L353.051 491.818Z" fill="#4D4D4D"/>
<path d="M353.051 491.818L354.745 486.571" stroke="#333333" stroke-width="0.264583"/>
<path d="M357.451 492.338L358.57 488.102L357.451 492.338Z" fill="#4D4D4D"/>
<path d="M357.451 492.338L358.57 488.102" stroke="#333333" stroke-width="0.264583"/>
<path d="M362.206 493.267L363.217 488.431L362.206 493.267Z" fill="#4D4D4D"/>
<path d="M362.206 493.267L363.217 488.431" stroke="#333333" stroke-width="0.264583"/>
<path d="M358.243 473.508L365.513 475.421" stroke="#333333" stroke-width="0.264583"/>
<path d="M355.715 480.229L364.257 482.432" stroke="#333333" stroke-width="0.264583"/>
</g>
<defs>
<filter id="filter0_d" x="0.240602" y="30" width="590.519" height="704.134" filterUnits="userSpaceOnUse" color-interpolation-filters="sRGB">
<feFlood flood-opacity="0" result="BackgroundImageFix"/>
<feColorMatrix in="SourceAlpha" type="matrix" values="0 0 0 0 0 0 0 0 0 0 0 0 0 0 0 0 0 0 127 0"/>
<feOffset dy="3.7594"/>
<feGaussianBlur stdDeviation="1.8797"/>
<feColorMatrix type="matrix" values="0 0 0 0 0 0 0 0 0 0 0 0 0 0 0 0 0 0 0.25 0"/>
<feBlend mode="normal" in2="BackgroundImageFix" result="effect1_dropShadow"/>
<feBlend mode="normal" in="SourceGraphic" in2="effect1_dropShadow" result="shape"/>
</filter>
</defs>
</svg>
