<svg width="830" height="830" viewBox="0 0 830 830" fill="none" xmlns="http://www.w3.org/2000/svg">
<path d="M178.86 524.77L245.057 420.918L175.11 319.555L295.352 292.93L317.568 171.794L421.419 237.991L522.783 168.044L549.408 288.287L670.543 310.502L604.346 414.353L674.293 515.717L554.051 542.343L531.836 663.477L427.985 597.28L326.621 667.228L299.995 546.985L178.86 524.77Z" fill="#FFCC00" stroke="#805224" stroke-width="0.457877"/>
<path d="M415.325 712.193L414.753 414.786L338.852 599.027L415.325 712.193Z" fill="#FFDD55"/>
<path d="M204.819 625.485L414.714 414.782L230.765 491.39L204.819 625.485Z" fill="#FFDD55"/>
<path d="M117.279 415.323L414.686 414.752L230.444 338.851L117.279 415.323Z" fill="#FFDD55"/>
<path d="M203.985 204.817L414.688 414.712L338.079 230.763L203.985 204.817Z" fill="#FFDD55"/>
<path d="M414.146 117.277L414.718 414.684L490.619 230.442L414.146 117.277Z" fill="#FFDD55"/>
<path d="M624.655 203.984L414.76 414.686L598.709 338.078L624.655 203.984Z" fill="#FFDD55"/>
<path d="M712.195 414.147L414.787 414.718L599.029 490.619L712.195 414.147Z" fill="#FFDD55"/>
<path d="M625.486 624.654L414.783 414.759L491.391 598.707L625.486 624.654Z" fill="#FFDD55"/>
<path d="M414.753 414.786L491.361 598.735L415.324 712.193L414.753 414.786Z" fill="#E4B911"/>
<path d="M414.711 414.783L338.809 599.025L204.816 625.486L414.711 414.783Z" fill="#E4B911"/>
<path d="M414.684 414.751L230.735 491.36L117.277 415.322L414.684 414.751Z" fill="#E4B911"/>
<path d="M414.686 414.712L230.445 338.811L203.984 204.817L414.686 414.712Z" fill="#E4B911"/>
<path d="M414.718 414.683L338.11 230.734L414.147 117.275L414.718 414.683Z" fill="#E4B911"/>
<path d="M414.76 414.687L490.661 230.445L624.655 203.985L414.76 414.687Z" fill="#E4B911"/>
<path d="M414.786 414.719L598.736 338.111L712.194 414.148L414.786 414.719Z" fill="#E4B911"/>
<path d="M414.785 414.761L599.027 490.662L625.488 624.656L414.785 414.761Z" fill="#E4B911"/>
<path d="M383.203 601.74C486.455 619.164 584.282 549.587 601.706 446.336C619.131 343.084 549.554 245.257 446.302 227.833C343.051 210.408 245.224 279.985 227.799 383.237C210.375 486.488 279.952 584.315 383.203 601.74Z" fill="#1A1A1A" stroke="#805224" stroke-width="0.473649"/>
<path d="M391.821 550.676C466.872 563.341 537.979 512.768 550.644 437.718C563.309 362.668 512.736 291.56 437.686 278.895C362.636 266.23 291.529 316.803 278.863 391.853C266.198 466.903 316.771 538.011 391.821 550.676Z" fill="#C90303" stroke="#805224" stroke-width="0.34428"/>
<path d="M394.717 533.508C460.286 544.573 522.41 500.389 533.475 434.82C544.54 369.251 500.356 307.127 434.787 296.062C369.219 284.997 307.094 329.181 296.029 394.75C284.964 460.318 329.148 522.443 394.717 533.508Z" fill="#990000" stroke="#805224" stroke-width="0.300786"/>
<mask id="mask0" mask-type="alpha" maskUnits="userSpaceOnUse" x="275" y="275" width="279" height="279">
<path d="M394.72 533.51C460.289 544.575 522.413 500.391 533.478 434.822C544.543 369.254 500.359 307.13 434.79 296.064C369.221 284.999 307.097 329.183 296.032 394.752C284.967 460.321 329.151 522.445 394.72 533.51Z" fill="#990000" stroke="#805224" stroke-width="0.300786"/>
</mask>
<g mask="url(#mask0)">
<g style="mix-blend-mode:darken">
<path d="M329.471 515.093L356.268 452.956L338.523 418.034L318.847 384.612L339.601 395.992L341.506 365.127L356.787 375.155L357.553 358.971L359.265 345.105L376.619 357.657L378.031 326.799L393.79 329.662L402.386 317.583L413.35 331.558L429.34 322.468L438.106 347.762C438.106 347.762 452.479 330.379 452.514 332.335C452.548 334.291 457.959 363.56 457.959 363.56L472.069 358.907L476.217 372.047L485.392 365.034L481.456 391.531L504.808 383.778L493.849 400.61L515.753 393.861L508.743 412.581L475.101 447.431L470.039 465.631L501.647 509.607L449.782 510.272L329.471 515.093Z" fill="#4D4D4D" stroke="#4D4D4D" stroke-width="0.194263"/>
<path d="M400.973 318.97L399.809 326.912L405.681 388.18L401.644 389.744L402.168 390.789L406.161 390.928L407.965 391.823L409.763 404.212L408.58 406.316L409.475 408.195L411.719 407.817L412.205 405.557L411.159 404.713L411.261 391.436L412.126 390.347L416.328 390.273L416.312 389.369C416.312 389.369 412.571 388.298 412.457 386.913C412.432 385.524 404.791 326.345 404.791 326.345L400.973 318.97Z" fill="#808080" stroke="#4D4D4D" stroke-width="0.194263"/>
<path d="M357.97 353.222L358.933 361.194L380.654 418.784L377.166 421.351L377.939 422.243L381.832 421.332L383.838 421.716L388.752 433.227L388.141 435.568L389.494 437.144L391.588 436.245L391.547 433.941L390.338 433.393L386.96 420.552L387.527 419.279L391.56 418.114L391.333 417.191C391.333 417.191 387.452 417.259 386.973 415.837C386.634 414.495 363.696 359.395 363.696 359.395L357.97 353.222Z" fill="#808080" stroke="#4D4D4D" stroke-width="0.194263"/>
<path d="M365.553 327.331L366.053 335.343L384.443 394.078L380.816 396.443L381.548 397.357L385.482 396.677L387.428 397.168L391.743 408.918L391.027 411.224L392.298 412.884L394.413 412.048L394.372 409.737L393.183 409.127L390.543 396.116L391.174 394.863L395.27 393.927L395.043 393.047C395.043 393.047 391.161 392.78 390.762 391.44C390.442 390.077 370.762 333.758 370.762 333.758L365.553 327.331Z" fill="#808080" stroke="#4D4D4D" stroke-width="0.194263"/>
<path d="M385.952 321.731L385.483 329.746L396.665 390.27L392.778 392.169L393.385 393.169L397.374 392.887L399.26 393.611L402.06 405.812L401.047 408.008L402.11 409.8L404.327 409.296L404.601 407.005L403.494 406.246L402.439 393.011L403.219 391.86L407.397 391.427L407.418 390.501C407.418 390.501 403.603 389.789 403.367 388.389C403.343 387 390.451 328.721 390.451 328.721L385.952 321.731Z" fill="#808080" stroke="#4D4D4D" stroke-width="0.194263"/>
<path d="M436.313 319.741L433.95 327.416L430.416 388.86L426.187 389.799L426.543 390.908L430.469 391.659L432.11 392.808L431.994 405.327L430.512 407.227L431.116 409.215L433.39 409.175L434.214 407.013L433.313 406.019L435.437 392.914L436.452 391.969L440.616 392.528L440.811 391.619C440.811 391.619 437.278 389.998 437.376 388.605C437.563 387.234 439.033 327.575 439.033 327.575L436.313 319.741Z" fill="#808080" stroke="#4D4D4D" stroke-width="0.194263"/>
<path d="M457.37 321.709L454.101 329.042L443.189 389.615L438.878 390.028L439.11 391.18L442.913 392.398L444.431 393.74L442.735 406.143L441.018 407.836L441.369 409.892L443.622 410.19L444.681 408.151L443.925 407.049L447.616 394.296L448.739 393.497L452.804 394.562L453.126 393.693C453.126 393.693 449.813 391.669 450.081 390.287C450.478 388.954 459.072 329.901 459.072 329.901L457.37 321.709Z" fill="#808080" stroke="#4D4D4D" stroke-width="0.194263"/>
<path d="M338.889 362.343L340.795 370.139L369.298 424.692L366.146 427.663L367.024 428.427L370.776 427.056L372.778 427.232L379.107 438.034L378.812 440.43L380.352 441.834L382.289 440.642L381.89 438.362L380.599 437.986L375.698 425.646L376.095 424.312L379.96 422.666L379.608 421.83C379.608 421.83 375.74 422.257 375.112 421.003C374.563 419.729 345.212 367.771 345.212 367.771L338.889 362.343Z" fill="#808080" stroke="#4D4D4D" stroke-width="0.194263"/>
<path d="M309.216 383.419L312.695 390.656L351.842 438.152L349.373 441.71L350.394 442.281L353.783 440.179L355.778 439.91L364.198 449.175L364.452 451.578L366.259 452.641L367.894 451.076L366.995 448.95L365.665 448.764L358.322 437.702L358.509 436.308L361.951 433.9L361.412 433.172C361.412 433.172 357.716 434.374 356.842 433.253C356.043 432.109 316.6 387.339 316.6 387.339L309.216 383.419Z" fill="#808080" stroke="#4D4D4D" stroke-width="0.194263"/>
<path d="M326.006 370.559L328.59 378.16L361.731 430.027L358.844 433.252L359.783 433.951L363.374 432.181L365.393 432.146L372.58 442.395L372.411 444.813L374.075 446.069L375.947 444.772L375.339 442.546L374.029 442.254L368.069 430.388L368.36 429.037L372.069 427.055L371.717 426.199C371.717 426.199 367.915 426.981 367.169 425.773C366.621 424.499 332.743 375.352 332.743 375.352L326.006 370.559Z" fill="#808080" stroke="#4D4D4D" stroke-width="0.194263"/>
<path d="M367.977 341.861L368.665 349.859L388.516 408.117L384.952 410.578L385.704 411.469L389.624 410.686L391.569 411.134L396.174 422.777L395.519 425.093L396.832 426.711L398.928 425.833L398.887 423.519L397.677 422.929L394.712 409.987L395.3 408.735L399.369 407.674L399.142 406.751C399.142 406.751 395.258 406.587 394.824 405.249C394.486 403.908 373.388 348.086 373.388 348.086L367.977 341.861Z" fill="#808080" stroke="#4D4D4D" stroke-width="0.194263"/>
<path d="M357.391 370.844L359.298 378.642L384.565 427.006C385.04 426.471 385.226 426.258 386.22 425.335C386.512 425.078 386.779 424.779 387.091 424.562C387.735 424.088 388.3 423.887 388.945 423.476C389.237 423.238 389.589 423.044 389.966 422.91C382.096 408.825 363.705 376.271 363.705 376.271L357.391 370.844Z" fill="#808080" stroke="#4D4D4D" stroke-width="0.194263"/>
<path d="M381.676 337.432L381.397 345.456L394.089 405.68L390.249 407.683L390.898 408.662L394.881 408.362L396.788 409.023L399.885 421.155L398.935 423.368L400.039 425.138L402.24 424.573L402.451 422.287L401.343 421.547L399.953 408.343L400.69 407.174L404.858 406.637L404.842 405.71C404.842 405.71 401.011 405.083 400.738 403.699C400.502 402.314 386.338 344.371 386.338 344.371L381.676 337.432Z" fill="#808080" stroke="#4D4D4D" stroke-width="0.194263"/>
<path d="M499.87 367.609L493.516 372.515L455.167 420.662L451.178 418.985L450.819 420.106L453.594 422.985L454.301 424.909L446.927 435.025L444.606 435.697L443.945 437.666L445.779 439.002L447.736 437.789L447.502 436.468L456.804 426.992L458.189 426.756L461.256 429.623L461.939 428.958C461.939 428.958 459.902 425.661 460.871 424.52C461.843 423.535 497.439 375.627 497.439 375.627L499.87 367.609Z" fill="#808080" stroke="#4D4D4D" stroke-width="0.194263"/>
<path d="M482.265 355.885L476.544 361.513L444.276 413.931L440.113 412.741L439.904 413.881L443.002 416.402L443.876 418.218L437.837 429.184L435.63 430.148L435.202 432.198L437.221 433.258L438.983 431.752L438.646 430.453L446.736 419.926L448.078 419.588L451.472 422.064L452.006 421.339C452.006 421.339 449.661 418.236 450.415 417.054C451.237 415.924 480.83 364.114 480.83 364.114L482.265 355.885Z" fill="#808080" stroke="#4D4D4D" stroke-width="0.194263"/>
<path d="M448.972 341.19L444.537 347.883L423.781 405.829L419.461 405.526L419.482 406.704L423.024 408.537L424.272 410.115L420.625 422.093L418.693 423.537L418.73 425.64L420.913 426.234L422.269 424.379L421.743 423.147L427.484 411.175L428.779 410.627L432.613 412.348L432.957 411.522C432.957 411.522 430.033 408.962 430.549 407.635C431.115 406.362 449.384 349.56 449.384 349.56L448.972 341.19Z" fill="#808080" stroke="#4D4D4D" stroke-width="0.194263"/>
<path d="M468.614 349.028L463.407 355.14L435.824 410.161L431.575 409.33L431.385 410.492L434.742 412.671L435.804 414.378L430.68 425.798L428.516 426.89L428.279 428.956L430.359 429.908L431.95 428.239L431.528 426.961L438.668 415.766L439.986 415.322L443.586 417.494L444.14 416.747C444.14 416.747 441.52 413.884 442.173 412.626C442.995 411.496 467.859 357.236 467.859 357.236L468.614 349.028Z" fill="#808080" stroke="#4D4D4D" stroke-width="0.194263"/>
<path d="M510.511 376.009L504.356 380.339L466.693 423.64L462.977 421.975L462.617 422.992L465.147 425.729L465.715 427.487L458.495 436.645L456.302 437.227L455.619 439.027L457.349 440.28L459.197 439.139L459.175 437.896L468.241 429.423L469.548 429.203L472.373 431.928L473.019 431.313C473.019 431.313 471.274 428.157 472.15 427.18C473.069 426.27 508.159 383.141 508.159 383.141L510.511 376.009Z" fill="#808080" stroke="#4D4D4D" stroke-width="0.181357"/>
<path d="M488.416 403.14L481.147 406.549L438.726 440.867C439.343 441.235 439.598 441.358 440.686 442.159C441.004 442.387 441.346 442.59 441.624 442.858C442.223 443.395 442.526 443.916 443.062 444.454C443.363 444.701 443.619 444.99 443.815 445.345C456.069 434.848 484.352 410.391 484.352 410.391L488.416 403.14ZM437.876 453.744C437.876 453.744 437.876 453.744 437.839 453.746C437.876 453.744 437.839 453.747 437.843 453.958C437.841 453.958 437.843 453.958 437.843 453.958L437.876 453.744Z" fill="#808080" stroke="#4D4D4D" stroke-width="0.194263"/>
<path d="M520.328 398.55L513.292 402.419L468.057 444.157L464.37 441.885L463.862 442.946L466.161 446.215L466.575 448.187L457.74 457.059L455.352 457.374L454.396 459.222L456.003 460.814L458.068 459.831L458.045 458.505L468.677 450.548L470.067 450.524L472.663 453.829L473.433 453.331C473.433 453.331 472.001 449.72 473.056 448.776C474.135 447.873 516.649 406.029 516.649 406.029L520.328 398.55Z" fill="#808080" stroke="#4D4D4D" stroke-width="0.194263"/>
<path d="M463.833 376.957L457.427 381.795L421.605 425.842C422.329 426.292 423.052 426.721 423.714 427.236C423.714 427.236 423.97 427.443 423.97 427.461C424.651 427.891 425.224 428.177 425.824 428.777C425.824 428.777 425.828 428.986 426.079 428.982C427.096 429.343 426.442 429.187 427.5 429.568C436.223 418.241 461.486 385.004 461.486 385.004L463.833 376.957ZM417.354 431.925C417.354 431.925 417.35 431.714 417.349 431.629C417.349 431.629 417.093 431.399 417.093 431.422C417.097 431.633 417.371 431.691 417.5 431.857L417.354 431.925ZM415.798 428.473C415.332 428.27 414.929 428.11 414.609 427.863L414.269 428.921L414.273 429.132C414.689 428.829 415.148 428.611 415.694 428.538L415.798 428.473Z" fill="#808080" stroke="#4D4D4D" stroke-width="0.194263"/>
<path d="M414.744 314.928L412.988 322.761L414.286 384.296L410.143 385.547L410.582 386.635L414.555 387.069L416.278 388.092L417.13 400.582L415.798 402.585L416.548 404.529L418.812 404.278L419.467 402.057L418.482 401.128L419.575 387.898L420.504 386.872L424.699 387.112L424.893 386.181C424.893 386.181 421.245 384.836 421.233 383.443C421.42 382.051 418.157 322.471 418.157 322.471L414.744 314.928Z" fill="#808080" stroke="#4D4D4D" stroke-width="0.194263"/>
<path d="M427.926 329.781L424.909 337.221L416.155 398.142L411.862 398.706L412.133 399.847L415.978 400.934L417.541 402.208L416.285 414.666L414.633 416.42L415.063 418.462L417.323 418.684L418.307 416.608L417.52 415.536L420.747 402.655L421.841 401.81L425.94 402.735L426.243 401.861C426.243 401.861 422.86 399.958 423.079 398.564C423.332 397.182 429.92 337.897 429.92 337.897L427.926 329.781Z" fill="#808080" stroke="#4D4D4D" stroke-width="0.194263"/>
<path d="M477.82 392.13L470.88 396.168L431.273 434.367C431.277 434.578 431.528 434.575 431.614 434.614C431.869 434.821 431.934 434.922 432.107 435.088C432.107 435.088 432.107 435.089 432.362 435.295C432.768 435.584 433.091 436.018 433.393 436.434C433.393 436.434 433.393 436.435 433.137 436.229L433.393 436.434C433.395 436.434 433.393 436.434 433.393 436.434C433.395 436.434 433.393 436.434 433.393 436.432C433.671 436.638 433.947 436.822 434.204 437.07C434.524 437.379 434.847 437.733 435.169 438.085C435.169 438.085 435.173 438.296 435.173 438.336C435.177 438.547 435.71 438.959 435.86 439.103C435.457 438.899 435.65 439.107 436.116 439.31C446.67 428.612 474.56 399.769 474.56 399.769L477.82 392.13ZM413.626 453.679C413.626 453.681 413.589 453.681 413.623 453.47C413.624 453.47 413.623 453.47 413.623 453.47L413.626 453.679Z" fill="#808080" stroke="#4D4D4D" stroke-width="0.194263"/>
<path d="M459.637 471.293L457.374 463.586L426.41 410.394L429.428 407.283L428.488 406.562L424.801 408.1L422.802 408.136L416.051 397.591L416.345 395.198L414.743 393.858L412.828 395.07L413.373 397.309L414.642 397.666L420.108 409.765L419.752 411.096L415.962 412.911L416.291 413.769C416.291 413.769 420.135 413.194 420.83 414.298C421.505 415.548 453.135 466.103 453.135 466.103L459.637 471.293Z" fill="#808080" stroke="#4D4D4D" stroke-width="0.194263"/>
<path d="M344.509 379.06L347.095 386.662L376.723 433.03C376.934 433.026 376.93 432.817 377.033 432.752C377.24 432.537 377.407 432.493 377.594 432.362L377.801 432.147C378.174 431.804 378.654 431.585 379.113 431.367L378.906 431.582L379.113 431.367C379.113 431.367 379.112 431.33 379.113 431.367C379.113 431.367 379.15 431.366 379.113 431.367C379.36 431.133 379.61 430.895 379.901 430.7C380.275 430.442 380.671 430.203 381.088 429.964C381.088 429.964 381.298 429.923 381.339 429.959C381.55 429.955 382.048 429.548 382.236 429.439C382.031 429.802 382.239 429.649 382.442 429.224C374.039 416.766 351.271 383.73 351.271 383.73L344.509 379.06Z" fill="#808080" stroke="#4D4D4D" stroke-width="0.194263"/>
<path d="M333.222 399.443L336.701 406.681L372.808 450.493C373.386 449.872 373.965 449.252 374.587 448.694C374.587 448.694 374.794 448.479 374.857 448.477C375.415 447.899 375.805 447.387 376.513 446.912C376.513 446.912 376.724 446.908 376.72 446.697C377.272 445.782 376.926 446.379 377.582 445.42C368.202 434.632 340.605 403.304 340.605 403.304L333.222 399.443ZM377.93 455.863C377.93 455.863 377.718 455.866 377.633 455.868C377.633 455.868 377.363 456.082 377.426 456.081C377.637 456.078 377.737 455.865 377.926 455.758L377.93 455.863ZM374.24 456.707C373.974 457.133 373.706 457.473 373.416 457.752L374.394 458.304L374.605 458.3C374.386 457.841 374.274 457.337 374.305 456.789L374.24 456.707Z" fill="#808080" stroke="#4D4D4D" stroke-width="0.194263"/>
<path d="M413.34 463.771L417.023 456.635L431.344 396.781L435.676 396.704L435.445 395.551L431.711 394.123L430.276 392.716L432.673 380.427L434.54 378.9L434.292 376.82L432.076 376.397L430.931 378.396L431.583 379.541L427.187 392.066L426.021 392.781L422.026 391.483L421.683 392.353C421.683 392.353 424.854 394.597 424.605 395.864C424.229 397.218 412.209 455.641 412.209 455.641L413.34 463.771Z" fill="#808080" stroke="#4D4D4D" stroke-width="0.194263"/>
<path d="M372.833 451.679L377.879 445.431L403.964 389.68L408.24 390.383L408.431 389.201L405.061 387.058L403.895 385.435L408.718 373.88L410.85 372.747L411.066 370.681L408.966 369.792L407.439 371.502L407.882 372.758L401.049 384.141L399.752 384.606L396.103 382.518L395.59 383.263C395.59 383.263 398.25 386.095 397.745 387.295C397.094 388.549 373.565 443.357 373.565 443.357L372.833 451.679Z" fill="#808080" stroke="#4D4D4D" stroke-width="0.194263"/>
<path d="M401.223 474.381L401.082 466.359L384.599 407.059L388.298 404.803L387.628 403.867L383.668 404.422L381.744 403.866L377.812 391.978L378.593 389.711L377.363 388.026L375.215 388.78L375.045 391.109L376.214 391.741L378.423 404.831L377.772 406.042L373.65 406.874L373.878 407.815C373.878 407.815 377.749 408.19 378.106 409.552C378.34 410.895 396.234 467.849 396.234 467.849L401.223 474.381Z" fill="#808080" stroke="#4D4D4D" stroke-width="0.194263"/>
<path d="M411.325 463.342L411.408 456.123L398.799 401.606L402.158 399.884L401.533 399.033L398.007 399.306L396.312 398.662L393.228 387.684L393.993 385.713L393.038 384.045L391.11 384.542L390.936 386.629L391.958 387.285L393.473 399.208L392.86 400.249L389.186 400.673L389.412 401.531C389.412 401.531 392.826 402.166 393.095 403.424C393.328 404.662 407.194 457.174 407.194 457.174L411.325 463.342Z" fill="#808080" stroke="#4D4D4D" stroke-width="0.173449"/>
<path d="M413.493 473.488L415.122 465.63L412.941 404.122L417.064 402.807L416.603 401.72L412.638 401.286L410.894 400.285L409.854 387.811L411.101 385.746L410.288 383.803L408.04 384.054L407.47 386.278L408.412 387.231L407.467 400.47L406.475 401.478L402.278 401.238L402.294 402.121C402.294 402.121 405.96 403.424 405.97 404.838C405.995 406.226 409.984 465.753 409.984 465.753L413.493 473.488Z" fill="#808080" stroke="#4D4D4D" stroke-width="0.194263"/>
<path d="M327.809 515.45L333.874 510.188L369.231 459.804L373.324 461.226L373.683 460.105L370.738 457.402L369.968 455.565L376.656 444.981L378.901 444.121L379.413 442.111L377.416 441.031L375.567 442.454L375.82 443.754L367.101 453.773L365.76 454.048L362.501 451.389L361.967 452.178C361.967 452.178 364.129 455.413 363.308 456.55C362.378 457.577 329.762 507.562 329.762 507.562L327.809 515.45Z" fill="#808080" stroke="#4D4D4D" stroke-width="0.194263"/>
<path d="M506.602 513.418L502.873 506.306L461.948 460.332L464.267 456.673L463.248 456.123L459.942 458.372L457.97 458.704L449.201 449.765L448.885 447.385L447.037 446.427L445.509 448.117L446.473 450.242L447.82 450.218L455.57 461L455.595 462.389L452.26 464.95L452.904 465.656C452.904 465.656 456.549 464.307 457.464 465.364C458.242 466.508 499.418 509.72 499.418 509.72L506.602 513.418Z" fill="#808080" stroke="#4D4D4D" stroke-width="0.194263"/>
<path d="M427.57 475.989L427.428 467.967L441.807 408.122L438.032 405.996L438.668 405.038L442.645 405.452L444.549 404.829L448.058 392.81L447.197 390.571L448.367 388.846L450.54 389.523L450.792 391.845L449.647 392.518L447.9 405.677L448.594 406.865L452.743 407.549L452.549 408.5C452.549 408.5 448.694 409.009 448.385 410.382C448.198 411.733 432.327 469.283 432.327 469.283L427.57 475.989Z" fill="#808080" stroke="#4D4D4D" stroke-width="0.194263"/>
<path d="M397.791 467.047C397.236 467.057 396.682 467.125 396.129 467.155C396.662 484.827 397.404 507.388 397.404 507.388L400.399 514.921L402.345 507.135L402.362 467.809C401.428 467.767 400.551 467.542 399.687 467.159L399.028 467.17C398.815 467.174 398.609 467.099 398.402 467.04L397.791 467.047Z" fill="#808080" stroke="#4D4D4D" stroke-width="0.734222"/>
<path d="M402.358 467.778C402.89 485.345 403.61 507.271 403.61 507.271L406.605 514.803L408.549 507.017L408.568 467.711C408.296 467.716 408.026 467.72 407.754 467.725C406.934 467.74 406.472 467.748 405.629 467.763C405.208 467.79 404.765 467.778 404.344 467.785C403.924 467.793 403.504 467.8 403.083 467.808C402.836 467.812 402.596 467.796 402.358 467.771L402.358 467.778Z" fill="#808080" stroke="#4D4D4D" stroke-width="0.734222"/>
<path d="M412.688 467.643C411.762 467.659 410.839 467.685 409.907 467.692C409.35 467.692 408.793 467.712 408.235 467.721C408.769 485.316 409.488 507.172 409.488 507.172L412.482 514.704L414.429 506.918L414.446 467.61C413.859 467.62 413.274 467.631 412.688 467.641L412.688 467.643Z" fill="#808080" stroke="#4D4D4D" stroke-width="0.734222"/>
<path d="M413.048 467.634L404.838 506.222L405.19 514.241L409.658 507.544C409.658 507.544 415.271 484.773 419.49 467.522C419.098 467.529 418.705 467.536 418.313 467.543C416.563 467.573 414.804 467.604 413.048 467.636L413.048 467.634Z" fill="#808080" stroke="#4D4D4D" stroke-width="0.734222"/>
<path d="M415.111 467.597L416.516 506.88L418.736 514.593L421.463 506.959C421.463 506.959 421.41 485.092 421.322 467.489C420.323 467.507 419.322 467.525 418.322 467.542C417.255 467.561 416.183 467.58 415.111 467.599L415.111 467.597Z" fill="#808080" stroke="#4D4D4D" stroke-width="0.734222"/>
<path d="M421.934 467.477C422.468 485.072 423.187 506.927 423.187 506.927L426.183 514.46L428.128 506.674L428.145 467.368L423.48 467.45C422.963 467.459 422.449 467.468 421.934 467.477V467.477Z" fill="#808080" stroke="#4D4D4D" stroke-width="0.734222"/>
<path d="M427.819 467.372C428.353 484.967 429.072 506.822 429.072 506.822L432.066 514.355L434.011 506.569L434.03 467.262L430.17 467.331L427.819 467.372Z" fill="#808080" stroke="#4D4D4D" stroke-width="0.734222"/>
<path d="M433.694 467.267C434.228 484.861 434.946 506.715 434.946 506.715L437.941 514.248L439.887 506.46L439.904 467.157L437.992 467.191L435.631 467.233L433.694 467.267Z" fill="#808080" stroke="#4D4D4D" stroke-width="0.734222"/>
<path d="M444.419 466.607C443.963 466.813 443.344 467.004 442.885 467.112L442.107 467.126L440.574 467.153L441.979 506.428L444.197 514.141L446.926 506.507C446.926 506.507 446.874 484.895 446.787 467.342C446.66 467.403 446.535 467.491 446.401 467.494C445.413 467.511 445.095 467.305 444.43 466.622C444.421 466.623 444.421 466.623 444.419 466.613L444.419 466.607ZM446.785 467.263C446.757 467.264 446.795 467.263 446.786 467.273C446.786 467.273 446.786 467.273 446.785 467.263Z" fill="#808080" stroke="#4D4D4D" stroke-width="0.734222"/>
<path d="M384.624 468.248C385.297 468.236 384.838 468.455 385.107 468.24L384.624 468.248ZM387.583 468.452L387.571 468.452C387.581 468.452 387.571 468.452 387.583 468.462C387.605 468.461 387.583 468.462 387.583 468.452ZM387.297 468.606C387.107 468.698 386.916 468.756 386.706 468.802C385.974 469.026 386.054 468.804 385.571 468.822L385.571 468.841L385.256 468.847C384.772 468.865 384.289 468.864 383.805 468.873C383.205 468.883 382.948 468.907 382.784 468.831C383.316 486.396 384.034 508.257 384.034 508.257L387.029 515.789L388.975 508.003L388.993 468.944C388.795 468.908 388.596 468.872 388.4 468.837C388.064 468.843 387.724 468.639 387.408 468.624C387.371 468.624 387.334 468.616 387.297 468.606V468.606Z" fill="#808080" stroke="#4D4D4D" stroke-width="0.734222"/>
<path d="M395.75 467.129C395.603 467.19 395.432 467.233 394.617 467.491C394.259 467.497 393.927 467.715 393.57 467.743C393.404 467.746 393.243 467.779 393.085 467.801C392.602 468.186 392.522 468.217 392.108 468.338L391.583 468.347C390.976 468.482 390.36 468.467 389.747 468.389L391.141 507.327L393.361 515.041L396.088 507.407C396.088 507.407 396.033 484.818 395.941 467.135C395.877 467.136 395.814 467.137 395.75 467.138L395.75 467.129Z" fill="#808080" stroke="#4D4D4D" stroke-width="0.734222"/>
<path d="M447.009 470.054C440.544 468.589 433.965 471.525 427.429 469.957C414.632 469.383 401.808 470.915 389.061 470.298C383.138 472.569 378.332 463.585 386.408 463.966C394.508 465.192 402.237 461.481 410.384 462.007C421.093 462.449 431.851 463.227 442.516 463.784C445.414 464.029 448.685 466.835 445.955 469.502" fill="#333333"/>
<path d="M447.009 470.054C440.544 468.589 433.965 471.525 427.429 469.957C414.632 469.383 401.808 470.915 389.061 470.298C383.138 472.569 378.332 463.585 386.408 463.966C394.508 465.192 402.237 461.481 410.384 462.007C421.093 462.449 431.851 463.227 442.516 463.784C445.414 464.029 448.685 466.835 445.955 469.502" stroke="#4D4D4D" stroke-width="0.196625"/>
<path d="M381.501 514.997L383.152 508.392L383.178 456.226L386.711 455.214L386.381 454.295L383.022 453.85L381.574 452.948L381.072 442.347L382.221 440.664L381.603 439.012L379.67 439.258L379.073 441.141L379.887 441.927L378.716 453.12L377.91 453.976L374.354 453.723L374.368 454.523C374.368 454.523 377.442 455.71 377.425 456.906C377.235 458.067 378.969 508.629 378.969 508.629L381.501 514.997Z" fill="#808080" stroke="#4D4D4D" stroke-width="0.164646"/>
<path d="M449.346 513.264L450.998 506.661L451.024 454.495L454.557 453.485L454.226 452.564L450.867 452.119L449.419 451.219L448.918 440.618L450.067 438.935L449.448 437.283L447.516 437.528L446.918 439.411L447.732 440.198L446.561 451.391L445.756 452.247L442.2 451.995L442.214 452.796C442.214 452.796 445.29 453.983 445.271 455.178C445.08 456.34 446.816 506.901 446.816 506.901L449.346 513.264Z" fill="#808080" stroke="#4D4D4D" stroke-width="0.164646"/>
</g>
</g>
<mask id="mask1" mask-type="alpha" maskUnits="userSpaceOnUse" x="367" y="339" width="313" height="373">
<path d="M367 589.28L372.235 339L669.577 339L679 589.28L629.792 644.782L523.514 711.803L422.49 644.782L367 589.28Z" fill="#FADE29"/>
</mask>
<g mask="url(#mask1)">
<path d="M609.371 612.492L616.225 627.988L614.262 732.46L606.785 726.23L594.322 726.837L587.643 738.095L578.068 654.463L593.255 602.757L605.104 607.187L609.371 612.492Z" fill="#111214" stroke="black" stroke-width="0.101702"/>
<path d="M591.151 546.751L611.635 567.806L607.842 571.244L592.668 569.095L577.115 580.697L568.391 588.002L558.148 589.291L546.009 579.838L542.595 575.111L565.735 542.883L591.151 546.751Z" fill="#383A39" stroke="black" stroke-width="0.120428"/>
<path d="M612.693 590.724L620.956 625.243L616.411 635.422L612.28 621.26L602.777 619.933L578.401 626.571L570.551 602.23L584.598 589.395L612.693 590.724Z" fill="#1A1A1A" stroke="black" stroke-width="0.127548"/>
<path d="M608.757 571.778L615.965 595.411L604.585 594.122L587.135 600.568L581.065 610.881L570.823 602.716L557.22 602.976L551.946 602.109L548.443 582.091L593.963 563.614L608.757 571.778Z" fill="#282928" stroke="black" stroke-width="0.120428"/>
<path d="M484.407 613.674L458.547 657.594L468.409 699.27L520.583 716.131L580.711 716.131L582.3 638.976L587.236 600.704L579.836 570.583L492.962 584.148L484.407 613.674Z" fill="#212524" stroke="black" stroke-width="0.10314"/>
<path d="M537.116 580.398L551.937 590.274L569.659 567.456L572.558 543.616L550.971 535.442L494.262 541.573L501.028 564.391L537.116 580.398Z" fill="#232524" stroke="black" stroke-width="0.0988107"/>
<path d="M548.706 519.302L548.495 538.703L534.425 542.796L527.915 543.152L513.844 533.186L504.184 529.092L503.764 518.769L548.706 519.302Z" fill="#E1B693" stroke="#A66A39" stroke-width="0.0815549"/>
<path d="M494.381 478.425L487.945 481.15L488.902 496.835L497.25 501.504L494.381 478.425Z" fill="#E1B693" stroke="#A66A39" stroke-width="0.0963704"/>
<path d="M492.935 470.932L497.226 509.079L510.71 528.153C510.71 528.153 526.8 533.773 528.025 533.773C529.251 533.773 543.502 531.048 543.502 531.048L554.841 506.354L554.535 469.91L545.647 445.387L527.566 437.553L505.194 440.278L493.854 452.88L492.935 470.932Z" fill="#E1B693" stroke="#A66A39" stroke-width="0.0963704"/>
<path d="M494.229 482.341L486.392 475.57L483.286 461.336L487.345 443.898L500.523 430.274L526.244 425.674L549.954 433.191L561.503 447.82L562.968 466.446L561.435 476.323L556.226 479.729L549.79 466.446L541.822 453.162L530.482 449.416L511.481 451.8L499.223 459.293L494.229 482.341Z" fill="#C1A983" stroke="#C9C298" stroke-width="0.0963704"/>
<path d="M554.421 476.237L560.857 479.643L559.631 495.311L554.873 497.437L554.421 476.237Z" fill="#E1B693" stroke="#A66A39" stroke-width="0.0963704"/>
<path d="M502.198 524.578L513.135 528.672L524.526 537.823L528.855 543.604L544.348 539.269L547.538 533.729L548.677 527.228L554.145 528.431L552.094 541.436L539.336 547.216L521.792 544.326L503.11 537.823L498.781 533.97L500.148 525.3L502.198 524.578Z" fill="#14222B" stroke="black" stroke-width="0.0988107"/>
<path d="M553.917 532.766L558.018 539.269L555.967 548.902L532.273 554.922L507.666 546.976L507.211 539.991L497.87 533.97L539.791 547.216L553.917 532.766Z" fill="#363A46" stroke="black" stroke-width="0.0988107"/>
<path d="M554.601 533.248L580.574 543.845L584.903 569.854L578.979 585.025L557.79 584.543L555.056 574.911L558.474 565.278L562.803 560.221L563.693 542.882L554.601 533.248Z" fill="#252525" stroke="black" stroke-width="0.0988107"/>
<path d="M497.184 567.459L466.622 605.899L465.773 625.12L464.933 625.15C464.932 625.15 464.933 625.173 464.933 625.179C464.902 625.466 464.839 625.746 464.766 626.022L486.573 630.032L489.545 623.775L494.214 611.707L499.653 599.112L510.166 581.395C510.166 581.395 500.701 571.238 497.184 567.459V567.459ZM441.265 636.519L441.152 636.739L441.285 636.621C441.285 636.587 441.265 636.551 441.265 636.519Z" fill="#1E272E" stroke="black" stroke-width="0.129928"/>
<path d="M455.266 548.678L434.782 569.732L438.575 573.171L453.749 571.022L469.302 582.624L478.026 589.929L488.269 591.218L500.407 581.765L503.821 577.038L480.682 544.81L455.266 548.678Z" fill="#383A39" stroke="black" stroke-width="0.120428"/>
<path d="M498.097 533.729L462.783 547.698L462.555 551.551L470.074 550.106L477.364 552.514L489.212 559.979L498.553 569.372L512.223 583.821L521.42 589.498L530.526 593.89L541.268 579.664L538.676 569.911L519.058 562.147L510.401 551.069L507.439 545.771L507.439 539.751L498.097 533.729Z" fill="#252525" stroke="black" stroke-width="0.0988107"/>
<path d="M566.22 540.954L566.448 561.424L560.98 570.335L560.297 577.318L562.803 580.93L576.017 581.171L581.485 570.575L578.523 549.864L576.929 543.844L566.22 540.954Z" fill="#2B292C" stroke="#7B7A82" stroke-width="0.0988107"/>
<path d="M477.82 547.698C479.415 547.457 496.502 559.738 496.502 559.738C496.502 559.738 507.439 572.261 508.35 573.224C509.261 574.188 520.653 584.303 520.653 584.303L528.855 587.434L535.007 579.727L535.007 571.78L523.159 567.445L513.818 561.184L504.021 545.049L501.059 538.788L497.642 538.788L477.82 547.698Z" stroke="#7B7A82" stroke-width="0.0988107"/>
<path d="M580.775 684.783L515.367 684.783L515.367 695.511L580.775 695.511L580.775 684.783Z" fill="#7E654A" stroke="#7B7A82" stroke-width="0.0616205"/>
<path d="M532.5 724.942L524.754 741.078L527.032 748.061L532.5 753.6L543.209 750.951L545.031 744.689L539.336 741.319L542.981 736.502L544.12 728.314L563.73 687.934L551.655 683.117L532.5 724.942Z" fill="#796254" stroke="black" stroke-width="0.0988107"/>
<path d="M432.889 633.44L438.381 650.845L513.399 719.207L514.913 707.41L525.166 695.148L538.348 695.939L487.083 629.881L438.748 610.498L432.522 625.529L432.889 633.44Z" fill="#111214" stroke="black" stroke-width="0.113523"/>
<path d="M433.724 592.65L425.461 627.17L430.006 637.348L434.137 623.187L443.64 621.859L468.016 628.498L475.866 604.157L461.818 591.322L433.724 592.65Z" fill="#1A1A1A" stroke="black" stroke-width="0.127548"/>
<path d="M437.66 573.705L430.452 597.338L441.832 596.049L459.282 602.495L465.351 612.808L475.593 604.643L489.197 604.903L494.471 604.035L497.974 584.018L452.454 565.541L437.66 573.705Z" fill="#282928" stroke="black" stroke-width="0.120428"/>
<path d="M526.349 696.044L545.493 693.809L560.959 703.175L548.393 730.081L521.972 722.417L513.917 714.584L519.072 698.918L526.349 696.044Z" fill="#E1B693" stroke="#A66A39" stroke-width="0.0988107"/>
<path d="M535.007 670.275L568.271 700.138C568.271 700.138 580.802 708.085 581.941 707.122C583.08 706.158 586.726 703.51 586.726 702.305C586.726 701.101 582.169 696.044 582.169 696.044L574.65 695.562L548.905 673.406L544.12 669.072L542.298 659.68L536.829 661.848L534.095 666.423L535.007 670.275Z" fill="#928072" stroke="black" stroke-width="0.0988107"/>
<path d="M552.542 679.632L607.921 539.084L630.014 487.011L657.81 436.438L641.862 491.827L622.29 545.274L566.452 689.95L552.542 679.632Z" fill="#B7B09E" stroke="#5E5D58" stroke-width="0.0988107"/>
<path d="M551.171 680.19C551.693 679.665 556.661 676.456 556.661 676.456L563.929 679.448L566.177 687.803L558.2 691.094L555.179 691.715L551.926 689.205L551.171 680.19Z" fill="#796254" stroke="black" stroke-width="0.0988107"/>
<path d="M496.034 464.943C493.328 465.255 486.729 461.796 492.718 464.732C493.77 465.115 494.949 465.351 496.034 464.943Z" fill="#C9C298"/>
<g opacity="0.405">
<path opacity="0.405" d="M498.098 457.75C497.177 453.997 490.29 448.661 492.266 446.887C494.881 450.401 494.341 456.301 498.668 458.353" fill="#5B5542"/>
<path opacity="0.405" d="M512.337 449.804C511.68 447.229 510.295 438.325 510.583 440.514C511.353 443.994 512.876 447.286 513.135 450.888" fill="#5B5542"/>
<path opacity="0.405" d="M526.463 447.877C527.321 444.157 525.468 435.834 527.107 435.017C527.857 439.364 528.137 443.886 527.253 448.237" fill="#5B5542"/>
<path opacity="0.405" d="M536.943 447.877C541.826 449.232 541.791 432.789 542.485 442.409C541.829 445.696 538.958 447.616 536.83 449.804" fill="#5B5542"/>
<path opacity="0.405" d="M550.347 462.219C552.616 458.899 558.128 452.484 555.033 449.41C555.164 454.433 549.661 459.689 550.347 462.219Z" fill="#5B5542"/>
</g>
</g>
</svg>
