<svg width="830" height="830" viewBox="0 0 830 830" fill="none" xmlns="http://www.w3.org/2000/svg">
<path d="M178.86 524.77L245.057 420.918L175.11 319.555L295.352 292.93L317.568 171.794L421.419 237.991L522.783 168.044L549.408 288.287L670.543 310.502L604.346 414.353L674.293 515.717L554.051 542.343L531.836 663.477L427.985 597.28L326.621 667.228L299.995 546.985L178.86 524.77Z" fill="#FFCC00" stroke="#805224" stroke-width="0.457877"/>
<path d="M415.325 712.193L414.753 414.786L338.852 599.027L415.325 712.193Z" fill="#FFDD55"/>
<path d="M204.819 625.485L414.714 414.782L230.765 491.39L204.819 625.485Z" fill="#FFDD55"/>
<path d="M117.279 415.323L414.686 414.752L230.444 338.851L117.279 415.323Z" fill="#FFDD55"/>
<path d="M203.985 204.817L414.688 414.712L338.079 230.763L203.985 204.817Z" fill="#FFDD55"/>
<path d="M414.146 117.277L414.718 414.684L490.619 230.442L414.146 117.277Z" fill="#FFDD55"/>
<path d="M624.655 203.984L414.76 414.686L598.709 338.078L624.655 203.984Z" fill="#FFDD55"/>
<path d="M712.195 414.147L414.787 414.718L599.029 490.619L712.195 414.147Z" fill="#FFDD55"/>
<path d="M625.486 624.654L414.783 414.759L491.391 598.707L625.486 624.654Z" fill="#FFDD55"/>
<path d="M414.753 414.786L491.361 598.735L415.324 712.193L414.753 414.786Z" fill="#E4B911"/>
<path d="M414.711 414.783L338.809 599.025L204.816 625.486L414.711 414.783Z" fill="#E4B911"/>
<path d="M414.684 414.751L230.735 491.36L117.277 415.322L414.684 414.751Z" fill="#E4B911"/>
<path d="M414.686 414.712L230.445 338.811L203.984 204.817L414.686 414.712Z" fill="#E4B911"/>
<path d="M414.718 414.683L338.109 230.734L414.147 117.275L414.718 414.683Z" fill="#E4B911"/>
<path d="M414.76 414.687L490.661 230.445L624.655 203.985L414.76 414.687Z" fill="#E4B911"/>
<path d="M414.786 414.719L598.736 338.111L712.194 414.148L414.786 414.719Z" fill="#E4B911"/>
<path d="M414.785 414.761L599.027 490.662L625.488 624.656L414.785 414.761Z" fill="#E4B911"/>
<path d="M383.203 601.74C486.455 619.164 584.282 549.587 601.706 446.336C619.131 343.084 549.554 245.257 446.302 227.833C343.051 210.408 245.224 279.985 227.799 383.237C210.375 486.488 279.952 584.315 383.203 601.74Z" fill="#1A1A1A" stroke="#805224" stroke-width="0.473649"/>
<path d="M391.822 550.676C466.872 563.341 537.979 512.768 550.644 437.718C563.309 362.668 512.736 291.56 437.686 278.895C362.636 266.23 291.529 316.803 278.863 391.853C266.198 466.903 316.771 538.011 391.822 550.676Z" fill="#C90303" stroke="#805224" stroke-width="0.34428"/>
<path d="M394.717 533.508C460.286 544.573 522.41 500.389 533.475 434.82C544.54 369.251 500.356 307.127 434.787 296.062C369.219 284.997 307.094 329.181 296.029 394.75C284.964 460.318 329.148 522.443 394.717 533.508Z" fill="#990000" stroke="#805224" stroke-width="0.300786"/>
<mask id="mask0" mask-type="alpha" maskUnits="userSpaceOnUse" x="275" y="275" width="279" height="279">
<path d="M394.72 533.51C460.289 544.575 522.413 500.391 533.478 434.822C544.543 369.254 500.359 307.13 434.79 296.064C369.221 284.999 307.097 329.183 296.032 394.752C284.967 460.321 329.151 522.445 394.72 533.51Z" fill="#990000" stroke="#805224" stroke-width="0.300786"/>
</mask>
<g mask="url(#mask0)">
<g style="mix-blend-mode:darken">
<path d="M329.471 515.093L356.268 452.956L338.523 418.034L318.847 384.612L339.601 395.992L341.506 365.127L356.787 375.155L357.554 358.971L359.265 345.105L376.619 357.657L378.031 326.799L393.79 329.662L402.386 317.583L413.35 331.558L429.34 322.468L438.106 347.762C438.106 347.762 452.479 330.379 452.514 332.335C452.549 334.291 457.959 363.56 457.959 363.56L472.069 358.907L476.217 372.047L485.392 365.034L481.456 391.531L504.808 383.778L493.849 400.61L515.753 393.861L508.743 412.581L475.101 447.431L470.04 465.631L501.647 509.607L449.782 510.272L329.471 515.093Z" fill="#4D4D4D" stroke="#4D4D4D" stroke-width="0.194263"/>
<path d="M400.973 318.97L399.809 326.912L405.681 388.18L401.644 389.744L402.168 390.789L406.161 390.928L407.965 391.823L409.763 404.212L408.58 406.316L409.475 408.195L411.719 407.817L412.205 405.557L411.159 404.713L411.262 391.436L412.126 390.347L416.328 390.273L416.312 389.369C416.312 389.369 412.572 388.298 412.457 386.913C412.432 385.524 404.791 326.345 404.791 326.345L400.973 318.97Z" fill="#808080" stroke="#4D4D4D" stroke-width="0.194263"/>
<path d="M357.97 353.222L358.933 361.194L380.654 418.784L377.166 421.351L377.939 422.243L381.832 421.332L383.838 421.716L388.752 433.227L388.141 435.568L389.494 437.144L391.588 436.245L391.547 433.941L390.338 433.393L386.96 420.552L387.527 419.279L391.561 418.114L391.333 417.191C391.333 417.191 387.452 417.259 386.973 415.837C386.634 414.495 363.696 359.395 363.696 359.395L357.97 353.222Z" fill="#808080" stroke="#4D4D4D" stroke-width="0.194263"/>
<path d="M365.553 327.331L366.053 335.343L384.444 394.078L380.816 396.443L381.548 397.357L385.483 396.677L387.428 397.168L391.744 408.918L391.027 411.224L392.298 412.884L394.413 412.048L394.372 409.737L393.183 409.127L390.543 396.116L391.174 394.863L395.27 393.927L395.043 393.047C395.043 393.047 391.161 392.78 390.763 391.44C390.442 390.077 370.762 333.758 370.762 333.758L365.553 327.331Z" fill="#808080" stroke="#4D4D4D" stroke-width="0.194263"/>
<path d="M385.952 321.731L385.484 329.746L396.665 390.27L392.778 392.169L393.385 393.169L397.374 392.887L399.26 393.611L402.06 405.812L401.047 408.008L402.11 409.8L404.328 409.296L404.602 407.005L403.494 406.246L402.44 393.011L403.219 391.86L407.397 391.427L407.418 390.501C407.418 390.501 403.603 389.789 403.367 388.389C403.343 387 390.451 328.721 390.451 328.721L385.952 321.731Z" fill="#808080" stroke="#4D4D4D" stroke-width="0.194263"/>
<path d="M436.314 319.741L433.95 327.416L430.416 388.86L426.187 389.799L426.543 390.908L430.469 391.659L432.11 392.808L431.994 405.327L430.512 407.227L431.116 409.215L433.39 409.175L434.214 407.013L433.313 406.019L435.438 392.914L436.452 391.969L440.616 392.528L440.812 391.619C440.812 391.619 437.278 389.998 437.376 388.605C437.563 387.234 439.033 327.575 439.033 327.575L436.314 319.741Z" fill="#808080" stroke="#4D4D4D" stroke-width="0.194263"/>
<path d="M457.37 321.709L454.101 329.042L443.189 389.615L438.878 390.028L439.11 391.18L442.913 392.398L444.432 393.74L442.735 406.143L441.018 407.836L441.369 409.892L443.622 410.19L444.681 408.151L443.925 407.049L447.616 394.296L448.739 393.497L452.804 394.562L453.126 393.693C453.126 393.693 449.813 391.669 450.081 390.287C450.478 388.954 459.072 329.901 459.072 329.901L457.37 321.709Z" fill="#808080" stroke="#4D4D4D" stroke-width="0.194263"/>
<path d="M338.89 362.343L340.795 370.139L369.298 424.692L366.147 427.663L367.024 428.427L370.776 427.056L372.778 427.232L379.107 438.034L378.812 440.43L380.352 441.834L382.289 440.642L381.89 438.362L380.599 437.986L375.698 425.646L376.095 424.312L379.96 422.666L379.608 421.83C379.608 421.83 375.741 422.257 375.112 421.003C374.564 419.729 345.212 367.771 345.212 367.771L338.89 362.343Z" fill="#808080" stroke="#4D4D4D" stroke-width="0.194263"/>
<path d="M309.216 383.419L312.695 390.656L351.842 438.152L349.373 441.71L350.394 442.281L353.783 440.179L355.778 439.91L364.198 449.175L364.452 451.578L366.259 452.641L367.895 451.076L366.995 448.95L365.665 448.764L358.322 437.702L358.509 436.308L361.951 433.9L361.412 433.172C361.412 433.172 357.717 434.374 356.842 433.253C356.043 432.109 316.6 387.339 316.6 387.339L309.216 383.419Z" fill="#808080" stroke="#4D4D4D" stroke-width="0.194263"/>
<path d="M326.006 370.559L328.59 378.16L361.732 430.027L358.844 433.252L359.783 433.951L363.374 432.181L365.393 432.146L372.58 442.395L372.411 444.813L374.075 446.069L375.947 444.772L375.339 442.546L374.029 442.254L368.069 430.388L368.36 429.037L372.07 427.055L371.717 426.199C371.717 426.199 367.915 426.981 367.169 425.773C366.621 424.499 332.743 375.352 332.743 375.352L326.006 370.559Z" fill="#808080" stroke="#4D4D4D" stroke-width="0.194263"/>
<path d="M367.977 341.861L368.666 349.859L388.516 408.117L384.952 410.578L385.704 411.469L389.624 410.686L391.569 411.134L396.174 422.777L395.52 425.093L396.832 426.711L398.928 425.833L398.887 423.519L397.677 422.929L394.713 409.987L395.3 408.735L399.369 407.674L399.142 406.751C399.142 406.751 395.258 406.587 394.824 405.249C394.486 403.908 373.389 348.086 373.389 348.086L367.977 341.861Z" fill="#808080" stroke="#4D4D4D" stroke-width="0.194263"/>
<path d="M357.392 370.844L359.298 378.642L384.566 427.006C385.04 426.471 385.226 426.258 386.221 425.335C386.512 425.078 386.779 424.779 387.091 424.562C387.735 424.088 388.3 423.887 388.945 423.476C389.237 423.238 389.59 423.044 389.966 422.91C382.096 408.825 363.705 376.271 363.705 376.271L357.392 370.844Z" fill="#808080" stroke="#4D4D4D" stroke-width="0.194263"/>
<path d="M381.677 337.432L381.397 345.456L394.089 405.68L390.25 407.683L390.899 408.662L394.881 408.362L396.788 409.023L399.885 421.155L398.935 423.368L400.039 425.138L402.24 424.573L402.451 422.287L401.343 421.547L399.953 408.343L400.69 407.174L404.858 406.637L404.842 405.71C404.842 405.71 401.011 405.083 400.738 403.699C400.502 402.314 386.338 344.371 386.338 344.371L381.677 337.432Z" fill="#808080" stroke="#4D4D4D" stroke-width="0.194263"/>
<path d="M499.87 367.609L493.516 372.515L455.167 420.662L451.178 418.985L450.819 420.106L453.594 422.985L454.301 424.909L446.927 435.025L444.606 435.697L443.946 437.666L445.779 439.002L447.736 437.789L447.502 436.468L456.804 426.992L458.189 426.756L461.256 429.623L461.939 428.958C461.939 428.958 459.902 425.661 460.871 424.52C461.843 423.535 497.439 375.627 497.439 375.627L499.87 367.609Z" fill="#808080" stroke="#4D4D4D" stroke-width="0.194263"/>
<path d="M482.265 355.885L476.544 361.513L444.276 413.931L440.113 412.741L439.904 413.881L443.002 416.402L443.876 418.218L437.837 429.184L435.63 430.148L435.202 432.198L437.221 433.258L438.983 431.752L438.646 430.453L446.736 419.926L448.078 419.588L451.472 422.064L452.007 421.339C452.007 421.339 449.661 418.236 450.415 417.054C451.237 415.924 480.831 364.114 480.831 364.114L482.265 355.885Z" fill="#808080" stroke="#4D4D4D" stroke-width="0.194263"/>
<path d="M448.972 341.19L444.537 347.883L423.781 405.829L419.461 405.526L419.482 406.704L423.024 408.537L424.272 410.115L420.625 422.093L418.693 423.537L418.73 425.64L420.913 426.234L422.27 424.379L421.743 423.147L427.484 411.175L428.779 410.627L432.613 412.348L432.957 411.522C432.957 411.522 430.033 408.962 430.549 407.635C431.116 406.362 449.384 349.56 449.384 349.56L448.972 341.19Z" fill="#808080" stroke="#4D4D4D" stroke-width="0.194263"/>
<path d="M468.615 349.028L463.408 355.14L435.824 410.161L431.575 409.33L431.385 410.492L434.743 412.671L435.804 414.378L430.68 425.798L428.517 426.89L428.279 428.956L430.359 429.908L431.95 428.239L431.528 426.961L438.668 415.766L439.986 415.322L443.586 417.494L444.14 416.747C444.14 416.747 441.52 413.884 442.173 412.626C442.995 411.496 467.859 357.236 467.859 357.236L468.615 349.028Z" fill="#808080" stroke="#4D4D4D" stroke-width="0.194263"/>
<path d="M510.511 376.009L504.356 380.339L466.693 423.64L462.977 421.975L462.617 422.992L465.147 425.729L465.715 427.487L458.495 436.645L456.302 437.227L455.619 439.027L457.349 440.28L459.197 439.139L459.175 437.896L468.241 429.423L469.548 429.203L472.373 431.928L473.019 431.313C473.019 431.313 471.274 428.157 472.15 427.18C473.069 426.27 508.159 383.141 508.159 383.141L510.511 376.009Z" fill="#808080" stroke="#4D4D4D" stroke-width="0.181357"/>
<path d="M488.417 403.14L481.147 406.549L438.726 440.867C439.343 441.235 439.598 441.358 440.686 442.159C441.004 442.387 441.346 442.59 441.624 442.858C442.223 443.395 442.527 443.916 443.062 444.454C443.363 444.701 443.619 444.99 443.815 445.345C456.069 434.848 484.352 410.391 484.352 410.391L488.417 403.14ZM437.876 453.744C437.876 453.744 437.876 453.744 437.839 453.746C437.876 453.744 437.839 453.747 437.843 453.958C437.841 453.958 437.843 453.958 437.843 453.958L437.876 453.744Z" fill="#808080" stroke="#4D4D4D" stroke-width="0.194263"/>
<path d="M520.328 398.55L513.292 402.419L468.057 444.157L464.37 441.885L463.863 442.946L466.162 446.215L466.575 448.187L457.74 457.059L455.352 457.374L454.396 459.222L456.003 460.814L458.068 459.831L458.045 458.505L468.677 450.548L470.067 450.524L472.663 453.829L473.433 453.331C473.433 453.331 472.001 449.72 473.056 448.776C474.135 447.873 516.649 406.029 516.649 406.029L520.328 398.55Z" fill="#808080" stroke="#4D4D4D" stroke-width="0.194263"/>
<path d="M463.833 376.957L457.428 381.795L421.605 425.842C422.329 426.292 423.052 426.721 423.714 427.236C423.714 427.236 423.97 427.443 423.97 427.461C424.652 427.891 425.225 428.177 425.824 428.777C425.824 428.777 425.828 428.986 426.079 428.982C427.096 429.343 426.442 429.187 427.5 429.568C436.223 418.241 461.486 385.004 461.486 385.004L463.833 376.957ZM417.354 431.925C417.354 431.925 417.35 431.714 417.349 431.629C417.349 431.629 417.093 431.399 417.093 431.422C417.097 431.633 417.371 431.691 417.5 431.857L417.354 431.925ZM415.798 428.473C415.332 428.27 414.929 428.11 414.609 427.863L414.269 428.921L414.273 429.132C414.689 428.829 415.148 428.611 415.694 428.538L415.798 428.473Z" fill="#808080" stroke="#4D4D4D" stroke-width="0.194263"/>
<path d="M414.744 314.928L412.988 322.761L414.286 384.296L410.143 385.547L410.582 386.635L414.555 387.069L416.278 388.092L417.13 400.582L415.798 402.585L416.548 404.529L418.812 404.278L419.467 402.057L418.482 401.128L419.575 387.898L420.504 386.872L424.699 387.112L424.893 386.181C424.893 386.181 421.245 384.836 421.234 383.443C421.42 382.051 418.157 322.471 418.157 322.471L414.744 314.928Z" fill="#808080" stroke="#4D4D4D" stroke-width="0.194263"/>
<path d="M427.926 329.781L424.909 337.221L416.155 398.142L411.862 398.706L412.133 399.847L415.978 400.934L417.541 402.208L416.285 414.666L414.633 416.42L415.063 418.462L417.323 418.684L418.307 416.608L417.52 415.536L420.747 402.655L421.841 401.81L425.94 402.735L426.243 401.861C426.243 401.861 422.86 399.958 423.079 398.564C423.332 397.182 429.92 337.897 429.92 337.897L427.926 329.781Z" fill="#808080" stroke="#4D4D4D" stroke-width="0.194263"/>
<path d="M477.82 392.13L470.88 396.168L431.274 434.367C431.277 434.578 431.528 434.575 431.614 434.614C431.869 434.821 431.934 434.922 432.107 435.088C432.107 435.088 432.107 435.089 432.363 435.295C432.768 435.584 433.091 436.018 433.393 436.434C433.393 436.434 433.393 436.435 433.137 436.229L433.393 436.434C433.395 436.434 433.393 436.434 433.393 436.434C433.395 436.434 433.393 436.434 433.393 436.432C433.671 436.638 433.947 436.822 434.204 437.07C434.524 437.379 434.847 437.733 435.169 438.085C435.169 438.085 435.173 438.296 435.174 438.336C435.177 438.547 435.711 438.959 435.86 439.103C435.457 438.899 435.65 439.107 436.116 439.31C446.671 428.612 474.56 399.769 474.56 399.769L477.82 392.13ZM413.626 453.679C413.626 453.681 413.589 453.681 413.623 453.47C413.625 453.47 413.623 453.47 413.623 453.47L413.626 453.679Z" fill="#808080" stroke="#4D4D4D" stroke-width="0.194263"/>
<path d="M459.637 471.293L457.374 463.586L426.41 410.394L429.428 407.283L428.489 406.562L424.801 408.1L422.802 408.136L416.051 397.591L416.345 395.198L414.743 393.858L412.828 395.07L413.373 397.309L414.643 397.666L420.108 409.765L419.752 411.096L415.962 412.911L416.292 413.769C416.292 413.769 420.135 413.194 420.83 414.298C421.505 415.548 453.135 466.103 453.135 466.103L459.637 471.293Z" fill="#808080" stroke="#4D4D4D" stroke-width="0.194263"/>
<path d="M344.509 379.06L347.095 386.662L376.723 433.03C376.934 433.026 376.93 432.817 377.033 432.752C377.24 432.537 377.407 432.493 377.594 432.362L377.801 432.147C378.174 431.804 378.654 431.585 379.113 431.367L378.906 431.582L379.113 431.367C379.113 431.367 379.112 431.33 379.113 431.367C379.113 431.367 379.15 431.366 379.113 431.367C379.361 431.133 379.61 430.895 379.901 430.7C380.276 430.442 380.672 430.203 381.088 429.964C381.088 429.964 381.298 429.923 381.339 429.959C381.55 429.955 382.048 429.548 382.236 429.439C382.031 429.802 382.239 429.649 382.443 429.224C374.039 416.766 351.271 383.73 351.271 383.73L344.509 379.06Z" fill="#808080" stroke="#4D4D4D" stroke-width="0.194263"/>
<path d="M333.222 399.443L336.701 406.681L372.808 450.493C373.387 449.872 373.965 449.252 374.587 448.694C374.587 448.694 374.794 448.479 374.857 448.477C375.415 447.899 375.805 447.387 376.513 446.912C376.513 446.912 376.724 446.908 376.72 446.697C377.272 445.782 376.926 446.379 377.582 445.42C368.202 434.632 340.605 403.304 340.605 403.304L333.222 399.443ZM377.93 455.863C377.93 455.863 377.718 455.866 377.633 455.868C377.633 455.868 377.364 456.082 377.426 456.081C377.637 456.078 377.737 455.865 377.926 455.758L377.93 455.863ZM374.24 456.707C373.974 457.133 373.706 457.473 373.416 457.752L374.394 458.304L374.605 458.3C374.386 457.841 374.274 457.337 374.305 456.789L374.24 456.707Z" fill="#808080" stroke="#4D4D4D" stroke-width="0.194263"/>
<path d="M413.34 463.771L417.024 456.635L431.344 396.781L435.676 396.704L435.445 395.551L431.711 394.123L430.276 392.716L432.673 380.427L434.54 378.9L434.293 376.82L432.076 376.397L430.932 378.396L431.584 379.541L427.187 392.066L426.021 392.781L422.026 391.483L421.683 392.353C421.683 392.353 424.854 394.597 424.605 395.864C424.229 397.218 412.209 455.641 412.209 455.641L413.34 463.771Z" fill="#808080" stroke="#4D4D4D" stroke-width="0.194263"/>
<path d="M372.833 451.679L377.879 445.431L403.964 389.68L408.24 390.383L408.431 389.201L405.061 387.058L403.895 385.435L408.718 373.88L410.851 372.747L411.066 370.681L408.966 369.792L407.439 371.502L407.882 372.758L401.049 384.141L399.752 384.606L396.103 382.518L395.59 383.263C395.59 383.263 398.25 386.095 397.746 387.295C397.094 388.549 373.565 443.357 373.565 443.357L372.833 451.679Z" fill="#808080" stroke="#4D4D4D" stroke-width="0.194263"/>
<path d="M401.224 474.381L401.082 466.359L384.599 407.059L388.298 404.803L387.628 403.867L383.669 404.422L381.744 403.866L377.813 391.978L378.593 389.711L377.363 388.026L375.215 388.78L375.046 391.109L376.214 391.741L378.424 404.831L377.772 406.042L373.65 406.874L373.878 407.815C373.878 407.815 377.749 408.19 378.106 409.552C378.34 410.895 396.234 467.849 396.234 467.849L401.224 474.381Z" fill="#808080" stroke="#4D4D4D" stroke-width="0.194263"/>
<path d="M411.325 463.342L411.408 456.123L398.799 401.606L402.158 399.884L401.533 399.033L398.008 399.306L396.313 398.662L393.229 387.684L393.994 385.713L393.038 384.045L391.11 384.542L390.936 386.629L391.958 387.285L393.474 399.208L392.86 400.249L389.186 400.673L389.413 401.531C389.413 401.531 392.826 402.166 393.095 403.424C393.328 404.662 407.194 457.174 407.194 457.174L411.325 463.342Z" fill="#808080" stroke="#4D4D4D" stroke-width="0.173449"/>
<path d="M413.493 473.488L415.122 465.63L412.941 404.122L417.064 402.807L416.603 401.72L412.638 401.286L410.895 400.285L409.854 387.811L411.102 385.746L410.288 383.803L408.041 384.054L407.47 386.278L408.412 387.231L407.467 400.47L406.475 401.478L402.278 401.238L402.294 402.121C402.294 402.121 405.96 403.424 405.97 404.838C405.995 406.226 409.984 465.753 409.984 465.753L413.493 473.488Z" fill="#808080" stroke="#4D4D4D" stroke-width="0.194263"/>
<path d="M327.809 515.45L333.874 510.188L369.231 459.804L373.324 461.226L373.683 460.105L370.738 457.402L369.968 455.565L376.656 444.981L378.901 444.121L379.413 442.111L377.416 441.031L375.568 442.454L375.82 443.754L367.101 453.773L365.76 454.048L362.501 451.389L361.967 452.178C361.967 452.178 364.129 455.413 363.308 456.55C362.379 457.577 329.762 507.562 329.762 507.562L327.809 515.45Z" fill="#808080" stroke="#4D4D4D" stroke-width="0.194263"/>
<path d="M506.602 513.418L502.873 506.306L461.948 460.332L464.267 456.673L463.248 456.123L459.942 458.372L457.97 458.704L449.201 449.765L448.885 447.385L447.037 446.427L445.509 448.117L446.473 450.242L447.82 450.218L455.57 461L455.595 462.389L452.26 464.95L452.904 465.656C452.904 465.656 456.549 464.307 457.464 465.364C458.242 466.508 499.418 509.72 499.418 509.72L506.602 513.418Z" fill="#808080" stroke="#4D4D4D" stroke-width="0.194263"/>
<path d="M427.57 475.989L427.428 467.967L441.807 408.122L438.032 405.996L438.668 405.038L442.645 405.452L444.549 404.829L448.058 392.81L447.197 390.571L448.367 388.846L450.54 389.523L450.792 391.845L449.647 392.518L447.9 405.677L448.595 406.865L452.743 407.549L452.549 408.5C452.549 408.5 448.694 409.009 448.386 410.382C448.198 411.733 432.327 469.283 432.327 469.283L427.57 475.989Z" fill="#808080" stroke="#4D4D4D" stroke-width="0.194263"/>
<path d="M397.792 467.048C397.237 467.058 396.683 467.127 396.131 467.156C396.664 484.828 397.405 507.39 397.405 507.39L400.4 514.922L402.346 507.136L402.363 467.811C401.429 467.768 400.552 467.543 399.688 467.16L399.029 467.172C398.817 467.175 398.611 467.1 398.403 467.041L397.792 467.048Z" fill="#808080" stroke="#4D4D4D" stroke-width="0.734222"/>
<path d="M402.359 467.78C402.891 485.346 403.611 507.272 403.611 507.272L406.606 514.805L408.55 507.019L408.569 467.712C408.298 467.717 408.027 467.722 407.755 467.727C406.935 467.741 406.473 467.749 405.63 467.764C405.21 467.791 404.766 467.779 404.346 467.787C403.925 467.794 403.505 467.802 403.084 467.809C402.837 467.813 402.598 467.797 402.359 467.772L402.359 467.78Z" fill="#808080" stroke="#4D4D4D" stroke-width="0.734222"/>
<path d="M412.689 467.644C411.763 467.661 410.84 467.687 409.908 467.693C409.351 467.693 408.794 467.713 408.236 467.723C408.77 485.318 409.489 507.173 409.489 507.173L412.484 514.706L414.43 506.919L414.447 467.611C413.86 467.622 413.275 467.632 412.689 467.642L412.689 467.644Z" fill="#808080" stroke="#4D4D4D" stroke-width="0.734222"/>
<path d="M413.049 467.635L404.839 506.224L405.191 514.243L409.659 507.546C409.659 507.546 415.272 484.774 419.491 467.523C419.099 467.53 418.706 467.537 418.314 467.544C416.564 467.575 414.805 467.606 413.049 467.637L413.049 467.635Z" fill="#808080" stroke="#4D4D4D" stroke-width="0.734222"/>
<path d="M415.113 467.599L416.517 506.882L418.737 514.594L421.464 506.961C421.464 506.961 421.411 485.094 421.324 467.491C420.324 467.509 419.323 467.526 418.323 467.544C417.256 467.563 416.184 467.582 415.113 467.601L415.113 467.599Z" fill="#808080" stroke="#4D4D4D" stroke-width="0.734222"/>
<path d="M421.935 467.479C422.469 485.074 423.188 506.929 423.188 506.929L426.185 514.461L428.129 506.675L428.146 467.369L423.481 467.451C422.964 467.461 422.451 467.47 421.935 467.479V467.479Z" fill="#808080" stroke="#4D4D4D" stroke-width="0.734222"/>
<path d="M427.82 467.374C428.355 484.968 429.073 506.824 429.073 506.824L432.068 514.356L434.012 506.57L434.031 467.264L430.171 467.332L427.82 467.374Z" fill="#808080" stroke="#4D4D4D" stroke-width="0.734222"/>
<path d="M433.695 467.269C434.229 484.862 434.948 506.717 434.948 506.717L437.942 514.249L439.889 506.461L439.906 467.159L437.993 467.193L435.633 467.234L433.695 467.269Z" fill="#808080" stroke="#4D4D4D" stroke-width="0.734222"/>
<path d="M444.42 466.609C443.965 466.814 443.345 467.006 442.886 467.114L442.108 467.127L440.576 467.155L441.98 506.43L444.198 514.143L446.927 506.509C446.927 506.509 446.875 484.897 446.788 467.343C446.662 467.404 446.536 467.493 446.403 467.495C445.414 467.513 445.096 467.306 444.432 466.624C444.422 466.624 444.422 466.624 444.42 466.614L444.42 466.609ZM446.787 467.265C446.758 467.265 446.796 467.264 446.787 467.274C446.787 467.274 446.787 467.274 446.787 467.265Z" fill="#808080" stroke="#4D4D4D" stroke-width="0.734222"/>
<path d="M384.625 468.25C385.298 468.238 384.839 468.456 385.109 468.241L384.625 468.25ZM387.584 468.454L387.573 468.454C387.582 468.454 387.572 468.454 387.584 468.463C387.606 468.463 387.584 468.464 387.584 468.454ZM387.298 468.608C387.108 468.699 386.917 468.758 386.707 468.804C385.975 469.027 386.055 468.805 385.572 468.824L385.572 468.843L385.257 468.848C384.773 468.867 384.29 468.866 383.806 468.874C383.206 468.885 382.95 468.908 382.785 468.833C383.317 486.397 384.035 508.258 384.035 508.258L387.03 515.791L388.976 508.005L388.994 468.945C388.796 468.909 388.597 468.874 388.401 468.839C388.065 468.845 387.725 468.64 387.409 468.625C387.372 468.626 387.335 468.617 387.298 468.608V468.608Z" fill="#808080" stroke="#4D4D4D" stroke-width="0.734222"/>
<path d="M395.751 467.13C395.604 467.192 395.433 467.234 394.618 467.492C394.261 467.499 393.928 467.716 393.571 467.744C393.406 467.747 393.244 467.78 393.087 467.802C392.603 468.188 392.524 468.219 392.11 468.34L391.584 468.349C390.977 468.484 390.361 468.468 389.748 468.391L391.143 507.328L393.362 515.043L396.089 507.409C396.089 507.409 396.034 484.819 395.942 467.136C395.879 467.138 395.815 467.139 395.751 467.14L395.751 467.13Z" fill="#808080" stroke="#4D4D4D" stroke-width="0.734222"/>
<path d="M447.009 470.054C440.544 468.589 433.966 471.525 427.43 469.957C414.632 469.383 401.808 470.915 389.061 470.298C383.138 472.569 378.332 463.585 386.409 463.966C394.508 465.192 402.237 461.481 410.384 462.007C421.093 462.449 431.851 463.227 442.516 463.784C445.414 464.029 448.685 466.835 445.955 469.502" fill="#333333"/>
<path d="M447.009 470.054C440.544 468.589 433.966 471.525 427.43 469.957C414.632 469.383 401.808 470.915 389.061 470.298C383.138 472.569 378.332 463.585 386.409 463.966C394.508 465.192 402.237 461.481 410.384 462.007C421.093 462.449 431.851 463.227 442.516 463.784C445.414 464.029 448.685 466.835 445.955 469.502" stroke="#4D4D4D" stroke-width="0.196625"/>
<path d="M381.501 514.997L383.152 508.392L383.178 456.226L386.711 455.214L386.381 454.295L383.022 453.85L381.574 452.948L381.073 442.347L382.221 440.664L381.603 439.012L379.671 439.258L379.073 441.141L379.887 441.927L378.716 453.12L377.911 453.976L374.354 453.723L374.369 454.523C374.369 454.523 377.442 455.71 377.426 456.906C377.235 458.067 378.97 508.629 378.97 508.629L381.501 514.997Z" fill="#808080" stroke="#4D4D4D" stroke-width="0.164646"/>
<path d="M449.347 513.264L450.998 506.661L451.024 454.495L454.557 453.485L454.226 452.564L450.867 452.119L449.42 451.219L448.918 440.618L450.067 438.935L449.448 437.283L447.516 437.528L446.918 439.411L447.732 440.198L446.561 451.391L445.756 452.247L442.2 451.995L442.214 452.796C442.214 452.796 445.29 453.983 445.271 455.178C445.08 456.34 446.816 506.901 446.816 506.901L449.347 513.264Z" fill="#808080" stroke="#4D4D4D" stroke-width="0.164646"/>
</g>
</g>
<mask id="mask1" mask-type="alpha" maskUnits="userSpaceOnUse" x="387" y="369" width="292" height="349">
<path d="M387 603.188L391.899 369L670.181 369L679 603.188L632.946 655.121L533.482 717.832L438.933 655.121L387 603.188Z" fill="#D4CDB1"/>
</mask>
<g mask="url(#mask1)">
<path d="M599.367 544.23L475.454 544.23L475.454 707.251L599.367 707.251L599.367 544.23Z" fill="#1A1A1A" stroke="#999999" stroke-width="0.12759"/>
<path d="M501.58 574.829L590.816 612.348L595.087 633.88L496.599 590.476L501.58 574.829Z" fill="#333333" stroke="#4D4D4D" stroke-width="0.132558"/>
<path d="M574.964 574.962L485.728 612.483L481.458 634.013L579.946 590.61L574.964 574.962Z" fill="#333333" stroke="#4D4D4D" stroke-width="0.132558"/>
<path d="M479.478 663.572L522.145 639.471L523.451 613.775L489.073 615.659L483.509 632.608L479.565 662.91" fill="black"/>
<path d="M479.478 663.572L522.145 639.471L523.451 613.775L489.073 615.659L483.509 632.608L479.565 662.91" stroke="#333333" stroke-width="0.13901"/>
<path d="M523.451 613.775L527.642 610.53L543.721 609.692L549.092 627.179L546.215 642.834L528.858 642.257L522.145 639.471L523.451 613.775Z" fill="black" stroke="#333333" stroke-width="0.13901"/>
<path d="M534.418 623.621L534.727 600.64L533.174 597.69L535.575 590.514L541.321 590.357L546.911 593.153L547.772 596.291L548.296 596.554L549.072 602.61L546.898 602.298L546.122 604.007L544.822 604.21L545.134 625.326L540.941 627.189L537.68 627.656L534.264 625.791" fill="#808080"/>
<path d="M534.418 623.621L534.727 600.64L533.174 597.69L535.575 590.514L541.321 590.357L546.911 593.153L547.772 596.291L548.296 596.554L549.072 602.61L546.898 602.298L546.122 604.007L544.822 604.21L545.134 625.326L540.941 627.189L537.68 627.656L534.264 625.791" stroke="#333333" stroke-width="0.132558"/>
<path d="M530.097 644.656L548.059 644.656L546.751 717.752L531.405 717.752L530.097 644.656Z" fill="#808080" stroke="#999999" stroke-width="0.169286"/>
<path d="M511.533 642.901L521.498 640.97L560.737 640.927L567.149 643.151L565.486 651.755L562.649 650.993L561.914 649.677L559.065 644.574L518.873 644.488L516.96 650.964L513.541 651.552L511.533 642.901Z" fill="#666666" stroke="#999999" stroke-width="0.15389"/>
<path d="M429.22 602.719L422.169 637.776L420.684 715.321L475.606 710.009L482.286 653.709L496.388 613.343L523.848 565.541C492.305 559.393 460.763 543.048 429.22 602.719V602.719Z" fill="#242424" stroke="#4D4D4D" stroke-width="0.132558"/>
<path d="M427.235 714.974C427.235 712.815 428.875 653.482 428.875 653.482L436.944 606.057L444.816 603.051L436.006 654.69L434.057 712.343L427.235 714.974Z" fill="#1A1A1A"/>
<path d="M458.251 587.966C458.251 588.739 447.744 653.59 447.744 653.59L445.918 713.408L455.288 712.21L455.383 653.989L465.074 578.202L458.251 587.966Z" fill="#1A1A1A"/>
<path d="M482.36 581.975L465.815 651.089L465.486 711.353L469.238 710.799L470.942 650.751L489.443 581.227L482.36 581.975Z" fill="#1A1A1A"/>
<path d="M520.188 552.664C522.055 553.542 535.889 569.133 535.889 569.133L538.172 559.363L520.737 548.822L520.188 552.664Z" fill="#4D4D4D" stroke="#333333" stroke-width="0.132558"/>
<path d="M595.711 658.674L553.045 634.573L551.738 608.876L586.116 610.76L591.68 627.709L595.624 658.012" fill="black"/>
<path d="M595.711 658.674L553.045 634.573L551.738 608.876L586.116 610.76L591.68 627.709L595.624 658.012" stroke="#333333" stroke-width="0.13901"/>
<path d="M551.738 608.877L547.548 605.632L531.469 604.793L526.369 620.824L528.974 637.936L546.331 637.359L553.044 634.573L551.738 608.877Z" fill="black" stroke="#333333" stroke-width="0.13901"/>
<path d="M518.252 520.847L439.504 531.909L411.048 579.107L440.827 601.968L479.871 576.157L483.179 583.531L499.061 585.006L530.164 559.932L535.457 541.495L518.252 520.847Z" fill="#1A1A1A" stroke="#4D4D4D" stroke-width="0.149096"/>
<path d="M645.282 602.951L652.48 638.004L653.996 715.54L597.924 710.229L591.104 653.935L576.707 613.573L548.671 565.777C580.875 559.629 613.078 543.286 645.282 602.951V602.951Z" fill="#333333" stroke="#4D4D4D" stroke-width="0.132558"/>
<path d="M647.309 715.193C647.309 713.035 645.635 653.708 645.635 653.708L637.396 606.288L629.359 603.283L638.354 654.916L640.343 712.562L647.309 715.193Z" fill="#1A1A1A"/>
<path d="M615.643 588.2C615.643 588.972 626.369 653.816 626.369 653.816L628.234 713.627L618.668 712.429L618.57 654.215L608.677 578.437L615.643 588.2Z" fill="#1A1A1A"/>
<path d="M591.028 582.209L607.919 651.315L608.256 711.573L604.425 711.018L602.685 650.977L583.796 581.461L591.028 582.209Z" fill="#1A1A1A"/>
<path d="M561.863 523.454L640.611 534.517L669.067 581.714L639.288 604.576L600.244 578.764L596.936 586.139L581.054 587.612L549.951 562.541L544.658 544.104L561.863 523.454Z" fill="#1A1A1A" stroke="#4D4D4D" stroke-width="0.149096"/>
<path d="M546.005 558.749L546.964 568.149L560.798 562.879L569.582 538.834L565.739 538.394L553.771 557.608L546.005 558.749Z" fill="#4D4D4D" stroke="#333333" stroke-width="0.132558"/>
<path d="M511.68 533.539L531.152 557.562L553.841 558.135L573.165 526.075L574.043 465.907L536.713 461.514L505.97 480.838L503.336 510.703L511.68 533.539Z" fill="#FFCCAA" stroke="black" stroke-width="0.132558"/>
<path d="M544.466 448.096L508.892 456.001L476.832 500.797L487.812 528.466L474.197 549.107L486.933 558.331L516.797 557.452L512.515 528.137L505.489 518.476L512.954 513.643L508.892 501.236L517.676 483.23L523.824 469.616L542.709 473.569L547.54 467.859L560.716 469.177L568.62 490.697L566.864 516.169L571.256 526.271L578.283 540.323L577.404 553.499L594.532 529.784L598.046 518.805L609.464 515.73L594.532 495.967L591.897 481.913L591.458 467.859L581.357 462.15L574.33 447.658L554.567 452.488L544.466 448.096Z" fill="#333333" stroke="#4D4D4D" stroke-width="0.132558"/>
<path d="M516.177 539.537L531.237 552.259L541.758 547.935L550.95 551.072L565.739 538.394L553.771 557.608L544.981 558.828L529.941 557.888L516.177 539.537Z" fill="#333333" stroke="#808080" stroke-width="0.132558"/>
<path d="M538.406 531.656L527.435 533.883L525.537 539.031L526.343 540.542L535.74 537.5L539.273 535.512L541.155 535.569L541.234 535.566L541.314 535.569L543.196 535.512L546.728 537.5L556.669 540.542L557.475 539.031L555.578 533.883L544.062 531.656L541.235 531.782L538.406 531.656Z" fill="#333333"/>
</g>
</svg>
