<svg width="830" height="830" viewBox="0 0 830 830" fill="none" xmlns="http://www.w3.org/2000/svg">
<path d="M178.86 524.77L245.057 420.919L175.11 319.555L295.352 292.93L317.567 171.795L421.419 237.992L522.783 168.044L549.408 288.287L670.543 310.502L604.346 414.353L674.293 515.717L554.051 542.343L531.836 663.477L427.985 597.28L326.62 667.228L299.995 546.985L178.86 524.77Z" fill="#FFCC00" stroke="#805224" stroke-width="0.457877"/>
<path d="M415.324 712.193L414.753 414.786L338.852 599.028L415.324 712.193Z" fill="#FFDD55"/>
<path d="M204.819 625.485L414.714 414.782L230.765 491.391L204.819 625.485Z" fill="#FFDD55"/>
<path d="M117.279 415.323L414.686 414.752L230.444 338.851L117.279 415.323Z" fill="#FFDD55"/>
<path d="M203.985 204.817L414.688 414.712L338.079 230.763L203.985 204.817Z" fill="#FFDD55"/>
<path d="M414.146 117.277L414.718 414.684L490.619 230.443L414.146 117.277Z" fill="#FFDD55"/>
<path d="M624.655 203.984L414.76 414.687L598.709 338.078L624.655 203.984Z" fill="#FFDD55"/>
<path d="M712.195 414.147L414.787 414.718L599.029 490.62L712.195 414.147Z" fill="#FFDD55"/>
<path d="M625.486 624.654L414.783 414.759L491.391 598.708L625.486 624.654Z" fill="#FFDD55"/>
<path d="M414.753 414.786L491.361 598.735L415.324 712.193L414.753 414.786Z" fill="#E4B911"/>
<path d="M414.711 414.783L338.809 599.025L204.816 625.486L414.711 414.783Z" fill="#E4B911"/>
<path d="M414.684 414.751L230.735 491.36L117.277 415.323L414.684 414.751Z" fill="#E4B911"/>
<path d="M414.686 414.712L230.444 338.811L203.984 204.817L414.686 414.712Z" fill="#E4B911"/>
<path d="M414.718 414.683L338.109 230.734L414.147 117.275L414.718 414.683Z" fill="#E4B911"/>
<path d="M414.76 414.688L490.661 230.446L624.655 203.985L414.76 414.688Z" fill="#E4B911"/>
<path d="M414.786 414.72L598.736 338.111L712.194 414.149L414.786 414.72Z" fill="#E4B911"/>
<path d="M414.785 414.761L599.027 490.662L625.488 624.656L414.785 414.761Z" fill="#E4B911"/>
<path d="M383.203 601.74C486.455 619.164 584.282 549.587 601.706 446.336C619.131 343.084 549.554 245.257 446.302 227.833C343.051 210.409 245.224 279.985 227.799 383.237C210.375 486.488 279.952 584.316 383.203 601.74Z" fill="#1A1A1A" stroke="#805224" stroke-width="0.473649"/>
<path d="M391.821 550.676C466.872 563.341 537.979 512.768 550.644 437.718C563.309 362.668 512.736 291.561 437.686 278.895C362.636 266.23 291.528 316.803 278.863 391.853C266.198 466.904 316.771 538.011 391.821 550.676Z" fill="#C90303" stroke="#805224" stroke-width="0.34428"/>
<path d="M394.717 533.508C460.286 544.573 522.41 500.389 533.475 434.82C544.54 369.251 500.356 307.127 434.787 296.062C369.218 284.997 307.094 329.181 296.029 394.75C284.964 460.319 329.148 522.443 394.717 533.508Z" fill="#990000" stroke="#805224" stroke-width="0.300786"/>
<mask id="mask0" mask-type="alpha" maskUnits="userSpaceOnUse" x="275" y="275" width="279" height="279">
<path d="M394.72 533.51C460.288 544.575 522.413 500.391 533.478 434.823C544.543 369.254 500.359 307.13 434.79 296.065C369.221 285 307.097 329.184 296.032 394.752C284.967 460.321 329.151 522.445 394.72 533.51Z" fill="#990000" stroke="#805224" stroke-width="0.300786"/>
</mask>
<g mask="url(#mask0)">
<g style="mix-blend-mode:darken">
<path d="M329.471 515.093L356.267 452.956L338.523 418.034L318.847 384.613L339.601 395.993L341.505 365.127L356.787 375.155L357.553 358.971L359.265 345.105L376.619 357.658L378.03 326.799L393.789 329.662L402.386 317.583L413.35 331.558L429.34 322.468L438.105 347.763C438.105 347.763 452.479 330.379 452.514 332.335C452.548 334.291 457.959 363.56 457.959 363.56L472.069 358.908L476.216 372.047L485.391 365.034L481.455 391.532L504.808 383.779L493.849 400.61L515.753 393.861L508.743 412.581L475.101 447.432L470.039 465.631L501.647 509.607L449.782 510.272L329.471 515.093Z" fill="#4D4D4D" stroke="#4D4D4D" stroke-width="0.194263"/>
<path d="M400.973 318.97L399.809 326.912L405.68 388.18L401.644 389.744L402.168 390.789L406.161 390.928L407.965 391.823L409.763 404.212L408.58 406.317L409.475 408.195L411.719 407.817L412.205 405.557L411.159 404.713L411.261 391.436L412.126 390.347L416.328 390.273L416.312 389.37C416.312 389.37 412.571 388.298 412.456 386.913C412.432 385.524 404.791 326.346 404.791 326.346L400.973 318.97Z" fill="#808080" stroke="#4D4D4D" stroke-width="0.194263"/>
<path d="M357.97 353.222L358.932 361.195L380.654 418.784L377.166 421.351L377.939 422.243L381.831 421.332L383.838 421.716L388.752 433.228L388.14 435.568L389.494 437.144L391.588 436.245L391.547 433.941L390.338 433.393L386.96 420.553L387.527 419.279L391.56 418.115L391.332 417.191C391.332 417.191 387.452 417.259 386.972 415.837C386.634 414.496 363.696 359.395 363.696 359.395L357.97 353.222Z" fill="#808080" stroke="#4D4D4D" stroke-width="0.194263"/>
<path d="M365.552 327.331L366.053 335.343L384.443 394.078L380.816 396.443L381.548 397.357L385.482 396.677L387.428 397.169L391.743 408.918L391.027 411.224L392.298 412.884L394.413 412.048L394.372 409.737L393.183 409.128L390.543 396.116L391.173 394.863L395.269 393.927L395.042 393.047C395.042 393.047 391.16 392.78 390.762 391.44C390.442 390.077 370.762 333.758 370.762 333.758L365.552 327.331Z" fill="#808080" stroke="#4D4D4D" stroke-width="0.194263"/>
<path d="M385.952 321.732L385.483 329.747L396.665 390.27L392.777 392.169L393.384 393.169L397.374 392.887L399.26 393.611L402.06 405.812L401.047 408.008L402.109 409.8L404.327 409.296L404.601 407.005L403.493 406.246L402.439 393.011L403.219 391.86L407.397 391.427L407.418 390.501C407.418 390.501 403.602 389.789 403.367 388.389C403.342 387.001 390.451 328.721 390.451 328.721L385.952 321.732Z" fill="#808080" stroke="#4D4D4D" stroke-width="0.194263"/>
<path d="M436.313 319.742L433.95 327.416L430.415 388.86L426.186 389.799L426.543 390.908L430.468 391.659L432.11 392.809L431.994 405.327L430.512 407.227L431.115 409.216L433.39 409.175L434.214 407.014L433.313 406.019L435.437 392.914L436.452 391.969L440.616 392.528L440.811 391.619C440.811 391.619 437.278 389.998 437.375 388.606C437.562 387.234 439.032 327.576 439.032 327.576L436.313 319.742Z" fill="#808080" stroke="#4D4D4D" stroke-width="0.194263"/>
<path d="M457.37 321.71L454.101 329.042L443.189 389.616L438.878 390.028L439.109 391.181L442.913 392.399L444.431 393.74L442.734 406.143L441.017 407.836L441.368 409.892L443.622 410.191L444.68 408.151L443.924 407.049L447.616 394.296L448.738 393.498L452.804 394.563L453.126 393.693C453.126 393.693 449.813 391.669 450.081 390.287C450.478 388.955 459.072 329.901 459.072 329.901L457.37 321.71Z" fill="#808080" stroke="#4D4D4D" stroke-width="0.194263"/>
<path d="M338.889 362.343L340.795 370.14L369.298 424.692L366.146 427.664L367.024 428.427L370.775 427.056L372.777 427.232L379.106 438.034L378.812 440.43L380.352 441.835L382.288 440.642L381.889 438.362L380.599 437.986L375.697 425.646L376.095 424.312L379.959 422.666L379.607 421.83C379.607 421.83 375.74 422.257 375.112 421.004C374.563 419.729 345.212 367.772 345.212 367.772L338.889 362.343Z" fill="#808080" stroke="#4D4D4D" stroke-width="0.194263"/>
<path d="M309.216 383.419L312.695 390.656L351.841 438.153L349.373 441.71L350.393 442.281L353.782 440.179L355.778 439.91L364.198 449.175L364.452 451.578L366.259 452.642L367.894 451.076L366.994 448.95L365.664 448.764L358.321 437.702L358.508 436.309L361.951 433.9L361.412 433.172C361.412 433.172 357.716 434.374 356.842 433.253C356.043 432.109 316.599 387.339 316.599 387.339L309.216 383.419Z" fill="#808080" stroke="#4D4D4D" stroke-width="0.194263"/>
<path d="M326.006 370.559L328.59 378.161L361.731 430.027L358.844 433.252L359.782 433.951L363.373 432.181L365.393 432.146L372.579 442.396L372.411 444.813L374.075 446.069L375.946 444.773L375.339 442.546L374.028 442.254L368.068 430.389L368.36 429.037L372.069 427.055L371.717 426.2C371.717 426.2 367.914 426.981 367.169 425.774C366.62 424.5 332.743 375.353 332.743 375.353L326.006 370.559Z" fill="#808080" stroke="#4D4D4D" stroke-width="0.194263"/>
<path d="M367.976 341.862L368.665 349.86L388.516 408.117L384.952 410.578L385.704 411.469L389.624 410.686L391.569 411.134L396.173 422.777L395.519 425.093L396.832 426.711L398.927 425.834L398.887 423.519L397.677 422.93L394.712 409.987L395.3 408.735L399.369 407.674L399.142 406.751C399.142 406.751 395.258 406.587 394.824 405.25C394.485 403.909 373.388 348.086 373.388 348.086L367.976 341.862Z" fill="#808080" stroke="#4D4D4D" stroke-width="0.194263"/>
<path d="M357.391 370.844L359.297 378.643L384.565 427.006C385.04 426.471 385.226 426.258 386.22 425.335C386.512 425.079 386.779 424.779 387.09 424.563C387.735 424.088 388.299 423.887 388.945 423.476C389.237 423.238 389.589 423.044 389.966 422.911C382.095 408.825 363.705 376.271 363.705 376.271L357.391 370.844Z" fill="#808080" stroke="#4D4D4D" stroke-width="0.194263"/>
<path d="M381.676 337.432L381.397 345.456L394.089 405.68L390.249 407.683L390.898 408.662L394.881 408.363L396.788 409.023L399.884 421.155L398.935 423.368L400.039 425.138L402.239 424.573L402.451 422.287L401.343 421.547L399.953 408.344L400.69 407.174L404.858 406.638L404.841 405.711C404.841 405.711 401.01 405.084 400.738 403.699C400.502 402.314 386.338 344.371 386.338 344.371L381.676 337.432Z" fill="#808080" stroke="#4D4D4D" stroke-width="0.194263"/>
<path d="M499.87 367.609L493.516 372.515L455.167 420.662L451.178 418.985L450.819 420.106L453.594 422.986L454.301 424.909L446.927 435.025L444.605 435.697L443.945 437.666L445.779 439.002L447.736 437.789L447.502 436.468L456.804 426.992L458.189 426.756L461.255 429.623L461.939 428.958C461.939 428.958 459.902 425.661 460.871 424.52C461.843 423.535 497.439 375.627 497.439 375.627L499.87 367.609Z" fill="#808080" stroke="#4D4D4D" stroke-width="0.194263"/>
<path d="M482.265 355.885L476.544 361.513L444.276 413.931L440.113 412.741L439.903 413.882L443.002 416.402L443.876 418.218L437.837 429.184L435.63 430.148L435.202 432.198L437.221 433.258L438.983 431.752L438.645 430.453L446.736 419.926L448.077 419.588L451.471 422.064L452.006 421.339C452.006 421.339 449.661 418.236 450.415 417.054C451.237 415.924 480.83 364.115 480.83 364.115L482.265 355.885Z" fill="#808080" stroke="#4D4D4D" stroke-width="0.194263"/>
<path d="M448.972 341.19L444.537 347.884L423.781 405.829L419.461 405.526L419.482 406.704L423.023 408.538L424.271 410.115L420.625 422.093L418.693 423.537L418.73 425.64L420.913 426.234L422.269 424.379L421.742 423.147L427.484 411.176L428.778 410.627L432.613 412.349L432.957 411.522C432.957 411.522 430.033 408.962 430.548 407.635C431.115 406.362 449.384 349.56 449.384 349.56L448.972 341.19Z" fill="#808080" stroke="#4D4D4D" stroke-width="0.194263"/>
<path d="M468.614 349.028L463.407 355.14L435.824 410.161L431.574 409.331L431.384 410.493L434.742 412.671L435.804 414.378L430.679 425.798L428.516 426.89L428.279 428.957L430.359 429.909L431.95 428.239L431.528 426.962L438.668 415.767L439.986 415.322L443.586 417.494L444.14 416.747C444.14 416.747 441.52 413.884 442.173 412.627C442.995 411.497 467.859 357.236 467.859 357.236L468.614 349.028Z" fill="#808080" stroke="#4D4D4D" stroke-width="0.194263"/>
<path d="M510.511 376.009L504.356 380.34L466.693 423.64L462.976 421.976L462.617 422.992L465.147 425.729L465.714 427.487L458.494 436.645L456.301 437.228L455.618 439.027L457.348 440.28L459.196 439.139L459.174 437.896L468.24 429.424L469.548 429.203L472.373 431.928L473.018 431.313C473.018 431.313 471.274 428.157 472.15 427.18C473.068 426.27 508.158 383.141 508.158 383.141L510.511 376.009Z" fill="#808080" stroke="#4D4D4D" stroke-width="0.181357"/>
<path d="M488.416 403.141L481.147 406.549L438.726 440.867C439.343 441.235 439.598 441.358 440.685 442.159C441.004 442.387 441.346 442.59 441.624 442.858C442.223 443.395 442.526 443.916 443.062 444.454C443.363 444.701 443.619 444.99 443.814 445.345C456.069 434.848 484.352 410.392 484.352 410.392L488.416 403.141ZM437.876 453.744C437.876 453.744 437.876 453.744 437.839 453.747C437.876 453.744 437.839 453.747 437.843 453.958C437.841 453.958 437.843 453.958 437.843 453.958L437.876 453.744Z" fill="#808080" stroke="#4D4D4D" stroke-width="0.194263"/>
<path d="M520.328 398.55L513.292 402.419L468.057 444.157L464.369 441.885L463.862 442.946L466.161 446.215L466.575 448.187L457.74 457.059L455.351 457.374L454.395 459.222L456.002 460.815L458.068 459.831L458.045 458.505L468.677 450.549L470.066 450.524L472.662 453.829L473.433 453.331C473.433 453.331 472 449.721 473.056 448.776C474.134 447.873 516.649 406.029 516.649 406.029L520.328 398.55Z" fill="#808080" stroke="#4D4D4D" stroke-width="0.194263"/>
<path d="M463.832 376.958L457.427 381.795L421.605 425.842C422.329 426.292 423.052 426.722 423.714 427.236C423.714 427.236 423.97 427.443 423.97 427.461C424.651 427.892 425.224 428.177 425.824 428.777C425.824 428.777 425.827 428.987 426.079 428.982C427.096 429.343 426.442 429.187 427.5 429.568C436.223 418.241 461.486 385.004 461.486 385.004L463.832 376.958ZM417.354 431.925C417.354 431.925 417.35 431.714 417.349 431.629C417.349 431.629 417.092 431.4 417.093 431.422C417.096 431.633 417.371 431.692 417.5 431.857L417.354 431.925ZM415.798 428.473C415.331 428.27 414.929 428.11 414.609 427.863L414.269 428.921L414.272 429.133C414.688 428.829 415.148 428.611 415.693 428.538L415.798 428.473Z" fill="#808080" stroke="#4D4D4D" stroke-width="0.194263"/>
<path d="M414.744 314.928L412.987 322.761L414.285 384.296L410.142 385.547L410.582 386.635L414.555 387.069L416.278 388.092L417.129 400.583L415.797 402.585L416.548 404.529L418.811 404.278L419.467 402.058L418.482 401.128L419.575 387.899L420.504 386.872L424.699 387.112L424.893 386.182C424.893 386.182 421.245 384.836 421.233 383.443C421.42 382.051 418.157 322.471 418.157 322.471L414.744 314.928Z" fill="#808080" stroke="#4D4D4D" stroke-width="0.194263"/>
<path d="M427.926 329.782L424.909 337.222L416.155 398.142L411.861 398.706L412.133 399.847L415.977 400.934L417.541 402.208L416.285 414.667L414.632 416.42L415.062 418.462L417.323 418.684L418.306 416.608L417.519 415.536L420.747 402.655L421.841 401.81L425.94 402.735L426.242 401.861C426.242 401.861 422.859 399.958 423.078 398.564C423.331 397.182 429.92 337.898 429.92 337.898L427.926 329.782Z" fill="#808080" stroke="#4D4D4D" stroke-width="0.194263"/>
<path d="M477.819 392.131L470.879 396.168L431.273 434.367C431.277 434.578 431.528 434.575 431.614 434.615C431.869 434.821 431.934 434.922 432.106 435.088C432.106 435.088 432.107 435.089 432.362 435.295C432.767 435.584 433.091 436.018 433.393 436.434C433.393 436.434 433.392 436.435 433.137 436.229L433.393 436.434C433.395 436.434 433.393 436.434 433.393 436.434C433.395 436.434 433.393 436.434 433.393 436.432C433.67 436.638 433.947 436.822 434.204 437.07C434.524 437.379 434.847 437.733 435.169 438.085C435.169 438.085 435.173 438.296 435.173 438.337C435.177 438.547 435.71 438.959 435.86 439.103C435.456 438.9 435.65 439.108 436.116 439.31C446.67 428.612 474.56 399.769 474.56 399.769L477.819 392.131ZM413.626 453.679C413.626 453.682 413.589 453.681 413.622 453.47C413.624 453.47 413.622 453.47 413.622 453.47L413.626 453.679Z" fill="#808080" stroke="#4D4D4D" stroke-width="0.194263"/>
<path d="M459.636 471.293L457.374 463.586L426.409 410.395L429.427 407.283L428.488 406.562L424.801 408.1L422.802 408.136L416.051 397.591L416.345 395.198L414.743 393.858L412.828 395.07L413.372 397.309L414.642 397.666L420.107 409.765L419.751 411.096L415.961 412.911L416.291 413.769C416.291 413.769 420.135 413.195 420.83 414.298C421.505 415.549 453.134 466.103 453.134 466.103L459.636 471.293Z" fill="#808080" stroke="#4D4D4D" stroke-width="0.194263"/>
<path d="M344.508 379.06L347.094 386.662L376.723 433.03C376.934 433.027 376.93 432.817 377.032 432.752C377.239 432.537 377.407 432.493 377.594 432.363L377.801 432.147C378.173 431.804 378.653 431.586 379.113 431.367L378.906 431.582L379.113 431.367C379.113 431.367 379.112 431.33 379.113 431.367C379.113 431.367 379.15 431.366 379.113 431.367C379.36 431.133 379.609 430.895 379.901 430.7C380.275 430.442 380.671 430.203 381.088 429.964C381.088 429.964 381.298 429.923 381.339 429.959C381.55 429.956 382.048 429.548 382.235 429.439C382.031 429.802 382.239 429.65 382.442 429.224C374.039 416.767 351.27 383.731 351.27 383.731L344.508 379.06Z" fill="#808080" stroke="#4D4D4D" stroke-width="0.194263"/>
<path d="M333.222 399.444L336.701 406.681L372.808 450.493C373.386 449.872 373.965 449.252 374.586 448.694C374.586 448.694 374.793 448.479 374.856 448.478C375.414 447.9 375.805 447.388 376.512 446.912C376.512 446.912 376.724 446.908 376.72 446.697C377.272 445.782 376.925 446.38 377.581 445.42C368.201 434.632 340.605 403.304 340.605 403.304L333.222 399.444ZM377.929 455.863C377.929 455.863 377.718 455.867 377.633 455.868C377.633 455.868 377.363 456.083 377.426 456.082C377.637 456.078 377.737 455.865 377.926 455.758L377.929 455.863ZM374.24 456.707C373.973 457.133 373.706 457.473 373.416 457.752L374.394 458.304L374.605 458.3C374.386 457.841 374.273 457.337 374.304 456.789L374.24 456.707Z" fill="#808080" stroke="#4D4D4D" stroke-width="0.194263"/>
<path d="M413.34 463.771L417.023 456.636L431.344 396.781L435.675 396.704L435.444 395.552L431.71 394.123L430.276 392.717L432.672 380.428L434.54 378.9L434.292 376.82L432.075 376.397L430.931 378.396L431.583 379.541L427.186 392.066L426.021 392.781L422.026 391.483L421.683 392.353C421.683 392.353 424.854 394.597 424.605 395.864C424.229 397.218 412.209 455.642 412.209 455.642L413.34 463.771Z" fill="#808080" stroke="#4D4D4D" stroke-width="0.194263"/>
<path d="M372.832 451.679L377.879 445.432L403.963 389.68L408.24 390.384L408.43 389.202L405.06 387.058L403.895 385.435L408.717 373.88L410.85 372.747L411.066 370.681L408.966 369.793L407.439 371.502L407.882 372.758L401.049 384.141L399.752 384.607L396.103 382.518L395.59 383.263C395.59 383.263 398.25 386.095 397.745 387.295C397.094 388.549 373.565 443.357 373.565 443.357L372.832 451.679Z" fill="#808080" stroke="#4D4D4D" stroke-width="0.194263"/>
<path d="M401.223 474.381L401.082 466.359L384.599 407.059L388.297 404.803L387.627 403.868L383.668 404.422L381.743 403.867L377.812 391.979L378.593 389.711L377.363 388.026L375.215 388.78L375.045 391.109L376.214 391.741L378.423 404.831L377.771 406.042L373.65 406.874L373.878 407.816C373.878 407.816 377.749 408.19 378.105 409.552C378.34 410.895 396.233 467.849 396.233 467.849L401.223 474.381Z" fill="#808080" stroke="#4D4D4D" stroke-width="0.194263"/>
<path d="M411.325 463.342L411.408 456.123L398.799 401.606L402.157 399.884L401.532 399.033L398.007 399.307L396.312 398.662L393.228 387.684L393.993 385.713L393.037 384.045L391.109 384.542L390.936 386.629L391.958 387.285L393.473 399.208L392.86 400.249L389.185 400.673L389.412 401.532C389.412 401.532 392.826 402.166 393.095 403.424C393.328 404.662 407.193 457.174 407.193 457.174L411.325 463.342Z" fill="#808080" stroke="#4D4D4D" stroke-width="0.173449"/>
<path d="M413.493 473.489L415.121 465.63L412.941 404.122L417.064 402.808L416.603 401.72L412.638 401.286L410.894 400.285L409.853 387.811L411.101 385.746L410.288 383.803L408.04 384.055L407.47 386.279L408.412 387.231L407.467 400.47L406.475 401.478L402.278 401.238L402.294 402.121C402.294 402.121 405.959 403.424 405.97 404.838C405.994 406.227 409.983 465.754 409.983 465.754L413.493 473.489Z" fill="#808080" stroke="#4D4D4D" stroke-width="0.194263"/>
<path d="M327.809 515.45L333.874 510.188L369.231 459.804L373.324 461.226L373.683 460.105L370.738 457.402L369.968 455.565L376.656 444.982L378.901 444.121L379.413 442.111L377.415 441.031L375.567 442.454L375.82 443.755L367.101 453.774L365.759 454.049L362.5 451.39L361.967 452.178C361.967 452.178 364.129 455.414 363.307 456.55C362.378 457.577 329.762 507.562 329.762 507.562L327.809 515.45Z" fill="#808080" stroke="#4D4D4D" stroke-width="0.194263"/>
<path d="M506.602 513.418L502.873 506.307L461.948 460.333L464.267 456.673L463.248 456.124L459.942 458.373L457.969 458.704L449.201 449.765L448.885 447.385L447.037 446.427L445.509 448.117L446.473 450.242L447.82 450.218L455.57 461L455.594 462.39L452.26 464.95L452.904 465.656C452.904 465.656 456.548 464.307 457.463 465.364C458.241 466.508 499.418 509.72 499.418 509.72L506.602 513.418Z" fill="#808080" stroke="#4D4D4D" stroke-width="0.194263"/>
<path d="M427.569 475.989L427.428 467.967L441.807 408.122L438.032 405.996L438.667 405.038L442.645 405.452L444.549 404.829L448.058 392.81L447.197 390.571L448.366 388.846L450.54 389.524L450.792 391.845L449.647 392.518L447.9 405.678L448.594 406.865L452.742 407.549L452.549 408.5C452.549 408.5 448.693 409.009 448.385 410.383C448.198 411.733 432.326 469.283 432.326 469.283L427.569 475.989Z" fill="#808080" stroke="#4D4D4D" stroke-width="0.194263"/>
<path d="M397.789 467.046C397.234 467.056 396.681 467.124 396.128 467.154C396.661 484.826 397.403 507.387 397.403 507.387L400.397 514.92L402.344 507.134L402.36 467.808C401.426 467.766 400.55 467.541 399.686 467.158L399.027 467.169C398.814 467.173 398.608 467.098 398.401 467.039L397.789 467.046Z" fill="#808080" stroke="#4D4D4D" stroke-width="0.734222"/>
<path d="M402.357 467.777C402.889 485.344 403.608 507.27 403.609 507.27L406.603 514.802L408.548 507.016L408.567 467.71C408.295 467.715 408.024 467.719 407.753 467.724C406.932 467.739 406.471 467.747 405.627 467.762C405.207 467.789 404.764 467.777 404.343 467.784C403.923 467.792 403.502 467.799 403.082 467.807C402.835 467.811 402.595 467.795 402.357 467.77L402.357 467.777Z" fill="#808080" stroke="#4D4D4D" stroke-width="0.734222"/>
<path d="M412.686 467.642C411.761 467.658 410.838 467.684 409.906 467.691C409.349 467.691 408.791 467.711 408.234 467.72C408.768 485.315 409.486 507.171 409.486 507.171L412.481 514.703L414.427 506.917L414.445 467.609C413.858 467.619 413.273 467.63 412.686 467.64L412.686 467.642Z" fill="#808080" stroke="#4D4D4D" stroke-width="0.734222"/>
<path d="M413.047 467.633L404.837 506.221L405.189 514.24L409.657 507.543C409.657 507.543 415.27 484.772 419.489 467.521C419.097 467.528 418.704 467.535 418.312 467.542C416.562 467.572 414.803 467.604 413.047 467.635L413.047 467.633Z" fill="#808080" stroke="#4D4D4D" stroke-width="0.734222"/>
<path d="M415.11 467.596L416.515 506.879L418.735 514.592L421.462 506.958C421.462 506.958 421.409 485.091 421.321 467.488C420.321 467.506 419.321 467.524 418.321 467.541C417.254 467.56 416.181 467.579 415.11 467.598L415.11 467.596Z" fill="#808080" stroke="#4D4D4D" stroke-width="0.734222"/>
<path d="M421.933 467.476C422.467 485.071 423.185 506.926 423.185 506.926L426.182 514.459L428.126 506.673L428.144 467.367L423.479 467.449C422.962 467.458 422.448 467.467 421.933 467.476V467.476Z" fill="#808080" stroke="#4D4D4D" stroke-width="0.734222"/>
<path d="M427.818 467.371C428.352 484.966 429.071 506.821 429.071 506.821L432.065 514.354L434.01 506.568L434.029 467.261L430.168 467.33L427.818 467.371Z" fill="#808080" stroke="#4D4D4D" stroke-width="0.734222"/>
<path d="M433.692 467.266C434.227 484.86 434.945 506.714 434.945 506.714L437.94 514.247L439.886 506.459L439.903 467.156L437.99 467.19L435.63 467.232L433.692 467.266Z" fill="#808080" stroke="#4D4D4D" stroke-width="0.734222"/>
<path d="M444.417 466.606C443.962 466.812 443.343 467.003 442.884 467.111L442.106 467.125L440.573 467.152L441.978 506.427L444.196 514.14L446.925 506.506C446.925 506.506 446.872 484.894 446.786 467.341C446.659 467.402 446.534 467.49 446.4 467.493C445.412 467.51 445.093 467.304 444.429 466.621C444.419 466.622 444.42 466.622 444.418 466.612L444.417 466.606ZM446.784 467.262C446.756 467.263 446.794 467.262 446.784 467.272C446.785 467.272 446.784 467.272 446.784 467.262Z" fill="#808080" stroke="#4D4D4D" stroke-width="0.734222"/>
<path d="M384.623 468.247C385.295 468.235 384.836 468.454 385.106 468.239L384.623 468.247ZM387.582 468.451L387.57 468.451C387.58 468.451 387.57 468.451 387.582 468.461C387.603 468.46 387.582 468.461 387.582 468.451ZM387.296 468.605C387.105 468.697 386.914 468.756 386.705 468.801C385.972 469.025 386.053 468.803 385.569 468.821L385.57 468.84L385.254 468.846C384.771 468.864 384.288 468.863 383.804 468.872C383.204 468.882 382.947 468.906 382.782 468.83C383.314 486.395 384.033 508.256 384.033 508.256L387.028 515.788L388.974 508.002L388.992 468.943C388.793 468.907 388.595 468.871 388.399 468.836C388.063 468.842 387.723 468.638 387.407 468.623C387.37 468.623 387.332 468.615 387.296 468.605V468.605Z" fill="#808080" stroke="#4D4D4D" stroke-width="0.734222"/>
<path d="M395.749 467.128C395.602 467.189 395.431 467.232 394.616 467.49C394.258 467.496 393.926 467.714 393.569 467.742C393.403 467.745 393.241 467.778 393.084 467.8C392.601 468.185 392.521 468.216 392.107 468.337L391.582 468.346C390.975 468.481 390.359 468.466 389.745 468.388L391.14 507.326L393.36 515.04L396.087 507.407C396.087 507.407 396.032 484.817 395.94 467.134C395.876 467.135 395.812 467.136 395.749 467.137L395.749 467.128Z" fill="#808080" stroke="#4D4D4D" stroke-width="0.734222"/>
<path d="M447.009 470.054C440.544 468.59 433.965 471.526 427.429 469.957C414.632 469.383 401.808 470.915 389.06 470.298C383.137 472.569 378.331 463.585 386.408 463.967C394.508 465.192 402.237 461.482 410.383 462.007C421.092 462.449 431.851 463.227 442.516 463.784C445.414 464.029 448.684 466.835 445.955 469.502" fill="#333333"/>
<path d="M447.009 470.054C440.544 468.59 433.965 471.526 427.429 469.957C414.632 469.383 401.808 470.915 389.06 470.298C383.137 472.569 378.331 463.585 386.408 463.967C394.508 465.192 402.237 461.482 410.383 462.007C421.092 462.449 431.851 463.227 442.516 463.784C445.414 464.029 448.684 466.835 445.955 469.502" stroke="#4D4D4D" stroke-width="0.196625"/>
<path d="M381.501 514.997L383.152 508.392L383.178 456.226L386.711 455.215L386.38 454.295L383.021 453.85L381.574 452.948L381.072 442.347L382.221 440.664L381.603 439.012L379.67 439.258L379.073 441.141L379.886 441.927L378.716 453.12L377.91 453.977L374.354 453.723L374.368 454.523C374.368 454.523 377.442 455.71 377.425 456.906C377.235 458.067 378.969 508.629 378.969 508.629L381.501 514.997Z" fill="#808080" stroke="#4D4D4D" stroke-width="0.164646"/>
<path d="M449.346 513.264L450.997 506.661L451.023 454.495L454.556 453.485L454.226 452.564L450.867 452.119L449.419 451.219L448.918 440.618L450.066 438.935L449.448 437.283L447.516 437.529L446.918 439.412L447.732 440.198L446.561 451.391L445.756 452.247L442.199 451.996L442.214 452.796C442.214 452.796 445.289 453.983 445.27 455.179C445.08 456.34 446.815 506.901 446.815 506.901L449.346 513.264Z" fill="#808080" stroke="#4D4D4D" stroke-width="0.164646"/>
</g>
</g>
<mask id="mask1" mask-type="alpha" maskUnits="userSpaceOnUse" x="365" y="356" width="306" height="366">
<path d="M365 601.468L370.134 356L661.758 356L671 601.468L622.738 655.901L518.505 721.634L419.423 655.901L365 601.468Z" fill="#272727"/>
</mask>
<g mask="url(#mask1)">
<path d="M506.211 547.616L525.12 586.02L538.289 603.85L541.328 634.711L547.744 663.514L548.419 676.201L544.029 717.005L481.899 684.43L468.392 669.343L475.145 625.452L475.483 603.85L477.509 559.617L506.211 547.616Z" fill="#585A5C" stroke="black" stroke-width="0.100188"/>
<path d="M507.315 547.719L519.731 579.239L537.877 603.971L542.175 583.603L552.919 563.176L507.315 547.719Z" fill="#DCCAC0" stroke="#805224" stroke-width="0.100188"/>
<path d="M543.13 470.131L577.99 480.314L577.99 515.229L568.916 552.083L548.86 564.206L506.837 551.598L498.719 535.596L513.045 511.349L520.686 494.377L531.191 471.586L543.13 470.131Z" fill="#DCCAC0" stroke="#805224" stroke-width="0.100188"/>
<path d="M553.146 563.046L537.276 591.163L534.237 605.908L545.717 679.287L566.991 682.716L599.069 648.084L588.939 580.877L570.367 562.018L553.146 563.046Z" fill="#585A5C" stroke="#231F20" stroke-width="0.100188"/>
<path d="M577.989 483.951L585.152 525.897L582.765 543.355L586.585 556.932L576.557 572.45L584.675 591.847L578.467 608.819L594.226 630.156L586.585 650.523L599.001 670.405L579.422 673.315L564.619 653.917L562.709 626.762L556.023 612.699L557.933 589.908L551.248 574.39L551.845 562.267L568.916 550.144L577.751 514.623L577.989 483.951Z" fill="#D0CCC1" stroke="#E6E1D5" stroke-width="0.100188"/>
<path d="M585.152 561.296L614.759 563.237C614.759 563.237 619.535 567.116 618.58 569.055C617.625 570.995 608.551 590.877 608.551 590.877L595.181 603L580.855 609.79L571.782 574.389L585.152 561.296Z" fill="#595D5E" stroke="#231F20" stroke-width="0.100188"/>
<path d="M577.07 703.868L551.434 717.172L544.681 715.115L532.525 706.885L527.797 692.827L532.187 683.568L547.382 675.682L567.063 679.873L577.07 703.868Z" fill="#DCCAC0" stroke="#805224" stroke-width="0.100188"/>
<path d="M609.142 589.672L612.007 640.104L616.305 667.261L619.647 683.748L591.473 701.69L572.371 710.418L571.417 695.871L563.298 679.383L553.27 673.08L572.371 663.381L594.338 633.801L583.832 609.554L609.142 589.672Z" fill="#70767A" stroke="#585A5C" stroke-width="0.100188"/>
<path d="M413.357 631.859L405.235 705.569L464.766 708.499L439.69 569.561L413.357 631.859Z" fill="#231F20" stroke="black" stroke-width="0.100188"/>
<path d="M433.272 570.923L419.093 638.14L418.755 673.115L427.872 701.232L506.211 716.663L522.081 721.12L515.328 700.889L515.328 691.631L521.068 682.03L460.626 664.885L469.067 667.971L476.496 631.625L476.834 611.051L443.067 569.904L433.272 570.923Z" fill="#70767A" stroke="#585A5C" stroke-width="0.100188"/>
<path d="M471.973 552.078L427.244 563.714L415.478 580.106L413.358 631.858L426.791 602.44L434.103 571.908L463.507 594.812L478.254 617.971L486.176 564.189L471.973 552.078Z" fill="#585A5C" stroke="#231F20" stroke-width="0.111481"/>
<path d="M564.91 650.729C564.91 650.729 535.925 643.626 535.25 641.226C534.575 638.826 517.016 629.224 515.328 627.852C513.639 626.481 499.12 617.908 497.431 615.165C495.743 612.422 480.548 595.278 479.197 592.192C477.847 589.106 471.431 584.648 471.431 584.648L460.626 580.533L457.924 574.704L460.626 560.645L452.184 556.53L458.096 552.808L465.691 553.788L469.743 557.217L474.47 561.674L477.509 563.731C477.509 563.731 481.899 564.074 481.561 569.561C481.223 575.047 481.561 581.905 481.561 581.905L494.73 597.336C494.73 597.336 505.873 605.222 507.899 607.622C509.925 610.022 522.756 623.052 524.782 623.395C526.808 623.738 542.341 632.996 542.341 632.996L557.874 640.197L564.289 641.911L566.634 646.149L564.91 650.729Z" fill="#CCCCCC" stroke="#585A5C" stroke-width="0.100188"/>
<path d="M580.974 484.679L580.497 472.555L555.546 453.158L513.045 448.309L483.916 464.797L482.483 480.799L482.005 505.531L484.393 524.927L480.573 541.415L471.977 551.113L480.573 564.691L481.051 583.603L479.14 609.304L487.258 625.307L486.781 640.824L492.511 649.068L491.079 661.191L512.568 676.224L524.506 670.89L519.253 648.583L517.82 632.096L513.045 613.668L518.776 597.182L509.225 576.33L512.09 563.237L500.152 535.111L507.076 527.352L519.731 512.077L531.191 476.435L540.742 472.07L560.321 478.86L580.974 484.679Z" fill="#E6E1D5" stroke="#A28F63" stroke-width="0.100188"/>
<path d="M533.899 469.093L520.393 459.149L507.899 455.378L498.445 456.406L485.613 461.206L486.964 466.007L494.73 465.664L506.548 461.893L512.964 467.036L523.432 469.093L528.159 472.865L533.899 469.093Z" fill="#E6E1D5" stroke="#A28F63" stroke-width="0.100188"/>
<path d="M523.432 720.778L547.406 722.491L551.121 707.062L545.718 687.517L537.951 679.115L526.809 681.687L519.042 684.431L514.315 698.147L518.367 717.691L523.432 720.778Z" fill="#DCCAC0" stroke="#805224" stroke-width="0.100188"/>
<path d="M463.75 567.88L461.556 570.281L458.896 570.152L460.5 573.324L460.711 575.424L461.556 577.867L462.146 577.525L463.075 577.867L463.666 577.182L465.101 576.41L463.413 578.039L463.877 579.882L466.578 581.082L467.043 579.71L467.633 578.253L469.617 576.024L470.208 574.995L471.095 575.125L475.906 576.668L477.806 577.481L478.565 574.953L477.299 574.91L475.569 573.923L475.315 572.981L476.835 572.723L477.975 573.152L478.017 571.352L477.637 568.394L476.751 566.508L476.413 565.265L474.767 563.594L473.839 561.879L472.868 563.122L471.475 563.166L472.699 565.438L472.699 566.766L471.813 566.938L468.563 565.052L466.537 564.024C466.537 564.024 465.904 564.752 465.988 564.924C466.072 565.096 467.592 567.196 467.592 567.196L466.874 569.124L465.228 569.638L464.384 570.496L463.75 567.88Z" fill="#CCCCCC" stroke="#585A5C" stroke-width="0.100188"/>
<path d="M496.332 491.953L484.871 494.862L485.826 514.744L493.466 516.199L496.332 491.953Z" fill="#DCCAC0" stroke="#805224" stroke-width="0.100188"/>
</g>
</svg>
